<svg xmlns="http://www.w3.org/2000/svg" version="1" viewBox="0 0 229.38 227.28" width="229.38" height="227.28"><defs><radialGradient id="c" cx="-64.643" cy="440.66" r="97.988" gradientTransform="matrix(1.204 .37155 .40811 -1.3224 -104.25 723.67)" gradientUnits="userSpaceOnUse"><stop stop-color="#fff" offset="0"></stop><stop stop-color="#94caff" offset="1"></stop></radialGradient><radialGradient id="b" cx="1009.6" cy="807.87" r="269.55" gradientTransform="matrix(.62831 -2.4317 1.1396 .29448 -453.56 3018.5)" gradientUnits="userSpaceOnUse"><stop stop-color="#160000" stop-opacity=".97286" offset="0"></stop><stop stop-color="#569b0f" offset=".57333"></stop><stop stop-color="#4ce72c" offset="1"></stop></radialGradient><radialGradient id="a" cx="99.958" cy="139.37" r="45.07" gradientTransform="matrix(-.30722 1.1472 -1.1135 -.29854 294 55.582)" gradientUnits="userSpaceOnUse"><stop stop-opacity="0" offset="0"></stop><stop stop-opacity=".023529" offset=".43081"></stop><stop stop-opacity=".035294" offset=".57087"></stop><stop stop-opacity=".066667" offset=".63646"></stop><stop stop-opacity=".14894" offset=".69579"></stop><stop stop-opacity=".21277" offset=".7303"></stop><stop stop-opacity=".5461" offset="1"></stop></radialGradient><filter id="d" x="-.042573" y="-.055013" width="1.0851" height="1.11" color-interpolation-filters="sRGB"><feGaussianBlur stdDeviation="3.9681889"></feGaussianBlur></filter></defs><g transform="matrix(1.25 0 0 -1.25 -926.56 455.53)"><g transform="matrix(.45945 .14179 .14179 -.45945 780.05 383.75)"><path d="m37.058 439.28c103.56 0 187.57-84.39 187.57-187.92 0-102.87-84.01-187.27-187.57-187.27-102.82.004-187.55 84.4-187.55 187.27 0 103.53 84.728 187.92 187.55 187.92z" fill="url(#c)"></path></g><g transform="matrix(.41782 0 0 .41782 712.6 153.02)"><path transform="matrix(.8 0 0 -.8 -469.94 792)" d="m946.25 360-13.22 1.19-2.09.31h2.4l-7.22 1.81-3 .28 1.82-.28h-2.69l3.28-.31 2.09-.31.63-.6-2.13.32 1.5-.6-4.5.88h-.59l.31.31h-2.4l-.91.31h2.09l-1.78.6v-.32l-.59.32h-.63l-2.09.28.91-.28-1.82.28h-.59l-2.41.31h-1.78l-6.31 1.19-3 .31-.59.31-.6.28h-.31l.31-.28-9.31 1.19-1.19.59 1.28-.21.22.21h-1.81l-2.09.32 2.68.28h-3l-1.78.31-.31.31v-.31l-2.41.59.63-.28-1.81.6.9-.6-6.59 1.5-1.22.6h-1.5l-1.5.28-.59.31h-.32l-1.5.59 1.22-.59h-.31l-2.69.91.91-.6-3 .88-.31.31-.6.31-1.81.6 2.09-.91-4.18 1.19-.91.31-1.19.59.28-.28-1.18.28-1.13.38-1.87.84 1.18-.62-2.68 1.22.59-.32-1.19.32-1.81.59-.28.31-1.22.28h.31l-.59.32-1.5.59.28-.31h-.28l-1.81.9-2.41 1.22h-.59l-.6.28-.31.32-1.78.9h-.63l-1.18.6-.32.28-1.18.62-1.22.6h-.6l-.9.28-3 1.5-.88.31-4.22 2.09-.87.32-3 1.5-.63.59-2.37 1.19-.91.31-1.22.59-.59.6-3 1.5-.59.62-1.82.88-.59.62-.91.28-1.78.91-.59.59-1.22.6-.59.62-1.82.88-.59.62-.59.28-4.82 3.32-4.78 3-11.4 8.68-.13.07-.47.25-.31.28-.59.31-.6.59-.59.32-.31.59-.1.03-.5.28h.19l-1.09.88-3.91 3.31-.91.59-.59.32-1.19 1.18-.9.6-2.41 2.4-.91.6-4.18 4.22-.91.59-1.19 1.19-1.43 1.47-.07.03-1.22 1.22-.03.06-1.12 1.09-.03.03-1.19 1.22-1.16 1.16-.06.03-.28.31-.63.6-.28.59-3.59 3.59-.31.6-.6.62-.06.03-.53.25-.31.6-.94.93-.03.04-.22.25-.31.59-1.5 1.5-.32.59-1.18 1.22-.32.6-1.18 1.18-.32.6-1.18 1.22-.32.59-1.18 1.19-.32.62-.59.6-.28.59-.63.59-.28.6h-.31l-.28.62-.63.6-.28.59-.59.59-.63 1.22-.59.6-.28.59-.63.59-.28.6-.59.62-.63 1.19-.59.59-.34.69-.25.53-.1.1-2.31 4.09.91-.91-1.19 1.5-.63 1.22-.28.28-.9 1.82.31-.32-1.22 2.41-.91 1.19-.59 1.22-.28.9-.31.28-.6 1.22-.31.6-3.28 5.68-2.13 2.72v.6l-.87.9-1.5 2.38-.31.9-2.41 3.91-1.19 3-.9 1.19-.32 1.22-.28.59 3.28-4.81 7.82-12.6 3.31-4.5 1.78-.9h.91l1.81-.28 1.5 2.4.59-1.81.6.31.9-1.81-.9 2.41h.59l.91-1.22-.6.31.91-.91v-1.5l.87.32-.87 1.5 1.31-1.53 1.06-1.47 1.5-3-.59 1.78.38-.63.84-.56.34-.53.53-.38.32-.59 1.5-3 .9-.59-2.4 3.59 2.4-2.41 1.5-1.5.6.91-2.1.59-2.72 4.22-2.37 1.78 3.59-1.78 3.91-4.81-2.41 3.59 2.1-.59 2.4-2.41h1.5l.6 3.6 1.18-1.19-.87 1.5.28 1.81 1.5-1.22-1.19.32 2.1-3.32 4.5-2.09v.91l1.18-.91-.59 1.5 2.41-1.19-1.19.88.87.31-.59 1.19 1.5.9 1.5-1.78-.59 2.1 3.59 1.78-2.09.31.59 3-1.5-.31.91-1.78-3-.91-2.41 2.09-.91 2.41 3.91-1.19-.28 1.78.87-.9 2.72 3.31.6.31 1.5-3.62-1.19-2.1 1.5-4.5 2.69-2.09-.32-1.19 2.72-.9-.9-1.22.9-1.19.28-1.81.32 2.72 1.81.59 2.09-2.41v-3l-2.09-2.09-6.63-.91 3.32-.28 1.81-1.22 3.87 2.1 2.41-.6 1.22-.28 2.09 11.38h.28l4.22-.6 1.5 2.41 3.28.31.91-2.12.59 1.22-.28-2.1.6 1.5.59-1.5 2.09-.9 1.22-2.1-1.81-.62 2.09-.88.32-2.4-3.6-1.22-1.5-.6 1.78.6.32-.28.59-.32.31-.28.6-.31.31-.59.59-.32.28-.28.63-.31.28-.31.59-.28.32-.32.59-.28.31-.31.6-.31-1.5-.28 3.31-1.5h-.91l.91-.6v-2.12h1.19v-.88l.31.28.28-1.18.59.59.63-1.81-.31 1.5 2.09-.6.91-2.68.9.59.91-1.81.87-.28-.87-.91h2.09l-.9-.91h1.81l1.5-1.18-.63-1.22.91.62 3-3.62h1.22l.28-.88-2.69.28-1.5 1.5-.59-.9-.63 1.22-1.18-.6-2.1 1.19 2.1-1.81h-3.32l2.13-1.78-2.41.28 3.28-1.19-.28-2.69h1.19l-.91.88 2.13-.6v-.59l2.69-1.19.31-1.81v1.81l4.19-1.81h-1.19l1.5-3 1.78-.59v-.91l3.91-3.31-1.5-.6 2.68-4.5-1.18-.59-3 2.09-3 .32v.59l-3.32 1.81-5.09.28-3 3.32-6.59 3.59-3.91.59-1.5-2.4-2.09 2.12-7.5 4.78h-1.5l-2.41 1.5 2.09-1.78-1.78.28.28-.59.91-1.19 1.5-.9 5.41-5.1 8.4-3.9 2.1-4.5 12.31-11.1.28-2.4h1.22l6-2.41 1.19-1.5-1.5.31 3.31-1.5 5.09-1.22 3 .91 1.19-.59.91 1.5 1.5-.91-.91 1.19.91.62 2.68-1.5v-.9h.63l2.09-1.82 1.19-.28-3.91 3-1.5 1.19 2.13.31-1.22 2.1 3.31.59 5.69-5.09-.28 1.18-4.5 3.32 2.69.9 2.09-1.5-3 3.6 3.59-2.1-.59 1.19-2.41 1.19 3.63 1.22 4.78-2.41.31 1.19 1.5-.88 1.19.28 2.09-2.09.32.59 1.81-2.68-5.13 1.5.63-.91h-5.72l-.28-.91 8.09-1.78 1.78-1.22-3.87-.28 5.69-1.81-.32 1.19 2.41-2.38h1.22l.87.28-.9.6 9.31-2.69-3.31-1.81-1.19.9-2.41-.28h-.59l-3.91 2.69.32-.91h-2.1l.6.6-2.1.31-.59-1.5-3.63.31 2.13-1.22 3 .32-.63-.6.91.28 1.5-.9.59-1.19-2.37.59-.31.6h-1.82l3.32-1.19-1.19-.31.87-.88 2.13-2.12 2.69-.88 1.81-1.5 3.87-.9.32-2.1-1.5.88-.6 1.5-.31-1.78-3.28.59h-1.22l1.5-.59-3 .59 4.22-1.19v.6l4.78-1.82.91-1.5 4.5-2.4h1.5l-1.22 1.22 3-.6 2.4-1.5 5.41-1.5 3.31-.9 2.1-1.82 1.81.6.28-.28-.59-.91 3.59-.31h.31l1.19-.6 2.41-1.78.31.88h.28l.31-.28h.28l2.13-1.82 1.5-.59 1.5.31 1.19-.9-2.1-.32 8.69-.9 4.81-.28h1.19l12.59-1.5 2.1.28-.28.31 3-.31 1.5.62 1.18-.62-.31.62h1.22l2.09-.62 2.69-.28.31-.6.32.28.28.32 2.72-.6.87-.31h.03l2.69-1.19h3.91l1.5-.62-4.5-.88-.6-.62h-.03l-3.87-.28-.32-.6h.26l-.85-.31h5.09l.91.59 7.5-.28-3.59-.62h1.78l-1.19-.6-6.28-.59h-.03v.31l-.6-.31-2.09.31h-2v-.03l1.41-.28-1.5-.59.87-.32h.03l2.41.32 2.37-.6 2.13.28 4.47-.9-1.19-.28h-.91l-3.87-.32h2.69l-.6-.59h-4.81l-1.5-.31 1.5-.28-4.19.28-.9-.28h-2.69l-.91.28-.9-.28-3.32.28 1.82-.28-.6-.32 6.6-.28v-.31zm4.13 6.31 1.56.6-1.5-.6zm-218.82 120.57-2.22 3.03 2.69-3.6zm-3.22-13.97.35-.63-.47.75zm-.12.12-.38.38-.59 1.18zm128.09-97.06.81-.38-1.18.47-.13.06zm91.41-13.28.31.31-.59.31v-.31zm24.31 3.31 1.81.59h-2.4l-.6.32-1.81-.32.31.32-1.5-.32-2.09.32 2.97 1.18h.03l3.28.6 2.09.31-.28-1.19.6 2.1 6 2.68 4.5 2.41 4.5.91 2.09 1.18h.59l.32.32h1.81l-.31-1.22 1.81.31 2.09 1.5-.59.59 2.09.32 5.46 2.68 3 .32-1 1.18h-.3l-.9 1.22 2.7 2.1 4.5 2.09.6 3-1.8-.91v1.5l1.2.6 4.2.9-2.7.32 1.2-.6-2.7-.31 2.7 4.19.9-.28 1.8.9h3.6l1 1.19 2 .31-.9 1.5 2.1 1.78-1.5.6 6.3 1.81-4.5 1.81-1.2-.9-.9.59-.9-.91-2.1.6.9 1.81-1.8 1.19 4.8 1.81.3 2.09-1.4 1-1-.4-.1 1.19-4.7 3.31-2.1-1.78-2.7.28 1.2-.6-1.2-.59-4.2 1.19 1.2 3-1.8-.88-1.2 1.78-1.2-1.5-1.8.91 2.7 2.41 2.7.9-.3.88-.3.62h2.4l-1.2.28 1.2 2.72-1.2-.62-.9 1.81.9.59.4-.9.5 6 2.1 1.22-1.5.28 4.9 1.22-2.8 5.09 4.5 2.69 4.5-.25-1.2 1.47-2.4.28-2.4.31v1.19l1.8.62-1.8 1.19 5.8.59-3 1.22-7.3-3.62 2.7 1.81.9 3.31 4.2 1.5 1.8 1.78 2.7 2.72 1.8-2.12 3-.28 2.7 1.18 1.2 2.1 2.4-.28-2.7.59-4.8-3-1.2 2.09 3.9 3 2.4 6.91-5.1 1.19 2.1-3-3.3-6.28-2.7-.6-3.6-3.31-3-2.41-3-.9-3.6-4.19-1.8.31-2.1 1.19 3.6 4.5v2.69l3.6 3.31 1.5 1.19 1.5-.88 3.3 1.19 1.5 3.31-6.3-1.22.9-.28-8.7.88v1.5l3.3 1.81-1.2 1.19v.03l.6 1.19-2.7-1.5-.9 2.4-2.6 1.19v1.81l-2.5.6-.9-2.41.9-.91-.9.32-.6 3.31-.86-.91-3.91 4.19 1.5.91-2.09.59.9 2.72-2.4 1.19-2.69-1.82 2.09-2.37-.9-.91-6.32-.9 2.41 1.18 3.91 9-4.19-1.5-1.81 2.72-.91 1.78.31.63.28.87.32.63 1.5 2.09h-.91l-3.28-.31-.63.91.63-1.22-3.31-.6-.32 1.82 3.63 1.18-.63 2.41-6-2.09-2.09-3.32.59-2.09-3.87-1.19 1.19-.9-3.91-2.41 14.09 2.09 1.22-1.78-.31-.62-.28-.88-.31-.62-1.19-3.6-.91-.9-8.72-2.69-2.68.31-.6 1.5.28-2.12-2.09.31-.59-1.19h1.81l-1.81-.9-1.19 1.78-1.81-1.19-.91 1.19-1.5-1.19-.59-.91 2.68.32 1.22-1.5-3.59-1.5-1.5 2.09.87-2.41-1.5-.28-.59 2.38-.91.62v-2.4l-1.78 3.59.6-3.31-1.82-.28-1.5 3.9v.28l-.28-.28h-.59l-.63.28h-1.18l.59.91-1.5-.91-2.09 2.72h-.32l.32-.62v-1.19l-.6 1.19v-1.5l-1.22.9.91 1.5-2.09-.9-.91 3-2.09.62 2.4.28-2.72.32v2.09l-.59-1.81-1.5.9 1.22.6h-1.81l1.5 1.22-2.69 1.18 1.78.6-3.59.62.9.6-2.09 2.4 2.09-.31-3 .59.91 1.22-.91-.62-1.5 3 1.78-.28-3.59 1.5 1.81-.32-1.81.91.91 1.19-1.5.31-.32-1.19-3.59 3.6 1.81.59 2.41-2.09-1.22 2.68-2.41.32-.28-1.22-2.4.62-.32 2.38-1.5-.88 1.22 1.5-3-1.5 2.1 1.5-3.91-.31 1.5 2.41-.91-1.22-.59.9-1.19-.59.6.91-2.41-1.22v1.5l-.91 1.22 1.82.9-2.1-.31 1.5.59-1.22.91h-.59l1.22.91-1.5.28.59 1.22 1.19-.6-1.78 1.19.28 1.19 1.22-1.19-1.22 2.09 4.22-2.09-5.13 3.59.63 1.22 2.37-.9-2.09 1.78 1.81.31-.9.91-1.5-1.22-.32 2.12 2.72 3 3-.31 3.91-3.91 2.09.6 1.19-3.6.31 6.6h1.19l-.59 2.12 1.18-1.81-.87 2.69 2.37 5.12-1.5 1.19.63 4.19 3.59.31 1.78-3.59 3 .59 2.41-6-.28-4.5 1.19.31-1.82-.9 3.32-.6.31-1.81.59 1.81 2.1-2.12-1.5-.6 2.4-1.18-2.4-3.91-2.1-.31 1.5-9.88 1.19 1.19 3.91-3.31 1.5-1.19 1.81-2.69-.91-3.62 1.19.62-.28-2.4 1.5.9.28-1.5h3.59l2.13 3.28-8.41 9.6 1.5 5.72-.59 3.59 2.69 1.81 1.18-.9-.28 2.4 12.91-4.81.28 1.81 4.22 1.19-5.13 1.19-.28 1.81-5.4-.91-5.1 2.41.91 3.59h2.09l-.31 4.82-1.78 1.18-2.72-3.28-2.41.88-1.78 4.5.47 3.84-1.37 2.78-1.5.6v1.18h1.18l-1.18.6-1.82 1.5 1.5-2.1-3 1.5-2.37-2.4-9 3.31-.31 1.81-4.19-3.9-6 1.78.87-2.1-2.68.32-1.5-2.72.9-3.6 4.19-3-2.09-1.5 2.09-4.18-5.69 2.09-2.72 10.19 1.22-.28.6 1.78-1.19.62 3 3.88-3-2.1-.91 2.41-1.22-1.81-2.37.31.59 1.81-4.22-1.5-1.78 1.19.91 2.41-1.81 1.18-.91-3.28-3 4.19 1.5 1.5h-3.59l2.09 1.19-7.78.9-.63 3-1.18.6-4.82 2.4-4.78-3v5.1l-3.9-.28-.6-2.1-5.4.6 1.5 1.5-1.5-.6v2.38l5.4 3 .6 4.81 1.81 1.19-1.22 2.72.31.9-4.22 9.28-16.78-4.78-1.5-2.12-6 1.81 1.19 3.91-3.91 9.59-4.18 5.41 1.81-.32-1.5 2.1 1.78.62h-.59l-2.41 6 7.22.88 2.69 7.22 5.09-2.1 7.81 1.78 3.28-3 2.72.32 1.5-3.32 1.78-.9 1.19-.28-.59-1.19v-.03l-.88-.88.91-3 .87-.62 4.5-4.5 8.13-2.38v-4.5l1.78-1.81 2.72-.91 6.59 3.6 9.6-5.38 4.5 2.69 2.09 7.5 15.31 12.31 1.78 5.38-2.37 3.9 1.5.6 2.09-4.19 2.41-.91-2.41-3.59 1.5-3 3.28.59 1.82 2.41.59-1.5-9-6.59.91-2.1-4.82-.62-3.28-7.5-3.9-3.28-.32-5.41 4.5-1.5.91 4.81 2.41-2.4 4.18 8.4 3 .88 3 2.72-2.37-.91 6 2.41 2.69 3.28-1.19 6.62 2.69 3.28 2.68 3.6 1.5-.6-1.5 1.22 1.5 2.1 7.82.59-1.19 1.19-5.72-1.19-.91 1.81 2.13 4.78 1.78-.9 1.22 3 .59-2.1 2.1 1.82-1.82-5.41 3 .59-2.09-2.09 2.09-.91 1.82 1.82v-2.41l-5.69-3 1.78-.91-.28-1.5 1.5.6-3-6 1.19-.6 3.9 3-.9-1.78 2.4.88-2.72-2.69 5.13-1.5 6 1.19-2.13 3 4.5-4.5 5.13-.6-5.13-6.28-1.18.28 3.59-5.68.31-6.91.6 1.5 2.09-1.19-.59-4.5.47.94-.16.25.19-.22.09.22.38-.72 1.71-1.97.63-2.12 3.59-2.1 1.78 1.82-3.28-.32 1.78.6-.59.9 6-.28.31 1.5-3.31 2.38 2.09-.28 1.22 3.9 2.1.6 7.86-6-3.68.9h-1.78l-2.09-2.4 1.78-3-.28 2.09 2.37-3 9.68-4.81-1.3 3.31-2.7.31 2.1 1.5-1.5 4.5-2.6 1.5 12.5 5.69 5.7 2.41 2.1 3.59-.9 2.41-3.6 3-.3.28-5.7 1.22-6.8-.32-5.46-3.28-5.72 1.19-6.59 5.09-7.19.32.6 1.78 2.4.31-3.31.59v1.5l-7.78.32-2.13 2.4-.28 2.1 3.28-.6-.59 4.5 1.81.6-1.81.9-.91-1.81-.59 2.09 3.91 1.22-.91 1.5 2.41 1.78-1.19 1.22 3.87-.62-3.28 2.12 3.91-1.22 4.78 3 2.72-.59.59-3.31h2.1l6.31 3 4.19-1.5 2.06-3 2.8.62 2.6-1.81-.6 6 1.8 4.81-4.5 15.88-8.07 2.72-1.19-2.41-3.31.31-7.5 4.5-8.69-2.4h-6.9l-1.19-1.82-6.63-.59-.87-2.41-5.41-1.18-6.59 3.59v6.31h-.31l-4.19 2.69-4.5-3.31-8.41-2.38-2.09-4.81-6.91-2.69h-4.22l-7.78-5.4-.59-1.82 4.78-4.5-2.09-4.5 2.4-4.18-2.4 1.5-2.1-3.32-7.22 1.5-5.37-1.78-4.22 1.5-5.09-2.12h-10.5l-4.5 2.4-3.32-.28-4.18 2.1-3.32-.91v-1.5l-6.28-.59-1.81-3.91h-1.78l-5.13 7.19-10.5 3.9-3.28 4.5-.9 6.32-.32.28-2.68 2.4-5.69 3-5.41-.28-4.22 4.78-3.28.91-3.31 6-4.5 2.41.91-.32-6.91 7.5-1.19 3.91.91-.91 1.5 5.1-2.13 3 .63 7.81-3.63 8.09-4.18 2.41 3 5.41-.32 2.09 3.63.91h-3l-1.22-1.5-.91 3.59 2.13.91-2.13-.32 2.72 1.5-1.5.6 1.78 1.22-.28.9 3.91.6h-2.41l1.78 1.18-2.09.6.91 1.81 1.18-.31-.59.9h1.5l.59 3.91 1.5 1.81 1.82 1.5-.91.88 1.5 1.22.31 3.59 1.19.31h-1.78l3 3.88-.31 1.5 5.09 4.22 9.59 11.4 5.13 3.6 5.69-.91 9 1.19 8.68 4.5 9-1.5 6-1.19 11.13.31-2.13.6 4.82.9 2.68 2.69 1.5-.59-1.5.9 2.13.88-1.5-.28.87.9 1.22-.31-1.5 1.19 3 3.9 3.28.32v-.91l.63.91-.31-1.22.9 1.22.28-1.22 1.22 1.22 4.5.28-.31-1.78 1.5 2.09 1.22-.91 1.78 3.32 2.41-.32.31 1.22h-1.22l2.09 3-3 7.19 1.5.59v2.41l-1.78-.59 3.28 1.78-2.37.31-.63-1.5-1.18 4.19-1.82-.6 4.22 6.91 9.91 8.41 2.09 4.78 2.41 1.22-1.81.28 5.4 8.12-1.81 2.1 1.81 3.28 2.41 3.31-.91 3.91-5.09 3.28-3 6.9.59 6.32 12.6 12.59 2.68 9 9.91 8.09 4.22 3 .59 1.5-1.81.6 2.09 2.4 1.5-.28 4.82 1.19 9.9-1.5h9l8.69-1.5 12.59-5.09 3.91-2.72 1.81-1.19 5.1-2.41 3.36-5.68-.7.59-1.16-.59 13.46-6 .9-4.82-3-3.59.3-2.41.9.32 6.6-3.6 2.7-3.31 13.5-6.59.9-.6 4.2-5.12-1.2-5.38.9-.9-.6-4.22 1.5-2.38-2.7-.62-1.2-.6-1.5-5.4.9-1.78-1.2.28 1.8-3-3.3-2.69 2.1-5.41 3.6-6.28.9-1.5 3.6-2.72-.9-.9 2.4-.6 9.9-12.28 10.2-9.62 8.2-10.5 10.1-24v-3.88l1.9-1.22-1.6.6.6-6.28h-2l-5.2 4.78-8.4 3.31-3.6 3h-2.7l-5.1 3.59-6.3-3.59-2.7.91 3.3-2.72-.3-2.1-9.9-7.18-4.5-.32-.9-1.5-.6-.59-.6 1.81-6.3-12-5.1-2.72-2.4-10.18.9.59-2.4-4.19-5.4-3.31-1.2-4.19 1.2-.31-3-2.09-8.1-14.41-4.47-4.81-.91-4.5 3.68 6 4.4 3.31 2.1-8.69-.9 6.88 2.7-.28 9.7 11.68 1.4 3.6 4.6 2.12 3.5 5.69.9 5.69 3.9 2.4 3.7 2.41 9.5 11.41.3 6.59 4.8 10.19 6.6-2.1 2.1-3.28 12-6.9 2.4-3.32 10.5-8.09.6-3.91 9-6.28.9-3.9 3.3-2.1 1-4.22 3.2-2.68-1.2-5.41 1-2.09 1.1.28 2.4-9.88-4.8-3.9-6 .59-2.4-1.5-2.7-4.5v-3.59l-6 13.18-5.4 1.82-1.5 2.09-3.3-.91-.6-7.5-2.1.6.3 5.72-3.9-4.5-.3-3.32-5.7-2.68-4.8-6.91-1.2.31 1.5-1.22-1.2-2.09h-.3l3.3-.91v-1.78l2.4.88 1.8-1.19.6.59 6.6 7.82h4.2l5.4 2.4 4.2-.62 5.4-5.69 4 5.09 9.5-2.09 6-1.5 13.5-10.81 1.8 3 1.8-.88 1.8 3.28 2.4-1.78.6 1.78.9-2.4-.6 2.12 3.3 1.5 3.3-3-.3 2.38-3 3.31 7.5 3 2.7-4.5-.9-5.09 1.5-1.22-.6 2.12.6 1.19.9-.91-.3 2.41 1.6 1.5.5 4.5 6.6 13.81 10.9 15 1.7 3.6 1.5 3.59 3 1.19 1.2-2.38v-3l2.1-3.31h-.9l.3-2.66v-.03h.1v-1.5l1.4-1.5-1.4-5.12v-8.1l-2.5-6.28-.3-3 1.5-1.81v-3l2.1-3.59-.6-1.82 2.1-9.59.3-6.31 1.5-5.38v-4.81l-1.1-2.09.8-3.32-.3-2.68 1.2 2.09v-3l1.3.91-.7-1.82.9.91-.2-2.09.8.28-.8-2.38 1.4 1.5-.9-3.9 1.2 2.09v-1.19l-1.2-1.81 1.2-2.09 6 6.9-.3-2.4.6 2.09 1.2-1.19 1.2 1.5-.6 1.5 1.5.6-.6-2.41 3 5.69 1.8 7.22v-2.1l.3 2.1v-1.5l.9.59-.3-2.09.9.59-.6-2.41.6-2.4-.9-.88.9.28v-2.4l-.9-2.38 1.8 2.38.3-1.19 2.1 6.31 1.8 4.19-.3-1.81 1.9 3 .5 4.22.6-.32.3 5.1.9 2.4-.3-1.78.3 1.5.9 7.78.3-1.5 2.1 2.72.3.28 1.2 7.5 1.2 3.6h1.5l.3-2.69-.6-3.31-.6-6.6-.3-2.09-1.8-1.5-.9 2.09-1.5-5.09-.6-1.81-.3 2.12-.6-2.93.1-.07-.4-1.22-.9-9-.3-.59v-.59l-.3-.6-.9-2.72.6-3.28.9 3.6.6-2.72 1.2-.28 1.5 3.59-.3-2.41.6 2.41v-1.5l1.2-.59.9 5.4.3-1.22-.3-4.78-.6-1.5h.6l-.6-1.22v-.28h.3v-.31l-.3-.31.3-.6h-.3v-.9l-.3-.88.3-.62-.6-8.38-1.2-5.4v-.91l-3-8.09-1.2-1.82-1.2.6-3.3-3.6-1.5-4.18-.3-3.32-.9-1.5.4-.59-.7-.59v-1.82l-.6-3v-2.09l-.6-1.19h.9l-.6-2.4.3.28 1.3 2.72.8 1.78v-.88l-1.8-4.5.3.6-.6-4.22-.6-1.19v-1.19l-.3-1.22v-.9l-1.2-2.38.9 1.19-.5-1.5h.2l-1.8-2.69 1.6.28-.7-.59-.6-2.41.3.6-.9-2.1h.6l-.9-3.28-.8-1.5h-.4l-.6-2.72-.6-1.18h.3l-1.5-3h-.2l-.7-2.41-.6-.91-.3-.87-.6-.91v-.9l-.8-1.5h.2l-1.5-2.1-.9-1.81-.6-.59v-.91l-3.3-5.69h-.3l-1.2-3-.6-.62-.9-1.5h-.3l-.6-1.5-.6-1.19.6 1.5-1.5-2.69v.6-.6l-.3.6 1.2 3-3.3-6.32h-1.2l-.6-2.4h-1.2l-3.9-3.6-.2.32v.9l-1-.9-2.4-3.91-.9-1.19-.6-.31-.3-1.19-1.2-1.5-2.1-3.62v-.88l-1.8-1.81.3 3.31 1.5 2.38.1.06 1.4 2.66-2.7-2.1v1.78l-2.1-1.78-.9-3-3-4.5-3-3.9-1.5-2.41 1.5.59 3.9 4.82-.6-1.5 2.7 3.59-5.3-8.41-1.3-3.28 2.7 3 .3-.62.9 1.5 1.5 1.81-.6-1.19.9 1.19-.9-1.81-.3-1.19 2.4 1.81h-.3l1.2 1.78.6.32-.9-.91 1.5 1.19-.6-.88 3.6 4.19.9.59.3.91h.6l-2.1-2.69.6.6-1.2-1.5.3.28-.9-1.19-.3-.59-1.2-1.82-.3-.59-3-3.59-2.7-2.1-3-1.81-.6.59-1.5-1.5-5.6-6.9-2.8-2.1-2.7-3-1.2-.9-.3-.6-3-2.68.3-1.22-5.3-5.38-12.7-10.22-9.9-6.9v-.03l-1.8-1.16-3.3-1.5-2.4-.91-6-3.59-2.1.31-.3-.62-1.2-.88-.6 1.19-.3.31 1.6 1.5 1.1.28 3 2.41-3-1.5 3 2.09-3-1.18 1.5 1.78-.6.31-8.7-6-6.3-3.31-8.7-4.5-5.1-3.88.3-.31-1.5-.59-3-2.72-2.4-.6-3-3 2.4 1.5.6-.28-7.5-4.22-.6.32 1.5.9-1.2-.31-9-2.69-6.6-2.72-.6-.28 1.8.28h1.6l-1-.59 1.5.31-6.5-1.81-1.9-.59h-2.1l-2.7-.91-.6-.59 2.4.9h4.2l4.5 1.5 6.9 1.78 6 1.82 3.3 1.5 4.8 1.5 4.8 1.18 9 1.5-7.8-3.28-1.5-.31-3.6-1.81h-.9l-.3-.28h-1.2v-.32l-6-2.4-3.3-.28-2.7-1.22-1.2.31-2.4-.59 2.4 1.18-8.4-1.78-1.7-.62v-.28l-4.6-.91 1.6-.31-2.8-.28-4.8-1.82-.9-.59-1.5-.31-8.4-1.5-8.65-1.5-3.63-.88h-1.5v1.5h.32l.59.6 3 .59h-.59l2.09.59-8.41-2.09h-3.28l-.9.91-1.82-.32 1.22-.9-3.59-.6h-.03l-1.19-.9-3-.88h-.91v-.31zm-88.19 11.69h1.19l-5.41 3.62-.28.28-1.5.6.6-.88h-.32l-.28-.31-2.12 1.19-.28.9-2.72-.59 3-1.5h-1.5l.31-.31.91-.88.9.6.91-1.22 2.69-.88-.6 1.19 1.5-.59-2.09 1.18 3.28-1.18zm16.78 3.9-1.18.6h-4.5l-1.82 1.81.91.59v.32l-.31 3.59 4.22-.59.87-.91 1.5-.31 2.41-.28 2.72-1.82h-2.72zm109.18 0 1 .6-1-.28zm5.7 2.29 3 .43 3.3 1.78-3.3-1.5h-.9zm-133.47 1.03-4.81 2.09h-2.1l-3.9 3.31.31 2.1-3.59.9-2.72 2.69 2.4-.31-.9-.6 2.72-.28-1.5.6.59.9-1.5.6h1.78l6.31-2.72h7.19l3-.6.63-1.18-6-.32 6.87-.9.63-.28-2.72.28 1.5-.6-.91-.28 1.22-.62.59.62 2.41-.62.28-1.5 2.41.62 1.5-3-1.5-.9-1.78.9-.32-.62-3 2.12 2.1-2.4h-2.1l-3.9 2.68-3.91 1.5 5.72-4.18h-.31zm131.97 5.4 5.8 1.5h-.4zm-14.38 1.78 1.78 3 1.8-.9-.6-1.19zm2.98 3.32v2.68l2.7.32-.6.28-.9.9 3.6.91 2.4-.91-1.2-1.18-2.7-2.1-2.4.88 2.1-.88zm9 .28-.9 1.22 3.3 1.18h.3l-1.5-2.09zm-131.66.31-6 1.81-1.82.6-.59.59h.91l-.32.91 3.6.59 2.4-1.5 1.82 1.19 2.37-2.1h-2.69l-.59-.28h-.59l2.68-1.5zm-26.1.59-1.5 1.5-1.22 1.5v-1.18h.32zm-6 1.22-.59.88-2.41 3v-1.5l2.1-1.5zm-8.72 1.5h1.22l-1.5.28-.28.1zm-9 1.78h2.41l-.28.91-1.22-.59-2.41.59 1.22-.59zm63 0-3.59.6-.59 1.22-6.32.59-3 1.5 1.19.91-2.37.59-.91 3h1.5l-2.41 1.5.91.91h.91l.28-.32.9.32.32-.32h1.18l1.5-1.18-.59-3.32 2.09-1.5h-.9l2.72-.59-.32-.91.91.6 1.19-.88-.91 1.5 1.81-1.22.6.32v-1.5h2.09zm-21.31.32.91 1.18 1.81-.59-1.22 1.81 3.91 1.19 3-3.59zm207.89.9.9.88h1.2l2.4 1.5 3.6 1.5 3 .62 3.6 1.5 12 6.28-3-2.09-.9-1.19-2.1-.31-4.8-2.69-2.1-1.81.6-.31-3-.6-3-.59zm-20.4 2.1 5.4 1.4-5.3-1.12zm.1.47.5 1.93h-.3zm-171.09.12-1.19.91h1.82l-2.41.59h1.5l-1.81.59h1.5l-2.1.91 1.5.31-1.5.88 1.82-.28-2.1.9 2.1-.62-3.6 1.5.6.62h.9l.28-.31h2.41l.59-1.19 2.41-.31-1.19 1.19h-.03l-.87.9h2.68l-.28 1.5 1.19-.9.59 1.22.91-1.22v1.22l2.69-2.41-.6 2.09 1.82-1.78.28 2.38 1.81-.88-.91 1.5 1.82.28.59-.9v.9l1.5-.28-.91.6 5.1 1.5-1.78-2.1 2.09.88.91-1.19-.32 1.5 2.1 1.19h1.81l1.78-1.19-1.19-1.5 1.82.59.87-3.9-.87-.88-.63-.9-3.28.9 2.69-1.81-.91-.59-1.78.59 1.78-1.19-1.19-1.5-.9.88-.88-.6v1.5l-1.5-1.18v2.09l-.62-2.09-1.78.9 1.5 2.1-1.22-1.22-.88-.28.88 1.18-.6.6-.9-.6v.91l.9.59 2.41 1.22-2.41-.9-.31 1.18-.87-1.5-.63-1.5-3.87 1.22 3.59-1.5.91-1.22-6.32 1.5v-.59l-.31 1.5-.59-.91-1.5.6 2.09-1.5-.28-.88-2.72-.31.91.91h-1.5l2.09.59h-4.78l1.78 1.19-3-.88 3.63-2.4-3.32.9zm-21.59.59-2.41 2.72-.59 1.5 3.31-1.22 3.28-.28 3.91.6 1.22-1.22-1.82-1.78zm-57.28.32-.32.9 1.82-.62-1.5.62v.28l-.32-.28-.28.28h-.31l-.28.32-2.13 1.18 1.22-.9zm256.16.18 2.7.72.3.6-.6-.6zm-257.07.1-.59.9-1.19.6-.91.62-4.22 1.5 3.91-1.5.59-.31 1.5-1.5zm56.41 0-2.72.9-1.78.91.59 1.19-2.41.62-.31.28v.6l-.28.31-.31.59v.32l-.28.59v.31l-.32.6v.28l-.31.31.91-.31-1.19 1.5v.31l-.31.31v.6l1.81-.91h1.19l-3.28 1.81-1.22.6.9.28h-1.5v.9l-2.09 1.22-2.09-.62 1.18.9-2.4 1.82.62.28-6 3.62-2.12-.31-.6 1.19.32-1.19-2.41-.91-3 2.1-.59-2.38 1.18-2.12-4.18.62-.91 4.5 2.09-.9-2.4 2.09 1.22-.31-3.32 2.12-1.18 2.1-.6-.91-1.5 1.19-4.5 9.31 7.19-7.19-1.5 2.38 1.5-1.19-4.19 6 4.78-2.69-2.09 2.1 3-1.82 1.19-1.78.62.6 1.78-1.5-1.18-.32 1.78-1.18-1.5.28 4.22-2.1-1.22-.59 2.72-1.19v1.19l2.4-1.81v1.5l-2.12 1.5 1.5.31-2.1.31 2.1.88-3-.28-3.28 3.9 4.5-1.81-1.22 1.5 2.4-1.5-.28 1.5 1.19-1.81v1.5l1.19-1.19.62.91 1.19-1.5h-1.81l1.5-.6-.88-.9h.28l1.5-.32-1.18-.9 1.18.31.32-1.19v1.19l2.09-1.5-.91-.59h-.28l1.5-.91-1.5.31 1.78-.62h-1.18l1.5-.6h-.91l1.81-1.18-.31-.6.91.88 1.5-3.28v1.78l1.37-1.1.41.22.59-1.22-.59 2.41 1.22-.91v-2.68l.87 2.4 1.22-.31.28-.31-.28-.28v-1.22l-1.5-.6 1.5.32.91.28-.63-1.19 2.13 1.19 1.18-1.5-1.5-.6h1.82l-3.63-.28 2.13-.31-.32-.59 2.69.28-1.78-1.19 2.69.59 1.81-1.78-2.72-.31 3.31-.59-2.4-.6 2.09-.31v-.59l1.81.59-.59-1.5 2.41.31 1.78-2.12-1.5-.6-1.5 1.5.9-1.5-2.4 1.22 3.59-2.12-.28-.28-2.09-.32h3.59l4.78-1.78-.59-2.4-2.1 1.18.91-1.5-1.81 1.5 1.22-1.5-4.5 1.82 1.5-1.22-.63-.6-2.37 1.5-2.72.32 1.22-.32zm193.46.62h.4l2.3 4.19.9.06-2.7 2.63.6.34-2.4 1.16-9.6-.6-11.4-4.18 10.5 3.59 9.6.91 4.2-3zm30 1.19h1.2l1.8 1-.3-.09-.6-.32-.9-.28-.6-.31-.2.31zm3 .31 1.5 1.5 2.1 1.5 4.5 3.6 1.2.59.3.31.8.57-1.4-.57-8.4-6.62-.5-.16-.7-.44 1.2.6zm-29.1 2.78 3 .22 5.1 2.69 5.7 6.59 1.2 3.91.9.91h1.6l-.8.78-2-1.69-.9-3.91-8.3-7.78zm42.6.5 2.1 1.82 1.5 1.18-.6.91 7.2 4.5 1.8 1.81.6.28 1.8 1.5.6.32-1.2-.91v-.59l-2.4-1.82-1.2-1.5-3.9-2.68-4.8-3.91zm15 12.32.6.59.6.31.6.6.6.28-2.7-2.69zm-21.9-12 .3.59zm-37.7 2.37 2 1.22-.3 1.5v-1.5zm-168.05.31-3.31 2.72.59 1.5-1.5.6v-1.82l-.59 1.82-.32-3-1.78 2.4-1.22-.9-1.5 1.18-.87 1.5 1.5-.9-.91 1.5 1.78.9-.59 1.82-1.19.9-4.81 4.78h-2.09l.9.6-5.09 2.4-2.13 2.1-.59-1.19v.91l-1.59.47-1.69-.19-.31 2.12 3.9-1.5-2.4 1.5.59 1.5-1.78-.62.87 1.22-1.78-.32.91.6-.91-.28v1.5l-.31-.91-2.41 2.69.91-3-1.19-1.5-1.81 3.31 1.22 2.09h-.31l-3.6.91.28 1.19-1.18.31.59-1.19-2.41 1.78-.03-.28-1.75.28-.59 1.5-.31-3.59-.32 1.81-.28-1.22-2.72.6 3.32 1.22-1.19-.32 1.5 1.82-3.91-2.72.91 2.72-2.13-2.1-.28 2.38-1.5-.88v1.31l2.69.47v1.22l-5.41-1.5 1.22 1.78-2.09-.9-1.22 1.5 2.72.62v.88l-3-1.19.59.59-2.4.91 1.5.59-1.82-.28-2.09 1.5h3.31l1.5-1.5-2.4 3.6v-.91l-2.1-.91.91 1.82-1.5-1.5v1.18h-1.5l.59 1.22-1.22-.31.63 1.5-.91-1.19.28 1.5-2.09.88h1.5l-2.41.9-.28 1.82-1.5.28 1.19.62h-1.5l1.22.28-1.5.32.28.9-.91-.62.63 1.22-1.22-.6.91 1.78-1.82 1.5 3.63 2.1h-2.72l1.81.31-2.09.59 1.5.32-1.5 1.18 1.78-.28-2.69.88 2.41-.28-2.41 1.5 1.78-.6v2.1l.91-2.72 1.22 1.81.28-1.81 1.81.31-.59-1.19.87 1.19v-1.5l1.5.59-.28-.9 1.19.62-.28-.9h1.78l.91-2.41.31 1.19.28-2.1 1.81 1.5 1.19-1.78v1.5l.91-1.81.31 1.19.28-.88 1.22.6v-1.5l.59 1.5 1.5-1.5-.59-1.22 1.5.9 2.37-3 .32 1.22 2.4-1.22 1.78 1.5 3.32-2.09.31 1.19-2.13.62v.88l1.22-1.19-.59.91 2.37.59.91-1.19.91 1.5 6.31-2.72h2.09l2.1-2.4-.91 2.4 1.81 1.22 1.19-.9-.28 1.18 5.09.91 8.69-1.81-3-1.5-.59-.6-1.82-.9h-.28l-.31-.6-.59-.9 3.59.31-3-1.81 3.59-1.19.63 1.5h2.37l-2.09-3 1.5.31v-1.5l1.81 4.5-1.5 3.28 2.41-.59-1.22 1.19 1.22.62.59-2.4 2.1-.91-1.19-.59 1.78-.32-1.78-.28 1.5-.62-.63-2.69-1.78.31 1.19-.62-1.19-.6 2.1.6.31-1.19h-2.41l.28-1.5 3 .59-2.09-1.5 1.5.32v-1.22l.31 1.5h2.1l.59-2.1-.28 2.1 1.19-.6 1.18 1.5-1.5-1.18.32 2.09 2.68.59 1.22-1.18-.59-1.5-1.5 1.18.59-1.5 2.1-1.5.9 2.1.91-.88-.63-.9 1.5-.91-1.18-1.19 1.5.88-.6-2.1 1.19 2.41 1.81-1.81-1.22-1.5 2.13.31h.28l-1.5-.91.91-1.78 2.4.88.28-.6.63-.28.59-.62.28-.6-.59-.59h1.22l.59-.59v-.6l-1.81.6 1.5-1.5 3.59-1.5 1.82-1.82.9-.59h-.59l.87-.91h.63l.59-.28.28-.62.32-.28-.6-.32.91.32 1.19-1.22.9-.6.6-.59-.32-.59-5.37 1.78 5.69-3.6-4.5.32 3-.91-4.19-2.09 2.09-.32 2.69 2.1 3.31-.28-1.81-1.5 1.81-.6-5.72-2.12 2.41-.28 3.59 1.78-3.28-3.6-3.31 1.22.91-2.12h-1.82l.32 1.81-1.19.91v-2.72l-1.5 2.12-.31-.9-2.1.9 1.78-3.31-3.87 1.81 1.19-1.81h-2.1l3.28-1.19-2.09-1.22-2.69 1.82 2.1-1.5-.32-.32-.28-.59-3.59.91.59-.91-2.09.59 1.78-.9-3.91-.88-1.18.6.59 1.18h-5.09l-.32-1.5zm-47.41 34.03-.09-.03.09.22zm-.09-.03-.5-1-.56.82zm-1.06-.18-1.25-.22 1.18.31zm258.81-31.72.2.28 1.3.94h-.2l-1-.72-.1-.22zm-104.66 1.81 1.5 1.19-2.72-.6 6.28 2.72-1.8-3.31zm-7.53 1.19-3.28.31 3.59 3.31 1.82-.62-.32-2.1zm116.49.09.8.53 6 5.69 1.9 1.56 1.1 2.03-1.5-2.09zm-112.27.22-1.5.31.91.6-1.5-.32 1.78 3 3.31-.59.91-2.09-.63-.32h-.87l-1.82-.59zm23.37 2.09 1.2 2.72 1.2.88-1.5.9 2.7.6-1.7-.28-.4.28-.9.31-.3-.59v-.6l-1.9-.22-.2-.09h-.6l2.7-.31-.3-2.38-1.5-.31zm-25.18.6-1.19 1.22 1.78.28.31-.88zm34.18 2.72h.3l3 3.59h2.1l-1.8.31 1.3 2.38-.4-.28zm52.6 1.21 2.9 3.29-2.6.9 2.3-.9zm36.1 1.07 1.9 1.62 3 3.6zm-332.85 1.9.28.32h.59l-1.18 1.18h-.32l-1.5.6zm-6.63.32 2.1 2.09h.03l-.63.91 1.13-.57-1.13.85h.32l1.18-.6-2.37 3.6h-.03l-2.97 2.4-1.22 2.1-5.09 3.62-4.5 8.1-3 3.28-.32.31-.87.91-.91.28h-.03l.91-2.1 2.72-3-2.41 2.41-3.91 2.09-.59-.59 3.59-3v-1.5l1.5-.31 3-2.38 3-3.9-3 1.18 1.5-1.18h-.9l-5.41 3.59-2.97 1.81h-.03v-.9h.03l5.38-4.5 4.22-2.41.59-.91 2.69-.9h.03l-1.22 1.5.59.9-1.74 3.25 1.74-1.75.91-1.18.91-.6 1.18-3.9 1.82-1.5v-.91l1.78-1.19-.28-2.12.87-.88.91-.62zm200.1 3.28-1.19.62.59.28.32.32.28.59zm0 2.12-1.78.28 1.5.91zm-6.91.28-.87 3.32 1.78-2.1zm-22.19 5.1v1.22h-1.5l.6 1.5h1.22l1.5-.32-1.5 1.22 3.28.88 2.4-2.69-1.81-1.19-1.5.88-.28-1.5-.31 1.81-1.78-1.5zm45.91.31-.59 3.31-3 1.78v1.22l-1.5 4.5 2.37 1.19-.59 2.09h1.81l-1.81.32-.6 1.78 2.69-.6-.87 1.82 3-.91-1.82-1.5h1.82l-1.82-.59h1.5l-1.5-1.22 1.5.31-1.81-1.81h1.5l-.28-1.5-.31-2.38 2.72-5.72zm-48.59 1.19v3.9l-1.5-3-.63 1.82-1.5-1.22 1.5-.88-2.69.88 1.19 4.81 2.41-2.09v1.18l.9-.9.91 1.22-3.91.9.32 1.19 3-.59-2.41.9 1.5.88-2.41-.28 1.5 1.78 1.5 1.5 2.41-6.28.91-.6 1.5-.62-3-3-.63.9zm-92.69 1.5 2.31 2.09-.22-1.47zm171.85 1.22 6.6 3.9.9.88-1.5-.28h-.8l-3-2.41 1.1 1.81-3.8-3.87zm9.3.28 2.4 1.22-2.1-.32zm85.9 0 1.1.62-1.1-.59zm1.4.9 1.2.6v.03zm-171.26 1.22-1.5.28.87.91zm1.18 1.19-1.81.31v2.38l1.5-.6.31 1.5 1.19-1.5zm-173.68.31-1.19.88-.31.31-.32-.59.91-.32zm-12.6 3.28v1.5l-.9.91.59-1.19zm-9.9 4.22-1.19 1.19v-.75zm-1.44.53-.66.66.6 1.19-.91 3 .59-.88v.6l.32 1.5-1.19.9-.63-.9-1.18-1.82 2.09-3.9zm241.44.97-2.1.6-1.5.9 1.19.88-1.19 1.22 1.78-.6-.9 3.88 1.5 1.22 1.81-1.22 2.69 2.4 4.48-1.78-5.98-2.72-1.78-2.09zm-217.5 4.5-2.41 2.1-1.19.9 1.19-1.22.59-.9zm227.66 3.28.9 1.5h.3l2.4.32-.6-.6-.3-.62h-.3zm23.4 4.5v1.82l-2.4.9.7 2.1 2.3 4.18 4.8 3.6 1.5 3.62 10.2 2.38 8.4-5.69 6.9-2.09.9.28-6 1.5-8.4 6.31 2.1.59 2.7 3-2.7-2.68-14.4-3.6-1.8-3.9-4.2-3.32-2.7-3.9-.3-2.38zm-153.88 6-.9 2.72-.28-2.12-1.22 1.81-.88-.91-.31.91-1.19-.31 3.88 2.4-2.1.32.91.9-3.91-1.22 2.72 3.91-3.62.91 2.72.9 1.18 1.78 1.19 2.1 3.91-.28h4.5l3.59-1.82-.59-.59 1.5.31-.28-5.12 1.78-.6-2.1.32-.31-1.82-1.5 1.5-2.37-1.5-1.22 1.82.31-2.41-2.09 1.19-.32-1.19-.31-.59-3.28 2.68 1.78-3.28zm141.58.6.6.31-.6-.28zm1.2 1.5.6.31-.6-.28zm1.2 1.5.6.31-.6-.28zm43.5 1.59 4.2 1.41 1.2-.28 2.4-.6 7.9.88 3 .9-5.2-.9-7.5.31h-1.8zm-39 4.13.7.28v.03zm1.2 1.5.6.28v.03zm87.6 3.59 1.9.59.2 2.1-1.8-.6zm63 1.19.9.62.6 1.5-.3-.31-.6-.59v-.03zm-196.78 9.9 2.69 1.5h-1.5l.63 2.41zm-1.18 1.82 1.18 1.18h-1.5zm-14.1.9 5.1 4.78-2.41-1.5.28 2.1 3 .31-.28-1.81 1.5.62v2.38l-3 2.4 1.5.32-2.41.59-1.5-2.09 1.82.59 1.78-1.5-3.91-2.41.63-1.78zm217.86 1.07.8 1.34 1.3 1.78v-.91l.8 1.5h-.8l-1.3-2.37-.3.59-.9 1.19-.3-1.19h.9l.3-.31-.3-.59v-.6zm-201.08.43 3 1.19 2.69 5.09-.87 1.5-2.41-.28 1.5-.9-3.59-2.41-1.5-2.69 2.09 1.78-1.22-2.4 2.13 2.12.87-.9zm-18.59.88.59 2.72.32-1.82 1.15.91-2.06 3v2.69l1.78-.6-.59 2.1-2.1-2.1 1.19-3.59-.28-2.41-1.22-.59zm1.19.31 1.5.59-.6.88zm225.28.91 4.5 9 .9 2.09 1.5 1.5-6.6-12.59zm-230.97 2.68h2.41v1.22l-2.13.6v1.78l2.13-1.78-1.47 2.34 1.15.94-1.18-.88.03-.06-.66-.56v.62zm16.19.91 5.4 3.91-3 3.59-4.5-5.09zm-53.97.59 1.19 1.22.9-1.22v.91l-1.81 1.5-.59-1.5h-.32zm-29.72 6.32-1.5 3.28-1.78-.6-.31 3.32-2.41 1.18 2.72.6-4.22 5.4 2.09-1.78 1.82-1.22.31 1.5-.91-.28-2.4 4.19.31 1.19.28-.88 4.81.6-2.4 1.78.59 2.12 1.22-.62-1.81 2.72.9 1.18-4.22-.28-2.09 1.5 2.09-.31-.28 1.81-4.81 2.1 4.5 3.28 3.31-1.19-2.72 2.41-3.28-.91-5.72 3.91 6 .9 1.22-2.12 9.6 1.81 4.5-.91.28-.9-3-.88 1.81-.31 3.28-3.31-.59-2.38-3.28-.62h-.32l.91-2.69-.28-.59-1.5-.6 2.09.28.28-1.78-2.37-2.72-.31-6-3.91-2.09 3.31.31-1.81-.9 2.41-.32 3.31-4.18-6.31-.91 5.09-3.91zm271.47.9 2.1 1.19-1.2.91-.6.28-.3-1.19zm-457.16.88-.59.62-.31.88-.32.62-.59.88-1.19 3.9-1.81 4.5-.59 2.72-.6 1.19-.59.31-1.22 6.88.31.9 1.19-5.4.91-1.5.9-3.88zm228.6 2.12 2.37.28-.87 2.72-3.91 1.19.59-2.41 1.82.32zm180.56 1.19 2.4 1.81h-2.1zm-158.06.91-.91.28.91.9 1.5-.59zm-1.5 2.09.59 2.41v.28l3-2.69zm154.76.31-.3 2.69-6.3 3.31-.6 4.5 2.7 4.19-3.6-2.09-.3-3.6.6-3 6.9-3.62zm-161.67 2.38-2.41 1.5.32 2.4zm-69.91 1.22-3 1.78 1.82.62-1.82 1.5-3.87-1.22h-.03l.59 2.1-2.37 1.22 3 1.78-3.91 2.12 3.28.6-5.06.28 1.47.9-2.1.6 2.1.62-2.1.6 2.1.28-1.47.9 5.37-.28 5.1-.31h.03l2.69-7.81 3-1.19-.32-3.59h-3.28l1.47-.6-.87-.9-1.5 1.5zm44.41.9 2.09.28-1.81.6.31 1.5-.59-1.19-1.5.91zm7.78 5.1-.87 1.78-.63-1.5-2.37.9 2.09 5.72v-2.12l2.41-2.38zm-6.28 1.78-.59 1.81 2.09.59v-2.4zm29.31.87.41 3.35h-1.81zm-20.03 4.53-1.5.6 1.5.62zm92.69 1.82-1.8 3 .6 2.59-.9-2.31zm-329.38 2.09-.59 2.69-.59 1.22-.91 3 .91-5.41-.32.31-.87 3v3.88l-1.22 3.9.59-.59.63-.31-.31 6 .59-.6.59-5.09.63.59v-1.5l.59-2.09.6-8.41zm328.28 3.62 2.3 2.07-1.8 1.22v.31l-.6 7.19.3-7.19v-.03l.3-2.1zm48.5.88-.3 3.91.9 1.78 3.9 1.22-.6 1.78-.3 3.9 1.8 1.5-2.4 2.1v.03l-.6.28-1.5-1.19-3 1.5-2.7-4.5-.6-4.81 2.1-.91-1.2-1.78 1.5.28v-.9l-.3-2.1h2.4zm130.8.91v4.78l.9 3.9 1.5 2.1.3-.6-.6-4.18-1.5-5.1zm-189.6 4.5-.6.31h-.6l-.9.28.9-.31h.6zm36 3.9 1.2.88.9 5.4 1.8.32-5.4 1.78-.3 2.72 2.4.9-3.9.6.3 1.5h2.1l3 4.18 5.1.32v3l3 4.18-1.2-4.18 1.8-1.5 5.1 3.59-2.1 3-3.3-1.19.6 3.88 1.8 2.12-.9-1.22 2.1-.59 1.5 1.81h-1.8l.6 2.1.9-1.22 1.8 1.5 3.6 9.31-6.3 3.59-10.2-1.5-3-5.4.9-2.69-.6-3.91 2.4-1.78-3.3-.31-8.4-7.19-1.8-5.4-.3 1.78-3.9-4.19.3-5.69 3.9-1.5.3-3.9 4.2-4.22zm-362.66 5.69-.32.59v.82l.32-1.1zm-.32 1.41-.06.21.06-.12zm-.06.21-.22.47v.32zm-.22.79-.09.5.09-.19zm-.09.5-.22.4v.6zm-.81 4.9-.32.6-.28.59v.59l-.59 2.13v-.31l-.31 3 .31-1.57v.28l-2.41 12.97-.31 2.41v.91l-.28 1.78.28-1.19-.28 2.69v.62l-.22.19-.09.09v2.1l-.32.62v2.69l-.28.59v3.32l-.31.59v2.41l-.28 2.09v5.69l-.31.31v16.19l.06.5.53 8.22v.9l.59 5.1.63 7.18.87 5.41.32.59.31 2.1.59 1.5v-1.19l-.9-8.69-.22-1.69.22 1.38 1.5 11.09.31.91 1.19 3.31.59-.62.91 3 .59-.6.53 1.22-1.12-.31-.91-3-.91.59-.87-3.59-.31-.31-1.19-2.38-.31-2.72-.6-.28v-1.22l-.59-3.9v2.4l.28.91v1.5l.31.59v1.5l.28.91v1.5l.32.91v.59l.31.91v1.5l.28.59v.91l.31.59v.91l.28.9v1.5l.32.6v.9l.31.6v.9l.28.6v.9l.31.88v.62l.28.88v.62l.32.88.31.62v.88l.28.62v.88l.31.9.28.6v.9l.32.6.31.9v.6l.28.9.31.6v.9l.28.63v.59l.32.6v.9l.31.6v.59l.28.59v.32l.31.59v.59l.28.6v.62l.32.28v.6l.31.62v.6l.28.28v.62l.31.6v.59l.28.31v.6l.32.59v.59l.31.32.28.59v.59l.31.6v.31l.28.59v.6l.32.62v.28l.59 1.22v.6l.31.28v.62l.6 1.19v.31l.31.6v.59l.28.59.31.32v.59l.6 1.19v.31l.31.59v.6l.28.31.31.59v.6l.28.62.32.28v.6l.59 1.22v.28l.59 1.22v.28l.91 1.81v.31l.59 1.19v.31l.63 1.19v.59l.28.32.59 1.18v.32l.63 1.18.28.32v.59l.59 1.19.32.31v.59l.31.6.28.31.59 1.19v.31l.63 1.19.28.31.31.59v.6l.28.62.32.28.59 1.22v.28l.59 1.22.32.28.59 1.22v.28l.59 1.22.32.28.59 1.22.31.28v.6l.28.62.32.28.59 1.22.31.28.6 1.22.31.28v.29l.94 1.65-.94-1.53v.19l.28.62.31.28.28.6.32.31.59 1.19.19.19.4.71.57.85-.25-.25.31.65v-.31l.59.88 1.5 3 .6.59 1.18 2.41.63.59.87 1.81.63.6.28.59.03.03.03.06 1.16 1.41-.63-.91.63.6 1.5 1.81.28-.31 2.09 2.4h.32l.31.91 2.09 2.41-.59-1.22 1.19.62-.91-1.81v-3l-1.19-3.59.28-.91-4.5-15.31.32-.6.9 1.82h.6l2.68-4.82 2.13-3.28-.31-3.9-1.82-6.91-1.18-2.41-3.91-3.9-3.91-7.78-3.59-6.91h-.28l-5.13-5.41-2.37-4.78-2.72.28v-2.4l.59-.28-1.18-.91.9-.31-.59-3.28-.91.59-.31-2.09h-.28l.28-.6h-.59l-.6-2.12-.31.31v-1.5l-.28.31-1.81-4.22-.32.6-1.18-2.38-.6 1.78.6 1.5-.6-.28-.31-1.81-1.19 1.5.28-1.81-2.09-2.1 2.72 2.1.59-3-3.31-6-.59 2.4v-1.78l-.6.6v-2.1l-.59.88.28-2.38 2.41-1.22-.32-.9.32-1.19-1.19-3.91-.31-9.59-.32-1.19-.28 1.19-.59-5.09-2.13-8.72-3.59-7.78-.59-7.19-.6.87.6-3v-3.87l-.6-4.81v-1.22l-.59-1.5.59-3v-3.88l-.59-1.81v-1.19l.28-2.4.91 1.5-1.5-6.32v2.41l-.91-2.09v-5.41l-.28-4.81.28-3.28.31-4.22.13-.85-.13.57v-1.5l-.56-1.13.84-3.97.32.6.59-3h-.91l.32-2.72-.32.9zm-.47 12.03.15-.65v-.35zm.15-1 .32-2.03-.32 1.5zm36.97 189.75.53 1.1.32.31zm.85 1.41.44.59-.13-.28zm.44.59.46.91.6.59-.6-.9zm1.06 1.5.59 1.22.44.44zm1.03 1.66.47.75-.32-.59zm.47.75.31.59.44.44zm.75 1.03.25.35-.1-.19zm.25.35.5 1.03.59.59.31.59v-.28zm1.4 2.21.28.6.63.62zm-15.59-25.09v-.12l-.31-.57-.32-.31zm-31.5-100.31-.31-2.1-.03-.09.03.41v1.18zm-.34-2.19-.29-3.81-.28-3v3l.28.62v2.38zm-.57-6.81-.31-3.6v.91l-.25-2.56-.03-.13.28 3v1.5zm-.56-5.25.13.37.12 1.28-.09-1.25-.03-.15-.16-1.88v.28l.13 1.5-.13-.59zm4.16 24.15-.6-2.4v.31zm-2.91-69.09.22-1.41v-.28zm3.5-22.06v.15l-.12.66v.03l-.03.06-.04.04zm-.34 6.75-.57 3.72-.28 1.5-.31 1.18v-.59l.59-3.91v-.59zm228.93 9.72-3.31 2.68.91 4.5 2.4-2.68zm-1.5 8.09-3.9 1.19-.28 9.31 4.5-.91 1.18-5.68zm-21.9 3.31-3.28.88 1.78 1.81 2.09-1.5zm71.72 9.28-1.5.6 5.68 3.9-.9-3zm-28.22 3.32-11.69.59.59 2.09 8.41 4.5zm71.38 8.4-8.07 3.88 3 2.12 3.87-2.4-.9-1.22zm-41.38 4.19v1.81l4.5.88 5.4-.28.6-1.5-2.1 1.18zm248.68 12.59-2.7 4.82.9 3h1.8l1.2 3 .9-.6.6 4.5.6.88.3.31.6 5.41.6 1.5v.59l.3-1.5v-.59l.3-1.82v.32l.9-10.82.3-1.78-.3 1.5-.3 1.78.3-2.4-.3.62.3-3.31-.6 1.81.3-5.12h-.3l-.3 3.31v-2.69l-.3 1.19-1.2-2.09v2.09l-.9-1.5-.3-.31-1.5.62v-1.5zm-31.5 26.41-.6.59v.32h1.2l-.9.28v1.5l.6 5.4-.6-.59 1.2 3.31v.28l.3.6.9 3.31 2.4-3.31.9-4.78-2.1-4.5zm-492.21 6.53.84 1.88.31 1.5v.71l-.31-.71-.28 3.28v-4.16l-.63-1.53.63 1.19zm1.37 4.59.38.57.59.31h-.59zm187.56 54.88 2.72 2.41-.9 3.9-.32.6-.28-.6-.59-1.81 1.78-1.81zm163.18 2.41-.5.31h-1.3l-.6.28.6-.31h1.3zm-186.86 2.68 4.5 6.32.31.28.87-4.78-1.18 11.68v-1.5l-.32-.28-3-2.12 3 1.81v-1.5l.32-.59v-1.5l-1.19-.32h1.19l-3-.59 2.68-.31-3-2.1-.59-2.4-3.28-.6 3 .32zm-137.69 23.79v.21l.28.32zm225.28 13.71-2.09 11.1 3.31-5.69 7.19-3 .9-.59 9.94-.57-10.84 2.07-3.32.59-4.18 2.41.31 3.28-10.5 7.81-.31 3.31-.32-3.31 7.5-6.31zm20.09 1.22 9.91 5.38-10.44-5.35zm117.58 30.28-2.7 2.41v2.69l-2.4 2.12h-1.5l.3 1.78-1.2.32-1.4 2.87.2-1.09-2.1 1.81.6.91-1.5.59.6-1.19-2.1 1.5-.3 1.5-1.2-.62-7.2 3.62-3 4.19.9 6.31-5.1 4.78-1.8 2.72 1.2 6h3.3l8.7-3.62 14.4-20.69.9-2.69 1.8-1.81v-3.59l.9-.6.9 1.19 1.5-2.09-.9-6.6-2.4-1.5.7-1.22zm-64.8 7.22 2.1 1.5 1.8 4.5-1.5 3 1.8 5.69-3-.31-1.8-5.38 1.5-2.12-1.2-5.1-.3-.9h.3z" fill="url(#b)" fill-rule="evenodd"></path></g><path transform="matrix(2.0089,0,0,-2.0077,604.95,565.79)" d="m158.39 145.58a44.901 44.901 0 11-89.801 0 44.901 44.901 0 1189.801 0z" fill="url(#a)" fill-rule="evenodd" stroke="#b7b7b7" stroke-linecap="round" stroke-linejoin="round" stroke-width=".33764"></path></g><path transform="matrix(.9 0 0 .9 -29.913 -24.39)" d="m51.378 92.297c3.0402 3.3227 6.2955 6.455 9.7925 9.2847-.32042 36.022-.86273 71.821-1.6269 107.4 1.462 1.195 2.9662 2.3808 4.5099 3.5596 5.4566 4.1181 10.747 7.7975 15.681 11.269h1e-6c1.9957 1.3863 4.0136 2.7748 6.0474 4.1721 4.7423 3.2682 9.9424 6.0582 15.467 8.4715-.29726 4.6608-.62139 9.3102-.97237 13.948-5.6457-2.5667-11.063-5.5938-16.107-9.1998-1.8322-1.3098-3.6699-2.615-5.5059-3.9233h-1e-6c-5.1858-3.6957-10.362-7.4178-15.372-11.34-1e-6 0-2e-6-1e-5-3e-6-1e-5-4.9863-3.9048-9.8019-8.0054-14.291-12.472-.60598-41.849.18651-82.238 2.3775-121.17zm55.585 34.662c4.069 1.47 8.2056 2.7505 12.396 3.8299.1715.0442.34307.0881.51471.13159.90089 42.334-.0702 84.228-2.9134 125.68-.17341-.0523-.34674-.10495-.51999-.15787-4.233-1.2931-8.4184-2.7638-12.504-4.455 2.8703-41.013 3.8793-82.69 3.027-125.03zm52.524 137.03c-.49827-1.9796-1.0169-3.9582-1.5552-5.9396-10.68-41.315-21.11-83.015-33.935-126.15 4.5882 1.0247 9.2215 1.8363 13.882 2.4781 8.907 28.967 14.301 49.281 21.431 77.562 1.3607 4.2088 2.6796 8.3718 3.9555 12.558 1.7032 6.6661 3.2813 12.912 4.9416 19.475 12.018-36.068 21.217-74.237 32.391-113.26.88284-.25246 1.7635-.51083 2.6419-.77458 3.6071-1.0834 7.1863-2.2701 10.725-3.566-4.3215 14.861-7.8249 27.124-11.762 41.696-9.2504 34.937-16.114 62.674-27.144 95.683-4.517.42123-9.0608.54851-13.617.33519-.6518-.0305-1.3035-.0642-1.955-.10116zm58.508-139.14c2.0834-.82008 4.151-1.6795 6.2-2.5796 7.5825-3.33 14.913-7.2161 21.858-11.721 4.3842-2.8434 8.6705-5.8462 12.675-9.1989 4.0688-3.4065 8.0599-6.9087 12.17-10.271.001 4.8775.005 9.7527.0114 14.626-3.6083 2.9592-7.3253 6.1996-11.323 9.5132-4.365 3.6003-8.8401 6.7351-13.26 9.5739-5.25 3.3738-10.684 6.4196-16.254 9.1596-.23425 12.596-.42542 25.173-.57351 37.731 5.8192-2.893 11.533-6.0817 17.1-9.5846 4.4954-2.8202 9.2602-6.1266 14.178-10.034 3.4324-2.7343 6.434-5.2421 9.0757-7.4337.0324 4.8513.0594 9.7068.0812 14.566-2.6239 2.1691-5.6387 4.6403-9.0992 7.342-4.9824 3.8968-9.7813 7.2033-14.299 10.014-5.605 3.4998-11.348 6.6982-17.189 9.6118-.14069 15.352-.21683 30.676-.22843 45.971 5.6347-2.838 11.176-5.8988 16.593-9.1943 4.5634-2.7697 9.1848-5.8326 13.826-9.2162h1e-5c4.5963-3.3235 8.8306-6.6244 12.709-9.8768.0788 4.8123.16543 9.6182.25991 14.418-4.4586 3.743-9.0807 7.2866-13.841 10.639-4.3619 3.0721-8.8376 5.9818-13.408 8.7357-7.2432 4.3649-14.726 8.3408-22.371 11.954-2.0657.97613-4.1516 1.9213-6.2558 2.8298-.88646-42.089-.432-84.614 1.3634-127.57z" filter="url(#d)" style="paint-order:stroke fill markers;text-orientation:upright" aria-label="LIVE"></path><path transform="translate(-45.978 -42.154)" d="m51.378 92.297c3.0402 3.3227 6.2955 6.455 9.7925 9.2847-.32042 36.022-.86273 71.821-1.6269 107.4 1.462 1.195 2.9662 2.3808 4.5099 3.5596 5.4566 4.1181 10.747 7.7975 15.681 11.269h1e-6c1.9957 1.3863 4.0136 2.7748 6.0474 4.1721 4.7423 3.2682 9.9424 6.0582 15.467 8.4715-.29726 4.6608-.62139 9.3102-.97237 13.948-5.6457-2.5667-11.063-5.5938-16.107-9.1998-1.8322-1.3098-3.6699-2.615-5.5059-3.9233h-1e-6c-5.1858-3.6957-10.362-7.4178-15.372-11.34-1e-6 0-2e-6-1e-5-3e-6-1e-5-4.9863-3.9048-9.8019-8.0054-14.291-12.472-.60598-41.849.18651-82.238 2.3775-121.17zm55.585 34.662c4.069 1.47 8.2056 2.7505 12.396 3.8299.1715.0442.34307.0881.51471.13159.90089 42.334-.0702 84.228-2.9134 125.68-.17341-.0523-.34674-.10495-.51999-.15787-4.233-1.2931-8.4184-2.7638-12.504-4.455 2.8703-41.013 3.8793-82.69 3.027-125.03zm52.524 137.03c-.49827-1.9796-1.0169-3.9582-1.5552-5.9396-10.68-41.315-21.11-83.015-33.935-126.15 4.5882 1.0247 9.2215 1.8363 13.882 2.4781 8.907 28.967 14.301 49.281 21.431 77.562 1.3607 4.2088 2.6796 8.3718 3.9555 12.558 1.7032 6.6661 3.2813 12.912 4.9416 19.475 12.018-36.068 21.217-74.237 32.391-113.26.88284-.25246 1.7635-.51083 2.6419-.77458 3.6071-1.0834 7.1863-2.2701 10.725-3.566-4.3215 14.861-7.8249 27.124-11.762 41.696-9.2504 34.937-16.114 62.674-27.144 95.683-4.517.42123-9.0608.54851-13.617.33519-.6518-.0305-1.3035-.0642-1.955-.10116zm58.508-139.14c2.0834-.82008 4.151-1.6795 6.2-2.5796 7.5825-3.33 14.913-7.2161 21.858-11.721 4.3842-2.8434 8.6705-5.8462 12.675-9.1989 4.0688-3.4065 8.0599-6.9087 12.17-10.271.001 4.8775.005 9.7527.0114 14.626-3.6083 2.9592-7.3253 6.1996-11.323 9.5132-4.365 3.6003-8.8401 6.7351-13.26 9.5739-5.25 3.3738-10.684 6.4196-16.254 9.1596-.23425 12.596-.42542 25.173-.57351 37.731 5.8192-2.893 11.533-6.0817 17.1-9.5846 4.4954-2.8202 9.2602-6.1266 14.178-10.034 3.4324-2.7343 6.434-5.2421 9.0757-7.4337.0324 4.8513.0594 9.7068.0812 14.566-2.6239 2.1691-5.6387 4.6403-9.0992 7.342-4.9824 3.8968-9.7813 7.2033-14.299 10.014-5.605 3.4998-11.348 6.6982-17.189 9.6118-.14069 15.352-.21683 30.676-.22843 45.971 5.6347-2.838 11.176-5.8988 16.593-9.1943 4.5634-2.7697 9.1848-5.8326 13.826-9.2162h1e-5c4.5963-3.3235 8.8306-6.6244 12.709-9.8768.0788 4.8123.16543 9.6182.25991 14.418-4.4586 3.743-9.0807 7.2866-13.841 10.639-4.3619 3.0721-8.8376 5.9818-13.408 8.7357-7.2432 4.3649-14.726 8.3408-22.371 11.954-2.0657.97613-4.1516 1.9213-6.2558 2.8298-.88646-42.089-.432-84.614 1.3634-127.57z" fill="#fc0" stroke="#a80" stroke-width="5.6506" style="paint-order:stroke fill markers;text-orientation:upright" aria-label="LIVE"></path></svg>