<?xml version="1.0" encoding="UTF-8" standalone="no"?>
<svg
   width="24"
   height="24"
   viewBox="0 0 24 24"
   version="1.1"
   id="svg4"
   sodipodi:docname="help.svg"
   inkscape:version="1.4.3 (0d15f75, 2025-12-25)"
   xmlns:inkscape="http://www.inkscape.org/namespaces/inkscape"
   xmlns:sodipodi="http://sodipodi.sourceforge.net/DTD/sodipodi-0.dtd"
   xmlns="http://www.w3.org/2000/svg"
   xmlns:svg="http://www.w3.org/2000/svg">
  <sodipodi:namedview
     id="namedview4"
     pagecolor="#ffffff"
     bordercolor="#000000"
     borderopacity="0.25"
     inkscape:showpageshadow="2"
     inkscape:pageopacity="0.0"
     inkscape:pagecheckerboard="0"
     inkscape:deskcolor="#d1d1d1"
     inkscape:zoom="28.037299"
     inkscape:cx="12.001869"
     inkscape:cy="12.001869"
     inkscape:window-width="1920"
     inkscape:window-height="1129"
     inkscape:window-x="-8"
     inkscape:window-y="-8"
     inkscape:window-maximized="1"
     inkscape:current-layer="svg4"
     showgrid="false" />
  <defs
     id="defs2">
    <radialGradient
       id="radial-pattern-0"
       gradientUnits="userSpaceOnUse"
       cx="96.169754"
       cy="94.547119"
       fx="96.169754"
       fy="94.547119"
       r="10.35"
       gradientTransform="matrix(0, 1.618023, -1.420822, 0.00000399868, 232.613815, -59.855137)">
      <stop
         offset="0"
         stop-color="rgb(100%, 100%, 100%)"
         stop-opacity="1"
         id="stop1"
         style="stop-color:#f0f0f0;stop-opacity:1;" />
      <stop
         offset="1"
         stop-color="rgb(0%, 0%, 100%)"
         stop-opacity="1"
         id="stop2"
         style="stop-color:#fcb840;stop-opacity:1;" />
    </radialGradient>
  </defs>
  <path
     fill-rule="nonzero"
     fill="url(#radial-pattern-0)"
     stroke-width="0.7"
     stroke-linecap="butt"
     stroke-linejoin="miter"
     stroke="rgb(0%, 0%, 50.196078%)"
     stroke-opacity="1"
     stroke-miterlimit="4"
     d="m 112.22436,102.22475 c 0,5.52428 -4.47533,9.99961 -9.99961,9.99961 -5.524285,0 -9.999611,-4.47533 -9.999611,-9.99961 0,-5.524285 4.475326,-9.999611 9.999611,-9.999611 5.52428,0 9.99961,4.475326 9.99961,9.999611 z m 0,0"
     transform="matrix(1.132075,0,0,1.132075,-103.72613,-103.72613)"
     id="path3"
     style="display:inline;stroke:#fcb840;stroke-opacity:1" />
  <path
     fill-rule="nonzero"
     fill="rgb(100%, 100%, 100%)"
     fill-opacity="0.976471"
     stroke-width="0.4"
     stroke-linecap="butt"
     stroke-linejoin="miter"
     stroke="rgb(100%, 100%, 100%)"
     stroke-opacity="1"
     stroke-miterlimit="4"
     d="M 106.945061 99.167587 C 106.945061 99.65066 106.876051 100.078525 106.73458 100.458082 C 106.593108 100.837639 106.389527 101.189592 106.127288 101.510491 C 105.861598 101.831389 105.433733 102.210947 104.833342 102.649163 L 104.063876 103.218499 C 103.598056 103.553199 103.256454 103.905152 103.02872 104.277809 C 102.804436 104.647014 102.690569 105.047275 102.683668 105.485491 L 100.996363 105.485491 C 101.006715 105.040374 101.075725 104.653915 101.196493 104.319215 C 101.327613 103.984514 101.489788 103.687769 101.689918 103.42898 C 101.890048 103.173642 102.114332 102.945907 102.36622 102.745777 C 102.614657 102.538746 102.869996 102.345517 103.125335 102.16609 C 103.384124 101.979762 103.636012 101.796884 103.877548 101.617457 C 104.129436 101.431129 104.35027 101.224098 104.543499 100.999814 C 104.736728 100.77553 104.892001 100.520191 105.009319 100.237249 C 105.130087 99.954306 105.192197 99.623056 105.192197 99.243499 C 105.192197 98.511988 104.940309 97.932301 104.439983 97.507886 C 103.943108 97.083472 103.246103 96.86954 102.345517 96.86954 C 101.444931 96.86954 100.730673 97.097274 100.202743 97.545842 C 99.674814 97.99786 99.367717 98.615504 99.278004 99.398772 L 97.504436 99.281454 C 97.670061 98.008212 98.170386 97.031715 99.008863 96.348511 C 99.843889 95.668759 100.951506 95.327157 102.324814 95.327157 C 103.76023 95.327157 104.888551 95.668759 105.713225 96.348511 C 106.534449 97.024814 106.945061 97.963355 106.945061 99.167587 Z M 100.917001 109.12234 L 100.917001 107.183147 L 102.797535 107.183147 L 102.797535 109.12234 Z M 100.917001 109.12234 "
     transform="matrix(1.132075, 0, 0, 1.132075, -103.726126, -103.726126)"
     id="path4" />
</svg>
