<?xml version="1.0" encoding="UTF-8" standalone="no"?>
<svg
   width="70"
   height="40"
   viewBox="0 0 69.999999 40"
   version="1.1"
   id="svg6"
   sodipodi:docname="169.svg"
   inkscape:version="1.4.3 (0d15f75042, 2025-12-25)"
   xmlns:inkscape="http://www.inkscape.org/namespaces/inkscape"
   xmlns:sodipodi="http://sodipodi.sourceforge.net/DTD/sodipodi-0.dtd"
   xmlns="http://www.w3.org/2000/svg"
   xmlns:svg="http://www.w3.org/2000/svg">
  <defs
     id="defs6" />
  <sodipodi:namedview
     id="namedview6"
     pagecolor="#ffffff"
     bordercolor="#999999"
     borderopacity="1"
     inkscape:showpageshadow="2"
     inkscape:pageopacity="0"
     inkscape:pagecheckerboard="0"
     inkscape:deskcolor="#d1d1d1"
     inkscape:zoom="8.1405668"
     inkscape:cx="2.0883067"
     inkscape:cy="24.998259"
     inkscape:window-width="1920"
     inkscape:window-height="1172"
     inkscape:window-x="0"
     inkscape:window-y="0"
     inkscape:window-maximized="1"
     inkscape:current-layer="svg6"
     showgrid="true">
    <inkscape:grid
       id="grid1"
       units="px"
       originx="0"
       originy="0"
       spacingx="0.99999999"
       spacingy="1"
       empcolor="#0099e5"
       empopacity="0.30196078"
       color="#0099e5"
       opacity="0.14901961"
       empspacing="5"
       enabled="true"
       visible="true" />
  </sodipodi:namedview>
  <g
     id="g9"
     transform="translate(0,0.4355465)">
    <g
       id="g8"
       transform="translate(1.8945315)">
      <path
         fill-rule="nonzero"
         fill="#000000"
         fill-opacity="1"
         d="M 1.644531,1.644531 C 12.25,4.3125 23.039062,5.660156 33.855469,5.660156 c 10.816406,0 21.605469,-1.347656 32.214843,-4.015625 z m 0,0"
         id="path1" />
      <path
         fill-rule="nonzero"
         fill="#808080"
         fill-opacity="1"
         d="m 0.140625,0.773438 c 10.605469,2.671874 21.398437,4.019531 32.214844,4.019531 10.8125,0 21.605469,-1.347657 32.210937,-4.019531 z m 0,0"
         id="path2" />
    </g>
    <g
       id="g7"
       transform="translate(1.8945315)">
      <path
         fill-rule="nonzero"
         fill="#000000"
         fill-opacity="1"
         d="M 1.644531,38.355469 C 12.25,35.6875 23.039062,34.339844 33.855469,34.339844 c 10.816406,0 21.605469,1.347656 32.214843,4.015625 z m 0,0"
         id="path3" />
      <path
         fill-rule="nonzero"
         fill="#808080"
         fill-opacity="1"
         d="m 0.140625,37.488281 c 10.605469,-2.667969 21.398437,-4.015625 32.214844,-4.015625 10.8125,0 21.605469,1.347656 32.210937,4.015625 z m 0,0"
         id="path4" />
    </g>
  </g>
  <g
     id="g6"
     transform="translate(0.87500033)">
    <path
       fill-rule="nonzero"
       fill="#000000"
       fill-opacity="1"
       d="M 16.160156,30.412109 H 11.726562 V 18.279297 c 0,-0.507813 0.0078,-1.171875 0.02734,-1.996094 0.03906,-0.820312 0.07031,-1.546875 0.08984,-2.171875 -0.09766,0.117187 -0.3125,0.332031 -0.648438,0.644531 -0.3125,0.292969 -0.605468,0.558594 -0.878906,0.792969 l -2.410156,1.9375 -2.144531,-2.671875 6.757812,-5.375 h 3.640625 z m 5.699219,-8.902344 c 0,-1.210937 0.08594,-2.40625 0.265625,-3.582031 0.175781,-1.175781 0.476562,-2.28125 0.910156,-3.320312 0.449219,-1.054688 1.066406,-1.984375 1.847656,-2.789063 0.804688,-0.820312 1.8125,-1.457031 3.027344,-1.910156 1.234375,-0.46875 2.722656,-0.703125 4.464844,-0.703125 0.410156,0 0.890625,0.019531 1.4375,0.058594 0.550781,0.019531 1.007812,0.066406 1.382812,0.148437 v 3.550782 c -0.375,-0.09766 -0.785156,-0.164063 -1.234374,-0.203126 -0.433594,-0.05859 -0.863282,-0.08984 -1.292969,-0.08984 -1.742188,0 -3.09375,0.273437 -4.054688,0.824219 -0.9375,0.546874 -1.605469,1.320312 -1.996093,2.320312 C 26.226562,16.791015 26,17.927734 25.941406,19.220703 h 0.175782 c 0.390624,-0.6875 0.949218,-1.261719 1.675781,-1.734375 0.742187,-0.46875 1.703125,-0.703125 2.878906,-0.703125 1.839844,0 3.296875,0.578125 4.375,1.730469 1.078125,1.15625 1.617187,2.792969 1.617187,4.90625 0,2.273437 -0.648437,4.054687 -1.941406,5.347656 -1.273437,1.289063 -3.003906,1.9375 -5.199218,1.9375 -1.429688,0 -2.71875,-0.324219 -3.875,-0.96875 -1.15625,-0.667969 -2.078126,-1.675781 -2.761719,-3.027344 -0.683594,-1.371093 -1.027344,-3.101562 -1.027344,-5.199219 z m 7.578125,5.640626 c 0.859375,0 1.566406,-0.292969 2.113281,-0.878907 0.550781,-0.609375 0.824219,-1.539062 0.824219,-2.792969 0,-1.015624 -0.234375,-1.820312 -0.707031,-2.40625 -0.46875,-0.589843 -1.183594,-0.882812 -2.144531,-0.882812 -0.644532,0 -1.210938,0.148438 -1.703126,0.441406 -0.488281,0.273438 -0.871093,0.636719 -1.144531,1.085938 -0.273437,0.449218 -0.410156,0.910156 -0.410156,1.382812 0,0.644532 0.117187,1.28125 0.351563,1.90625 0.234374,0.609375 0.585937,1.117188 1.058593,1.527344 0.488281,0.414062 1.074219,0.617188 1.761719,0.617188 z m 9.78125,-10.632813 c 0,-0.898437 0.242188,-1.527344 0.734375,-1.878906 0.507813,-0.371094 1.113281,-0.558594 1.820313,-0.558594 0.683593,0 1.273437,0.1875 1.761718,0.558594 0.507813,0.351562 0.765625,0.980469 0.765625,1.878906 0,0.882813 -0.257812,1.519531 -0.765625,1.910156 -0.488281,0.371094 -1.078125,0.558594 -1.761718,0.558594 -0.707032,0 -1.3125,-0.1875 -1.820313,-0.558594 -0.492187,-0.390625 -0.734375,-1.027343 -0.734375,-1.910156 z m 0,11.835937 c 0,-0.898437 0.242188,-1.535156 0.734375,-1.90625 0.507813,-0.375 1.113281,-0.558593 1.820313,-0.558593 0.683593,0 1.273437,0.183593 1.761718,0.558593 0.507813,0.371094 0.765625,1.007813 0.765625,1.90625 0,0.863282 -0.257812,1.488282 -0.765625,1.882813 -0.488281,0.371094 -1.078125,0.558594 -1.761718,0.558594 -0.707032,0 -1.3125,-0.1875 -1.820313,-0.558594 -0.492187,-0.394531 -0.734375,-1.019531 -0.734375,-1.882813 z m 22.410156,-9.957031 c 0,1.195313 -0.08984,2.390625 -0.265625,3.585938 -0.175781,1.175781 -0.488281,2.289062 -0.9375,3.347656 -0.433593,1.039063 -1.050781,1.96875 -1.851562,2.789063 -0.785157,0.804687 -1.792969,1.441406 -3.027344,1.910156 -1.210937,0.449218 -2.691406,0.675781 -4.433594,0.675781 -0.410156,0 -0.890625,-0.01953 -1.4375,-0.05859 -0.550781,-0.01953 -1.011719,-0.06641 -1.382812,-0.148437 v -3.550782 c 0.390625,0.07813 0.804687,0.144532 1.234375,0.203126 0.429687,0.05859 0.859375,0.08984 1.292968,0.08984 1.742188,0 3.082032,-0.273437 4.023438,-0.824219 0.960938,-0.566406 1.632812,-1.339843 2.027344,-2.320312 0.390625,-0.976562 0.617187,-2.113281 0.675781,-3.40625 h -0.175781 c -0.414063,0.683594 -0.960938,1.261719 -1.648438,1.734375 -0.664062,0.46875 -1.664062,0.703125 -2.992187,0.703125 -1.785157,0 -3.214844,-0.578125 -4.289063,-1.730469 -1.078125,-1.15625 -1.617187,-2.792969 -1.617187,-4.90625 0,-2.273437 0.636719,-4.054687 1.910156,-5.347656 1.292969,-1.292969 3.035156,-1.9375 5.226563,-1.9375 1.429687,0 2.722656,0.332031 3.878906,1 1.15625,0.644531 2.074218,1.652344 2.761718,3.023437 0.683594,1.351563 1.027344,3.074219 1.027344,5.171876 z m -7.578125,-5.636719 c -0.863281,0 -1.566406,0.292969 -2.117187,0.878907 -0.546875,0.589843 -0.820313,1.519531 -0.820313,2.792969 0,1.015624 0.234375,1.820312 0.703125,2.40625 0.472656,0.589843 1.1875,0.882812 2.144532,0.882812 0.667968,0 1.234374,-0.148438 1.703124,-0.441406 0.492188,-0.292969 0.875,-0.65625 1.148438,-1.085938 0.273438,-0.449218 0.410156,-0.910156 0.410156,-1.382812 0,-0.644532 -0.117187,-1.28125 -0.351562,-1.90625 C 56.636719,14.275391 56.28125,13.767578 55.8125,13.376953 55.34375,12.962891 54.753906,12.759765 54.050781,12.759765 Z m 0,0"
       id="path6" />
  </g>
</svg>
