<?xml version="1.0" encoding="UTF-8" standalone="no"?>
<svg
   width="70"
   height="40"
   viewBox="0 0 69.999999 40"
   version="1.1"
   id="svg6"
   sodipodi:docname="221.svg"
   inkscape:version="1.4.3 (0d15f75042, 2025-12-25)"
   xmlns:inkscape="http://www.inkscape.org/namespaces/inkscape"
   xmlns:sodipodi="http://sodipodi.sourceforge.net/DTD/sodipodi-0.dtd"
   xmlns="http://www.w3.org/2000/svg"
   xmlns:svg="http://www.w3.org/2000/svg">
  <defs
     id="defs6" />
  <sodipodi:namedview
     id="namedview6"
     pagecolor="#ffffff"
     bordercolor="#999999"
     borderopacity="1"
     inkscape:showpageshadow="2"
     inkscape:pageopacity="0"
     inkscape:pagecheckerboard="0"
     inkscape:deskcolor="#d1d1d1"
     inkscape:zoom="11.5125"
     inkscape:cx="20.021716"
     inkscape:cy="23.235613"
     inkscape:window-width="1920"
     inkscape:window-height="1172"
     inkscape:window-x="0"
     inkscape:window-y="0"
     inkscape:window-maximized="1"
     inkscape:current-layer="svg6" />
  <g
     id="g9"
     transform="translate(1.8945315,0.4355465)">
    <g
       id="g8">
      <path
         fill-rule="nonzero"
         fill="#000000"
         fill-opacity="1"
         d="M 1.644531,1.644531 C 12.25,4.3125 23.039062,5.660156 33.855469,5.660156 c 10.816406,0 21.605469,-1.347656 32.214843,-4.015625 z m 0,0"
         id="path1" />
      <path
         fill-rule="nonzero"
         fill="#808080"
         fill-opacity="1"
         d="m 0.140625,0.773438 c 10.605469,2.671874 21.398437,4.019531 32.214844,4.019531 10.8125,0 21.605469,-1.347657 32.210937,-4.019531 z m 0,0"
         id="path2" />
    </g>
    <g
       id="g7">
      <path
         fill-rule="nonzero"
         fill="#000000"
         fill-opacity="1"
         d="M 1.644531,38.355469 C 12.25,35.6875 23.039062,34.339844 33.855469,34.339844 c 10.816406,0 21.605469,1.347656 32.214843,4.015625 z m 0,0"
         id="path3" />
      <path
         fill-rule="nonzero"
         fill="#808080"
         fill-opacity="1"
         d="m 0.140625,37.488281 c 10.605469,-2.667969 21.398437,-4.015625 32.214844,-4.015625 10.8125,0 21.605469,1.347656 32.210937,4.015625 z m 0,0"
         id="path4" />
    </g>
  </g>
  <g
     id="g6"
     transform="translate(2.667969,1.4414065)">
    <path
       fill-rule="nonzero"
       fill="#000000"
       fill-opacity="1"
       d="M 19.863281,28.566406 H 5.203125 v -3.085937 l 5.257813,-5.316407 c 1.058593,-1.09375 1.910156,-2.003906 2.558593,-2.730468 0.644531,-0.742188 1.113281,-1.410156 1.40625,-1.996094 0.296875,-0.609375 0.441407,-1.253906 0.441407,-1.941406 0,-0.839844 -0.234376,-1.46875 -0.703126,-1.878906 C 13.714844,11.207031 13.097656,11 12.3125,11 11.511719,11 10.726562,11.1875 9.964844,11.558594 9.199219,11.929688 8.398438,12.460938 7.554688,13.144531 L 5.144531,10.296875 c 0.609375,-0.527344 1.246094,-1.019531 1.910157,-1.46875 0.6875,-0.449219 1.46875,-0.8125 2.351562,-1.085937 0.898438,-0.292969 1.976562,-0.441407 3.230469,-0.441407 1.371093,0 2.542969,0.253907 3.523437,0.761719 1,0.492188 1.761719,1.167969 2.292969,2.027344 0.546875,0.84375 0.820313,1.800781 0.820313,2.878906 0,1.15625 -0.234376,2.214844 -0.703126,3.171875 -0.453124,0.960937 -1.117187,1.910156 -2,2.851563 -0.859374,0.9375 -1.90625,1.976562 -3.140624,3.113281 l -2.703126,2.523437 v 0.207032 h 9.136719 z m 2.554688,-2.058594 c 0,-0.898437 0.242187,-1.535156 0.734375,-1.90625 0.507812,-0.375 1.113281,-0.558593 1.820312,-0.558593 0.683594,0 1.273438,0.183593 1.761719,0.558593 0.507813,0.371094 0.765625,1.007813 0.765625,1.90625 0,0.863282 -0.257812,1.488282 -0.765625,1.882813 -0.488281,0.371094 -1.078125,0.558594 -1.761719,0.558594 -0.707031,0 -1.3125,-0.1875 -1.820312,-0.558594 -0.492188,-0.394531 -0.734375,-1.019531 -0.734375,-1.882813 z m 22.496093,2.058594 h -14.65625 v -3.085937 l 5.257813,-5.316407 c 1.058594,-1.09375 1.910156,-2.003906 2.554687,-2.730468 0.648438,-0.742188 1.117188,-1.410156 1.410157,-1.996094 0.296875,-0.609375 0.441406,-1.253906 0.441406,-1.941406 0,-0.839844 -0.234375,-1.46875 -0.703125,-1.878906 C 38.765625,11.207031 38.148438,11 37.367188,11 c -0.804688,0 -1.585938,0.1875 -2.351563,0.558594 -0.761719,0.371094 -1.566406,0.902344 -2.40625,1.585937 l -2.410156,-2.847656 c 0.609375,-0.527344 1.246093,-1.019531 1.910156,-1.46875 0.683594,-0.449219 1.46875,-0.8125 2.351563,-1.085937 0.898437,-0.292969 1.976562,-0.441407 3.230468,-0.441407 1.371094,0 2.542969,0.253907 3.523438,0.761719 1,0.492188 1.761718,1.167969 2.289062,2.027344 0.550782,0.84375 0.824219,1.800781 0.824219,2.878906 0,1.15625 -0.234375,2.214844 -0.703125,3.171875 -0.453125,0.960937 -1.117188,1.910156 -2,2.851563 -0.859375,0.9375 -1.90625,1.976562 -3.140625,3.113281 l -2.703125,2.523437 v 0.207032 h 9.132812 z m 13.101563,0 H 53.582031 V 16.433594 c 0,-0.507813 0.0078,-1.171875 0.02734,-1.996094 0.03906,-0.820312 0.06641,-1.546875 0.08594,-2.171875 -0.09766,0.117187 -0.3125,0.332031 -0.644531,0.644531 -0.3125,0.292969 -0.609375,0.558594 -0.882812,0.792969 l -2.40625,1.9375 -2.144531,-2.671875 6.753906,-5.375 h 3.644531 z m 0,0"
       id="path6" />
  </g>
</svg>
