<?xml version="1.0" encoding="UTF-8" standalone="no"?>
<svg
   width="70"
   height="40"
   viewBox="0 0 69.999999 40"
   version="1.1"
   id="svg6"
   sodipodi:docname="43.svg"
   inkscape:version="1.4.3 (0d15f75042, 2025-12-25)"
   xmlns:inkscape="http://www.inkscape.org/namespaces/inkscape"
   xmlns:sodipodi="http://sodipodi.sourceforge.net/DTD/sodipodi-0.dtd"
   xmlns="http://www.w3.org/2000/svg"
   xmlns:svg="http://www.w3.org/2000/svg">
  <defs
     id="defs6" />
  <sodipodi:namedview
     id="namedview6"
     pagecolor="#ffffff"
     bordercolor="#999999"
     borderopacity="1"
     inkscape:showpageshadow="2"
     inkscape:pageopacity="0"
     inkscape:pagecheckerboard="0"
     inkscape:deskcolor="#d1d1d1"
     inkscape:zoom="16.281134"
     inkscape:cx="26.902303"
     inkscape:cy="25.213231"
     inkscape:window-width="1920"
     inkscape:window-height="1172"
     inkscape:window-x="0"
     inkscape:window-y="0"
     inkscape:window-maximized="1"
     inkscape:current-layer="svg6"
     showgrid="true">
    <inkscape:grid
       id="grid1"
       units="px"
       originx="0"
       originy="0"
       spacingx="0.99999999"
       spacingy="1"
       empcolor="#0099e5"
       empopacity="0.30196078"
       color="#0099e5"
       opacity="0.14901961"
       empspacing="5"
       enabled="true"
       visible="true" />
  </sodipodi:namedview>
  <g
     id="g1"
     transform="translate(0,0.4355465)">
    <g
       id="g8"
       transform="translate(1.8945315)">
      <path
         fill-rule="nonzero"
         fill="#000000"
         fill-opacity="1"
         d="M 1.644531,1.644531 C 12.25,4.3125 23.039062,5.660156 33.855469,5.660156 c 10.816406,0 21.605469,-1.347656 32.214843,-4.015625 z m 0,0"
         id="path1" />
      <path
         fill-rule="nonzero"
         fill="#808080"
         fill-opacity="1"
         d="m 0.140625,0.773438 c 10.605469,2.671874 21.398437,4.019531 32.214844,4.019531 10.8125,0 21.605469,-1.347657 32.210937,-4.019531 z m 0,0"
         id="path2" />
    </g>
    <g
       id="g7"
       transform="translate(1.8945315)">
      <path
         fill-rule="nonzero"
         fill="#000000"
         fill-opacity="1"
         d="M 1.644531,38.355469 C 12.25,35.6875 23.039062,34.339844 33.855469,34.339844 c 10.816406,0 21.605469,1.347656 32.214843,4.015625 z m 0,0"
         id="path3" />
      <path
         fill-rule="nonzero"
         fill="#808080"
         fill-opacity="1"
         d="m 0.140625,37.488281 c 10.605469,-2.667969 21.398437,-4.015625 32.214844,-4.015625 10.8125,0 21.605469,1.347656 32.210937,4.015625 z m 0,0"
         id="path4" />
    </g>
  </g>
  <g
     id="g6"
     transform="translate(2.2304692,1.765625)">
    <path
       fill-rule="nonzero"
       fill="#000000"
       fill-opacity="1"
       d="m 27.574219,24.320312 h -2.527344 v 4.347657 H 20.730469 V 24.320312 H 11.769531 V 21.234375 L 20.964844,7.695312 h 4.082031 v 13.1875 h 2.527344 z m -6.84375,-6.992187 c 0,-0.449219 0.0078,-0.996094 0.02734,-1.644531 0.01953,-0.644532 0.03906,-1.242188 0.05859,-1.792969 0.03906,-0.566406 0.07031,-0.9375 0.08984,-1.113281 h -0.117188 c -0.175781,0.390625 -0.363281,0.773437 -0.558593,1.144531 -0.195313,0.371094 -0.429688,0.753906 -0.703125,1.144531 l -3.847656,5.816406 h 5.050781 z m 8.929687,-2.554687 c 0,-0.902344 0.242188,-1.527344 0.734375,-1.878907 0.507813,-0.371093 1.113281,-0.558593 1.820313,-0.558593 0.683594,0 1.273437,0.1875 1.761718,0.558593 0.507813,0.351563 0.761719,0.976563 0.761719,1.878907 0,0.882812 -0.253906,1.519531 -0.761719,1.910156 -0.488281,0.371094 -1.078124,0.558594 -1.761718,0.558594 -0.707032,0 -1.3125,-0.1875 -1.820313,-0.558594 -0.492187,-0.390625 -0.734375,-1.027344 -0.734375,-1.910156 z m 0,11.835937 c 0,-0.898437 0.242188,-1.535156 0.734375,-1.90625 0.507813,-0.375 1.113281,-0.558594 1.820313,-0.558594 0.683594,0 1.273437,0.183594 1.761718,0.558594 0.507813,0.371094 0.761719,1.007813 0.761719,1.90625 0,0.863281 -0.253906,1.488281 -0.761719,1.878906 -0.488281,0.375 -1.078124,0.558594 -1.761718,0.558594 -0.707032,0 -1.3125,-0.183594 -1.820313,-0.558594 -0.492187,-0.390625 -0.734375,-1.015625 -0.734375,-1.878906 z M 51.335938,12.394531 c 0,1.449219 -0.441407,2.605469 -1.324219,3.464844 -0.859375,0.863281 -1.925781,1.449219 -3.199219,1.761719 v 0.08984 c 1.683594,0.195312 2.957031,0.703124 3.816406,1.527343 0.882813,0.820313 1.324219,1.929688 1.324219,3.320313 0,1.210937 -0.304687,2.308594 -0.910156,3.289062 -0.589844,0.957032 -1.507813,1.722656 -2.761719,2.289063 -1.234375,0.550781 -2.832031,0.824219 -4.789062,0.824219 -2.269532,0 -4.289063,-0.382813 -6.050782,-1.144532 v -3.761718 c 0.902344,0.449218 1.839844,0.792968 2.820313,1.027343 1,0.234375 1.917969,0.351563 2.761719,0.351563 1.585937,0 2.691406,-0.273438 3.320312,-0.820313 0.644531,-0.546875 0.96875,-1.320312 0.96875,-2.320312 0,-0.585938 -0.148438,-1.078125 -0.441406,-1.46875 -0.292969,-0.410157 -0.8125,-0.714844 -1.558594,-0.910157 -0.722656,-0.214843 -1.742188,-0.324218 -3.054688,-0.324218 h -1.585937 v -3.40625 h 1.617187 c 1.292969,0 2.269532,-0.117188 2.9375,-0.351563 0.683594,-0.253906 1.144532,-0.589843 1.378907,-1 0.253906,-0.429687 0.382812,-0.917969 0.382812,-1.46875 0,-0.742187 -0.234375,-1.320312 -0.703125,-1.730469 -0.453125,-0.433593 -1.214844,-0.648437 -2.292968,-0.648437 -1,0 -1.871094,0.175781 -2.613282,0.527344 -0.726562,0.335937 -1.34375,0.667969 -1.851562,1 L 37.472656,9.457031 c 0.820313,-0.585937 1.78125,-1.078125 2.878906,-1.46875 1.113282,-0.390625 2.4375,-0.585937 3.964844,-0.585937 2.152344,0 3.855469,0.441406 5.109375,1.320312 1.273438,0.863282 1.910157,2.085938 1.910157,3.671875 z m 0,0"
       id="path6" />
  </g>
</svg>
