<?xml version="1.0" encoding="UTF-8" standalone="no"?>
<svg
   width="24"
   height="24"
   viewBox="0 0 24 24"
   version="1.1"
   id="svg5"
   sodipodi:docname="edit.svg"
   inkscape:version="1.4.3 (0d15f75, 2025-12-25)"
   xmlns:inkscape="http://www.inkscape.org/namespaces/inkscape"
   xmlns:sodipodi="http://sodipodi.sourceforge.net/DTD/sodipodi-0.dtd"
   xmlns="http://www.w3.org/2000/svg"
   xmlns:svg="http://www.w3.org/2000/svg">
  <sodipodi:namedview
     id="namedview5"
     pagecolor="#ffffff"
     bordercolor="#000000"
     borderopacity="0.25"
     inkscape:showpageshadow="2"
     inkscape:pageopacity="0.0"
     inkscape:pagecheckerboard="0"
     inkscape:deskcolor="#d1d1d1"
     inkscape:zoom="27.375"
     inkscape:cx="12"
     inkscape:cy="12"
     inkscape:window-width="1920"
     inkscape:window-height="1129"
     inkscape:window-x="-8"
     inkscape:window-y="-8"
     inkscape:window-maximized="1"
     inkscape:current-layer="svg5"
     showgrid="false" />
  <defs
     id="defs2">
    <radialGradient
       id="radial-pattern-0"
       gradientUnits="userSpaceOnUse"
       cx="96.169754"
       cy="94.547119"
       fx="96.169754"
       fy="94.547119"
       r="10.35"
       gradientTransform="matrix(0, 1.649721, -1.420822, 0.00000407673, 232.613815, -62.903522)">
      <stop
         offset="0"
         stop-color="rgb(100%, 100%, 100%)"
         stop-opacity="1"
         id="stop1"
         style="stop-color:#f0f0f0;stop-opacity:1;" />
      <stop
         offset="1"
         stop-color="rgb(83.137255%, 33.333333%, 0%)"
         stop-opacity="1"
         id="stop2"
         style="stop-color:#e5840c;stop-opacity:1;" />
    </radialGradient>
  </defs>
  <path
     fill-rule="nonzero"
     fill="url(#radial-pattern-0)"
     stroke-width="0.7"
     stroke-linecap="butt"
     stroke-linejoin="miter"
     stroke="rgb(66.666667%, 26.666667%, 0%)"
     stroke-opacity="1"
     stroke-miterlimit="4"
     d="M 112.224358 102.224749 C 112.224358 107.749033 107.749033 112.224358 102.224749 112.224358 C 96.700465 112.224358 92.225139 107.749033 92.225139 102.224749 C 92.225139 96.700465 96.700465 92.225139 102.224749 92.225139 C 107.749033 92.225139 112.224358 96.700465 112.224358 102.224749 Z M 112.224358 102.224749 "
     id="path3"
     style="stroke:#b2670c;stroke-opacity:1"
     transform="matrix(1.132075, 0, 0, 1.132075, -103.726126, -103.726126)" />
  <path
     fill-rule="nonzero"
     fill="#ffffff"
     fill-opacity="1"
     d="m 4.567126,16.304688 c -0.652344,0 -1.160157,-0.175782 -1.527344,-0.53125 C 2.672594,15.417969 2.489,14.914062 2.489,14.269531 c 0,-0.699219 0.226563,-1.230469 0.679688,-1.597656 0.460938,-0.367187 1.121094,-0.550781 1.984375,-0.5625 l 1.457031,-0.02344 v -0.34375 c 0,-0.441407 -0.078125,-0.765626 -0.230468,-0.980469 C 6.223376,10.546875 5.973376,10.4375 5.621813,10.4375 c -0.324219,0 -0.5625,0.07422 -0.714844,0.226562 -0.152343,0.144532 -0.246093,0.386719 -0.28125,0.730469 L 2.797594,11.304688 C 2.906969,10.648438 3.20775,10.152344 3.696032,9.8125 c 0.488281,-0.339844 1.15625,-0.511719 2,-0.511719 0.855468,0 1.511718,0.210938 1.972656,0.632813 C 8.129626,10.351562 8.364,10.949219 8.364,11.722656 v 2.460938 c 0,0.378906 0.039063,0.640625 0.121094,0.785156 0.089844,0.140625 0.234375,0.210938 0.433594,0.210938 0.132812,0 0.261719,-0.01172 0.386719,-0.03516 v 0.949219 c -0.105469,0.02344 -0.199219,0.04687 -0.28125,0.06641 -0.082031,0.01953 -0.167969,0.03906 -0.25,0.05078 -0.082031,0.01172 -0.171875,0.02344 -0.269531,0.03125 -0.089844,0.0078 -0.199219,0.01172 -0.324219,0.01172 -0.441407,0 -0.765625,-0.109375 -0.980469,-0.324218 C 6.992907,15.714844 6.867907,15.394531 6.828844,14.976562 H 6.789782 c -0.492188,0.882813 -1.230469,1.328126 -2.222656,1.328126 z m 2.042968,-3.25 -0.898437,0.01172 c -0.410157,0.01563 -0.699219,0.0625 -0.867188,0.136719 -0.171875,0.07031 -0.304687,0.179687 -0.394531,0.332031 -0.085938,0.148438 -0.132812,0.347656 -0.132812,0.597656 0,0.320313 0.074218,0.558594 0.21875,0.71875 0.152343,0.152344 0.347656,0.230469 0.59375,0.230469 0.273437,0 0.523437,-0.07422 0.75,-0.226562 0.226562,-0.14844 0.40625,-0.355471 0.535156,-0.61719 0.128906,-0.265625 0.195312,-0.546875 0.195312,-0.84375 z m 9.894532,-0.277344 c 0,1.117187 -0.222657,1.984375 -0.671876,2.601562 -0.445312,0.617188 -1.085937,0.925782 -1.917968,0.925782 -0.476563,0 -0.890625,-0.105469 -1.242188,-0.3125 -0.347656,-0.207032 -0.617187,-0.507813 -0.804687,-0.898438 h -0.01172 c 0,0.144531 -0.01172,0.34375 -0.03125,0.597656 -0.01563,0.253906 -0.03516,0.417969 -0.05469,0.488282 h -1.703121 c 0.03125,-0.386719 0.04687,-0.902344 0.04687,-1.542969 v -7.71875 h 1.753907 v 2.585937 l -0.02344,1.097656 h 0.02344 c 0.394531,-0.867187 1.117187,-1.296874 2.160156,-1.296874 0.800781,0 1.410156,0.300781 1.835937,0.910156 0.425782,0.601562 0.640626,1.457031 0.640626,2.5625 z m -1.828126,0 c 0,-0.765625 -0.113281,-1.332032 -0.335937,-1.703125 -0.226563,-0.371094 -0.574219,-0.554688 -1.042969,-0.554688 -0.472656,0 -0.835937,0.199219 -1.085937,0.597657 -0.246094,0.398437 -0.367188,0.96875 -0.367188,1.71875 0,0.714843 0.121094,1.273437 0.363281,1.671874 0.242188,0.398438 0.605469,0.597657 1.078126,0.597657 0.925781,0 1.390624,-0.773438 1.390624,-2.328125 z m 0,0"
     id="path4" />
  <path
     fill-rule="nonzero"
     fill="rgb(100%, 100%, 100%)"
     fill-opacity="1"
     d="M 19.074219 16.808594 L 20.554688 16.808594 L 20.554688 17.636719 L 16.007812 17.636719 L 16.007812 16.808594 L 17.488281 16.808594 L 17.488281 6.824219 L 16.007812 6.824219 L 16.007812 5.992188 L 20.554688 5.992188 L 20.554688 6.824219 L 19.074219 6.824219 Z M 19.074219 16.808594 "
     id="path5" />
</svg>
