<?xml version="1.0" encoding="UTF-8" standalone="no"?>
<svg
   width="24"
   height="24"
   viewBox="0 0 24 24"
   version="1.1"
   id="svg5"
   sodipodi:docname="status_error.svg"
   inkscape:version="1.4.3 (0d15f75, 2025-12-25)"
   xmlns:inkscape="http://www.inkscape.org/namespaces/inkscape"
   xmlns:sodipodi="http://sodipodi.sourceforge.net/DTD/sodipodi-0.dtd"
   xmlns="http://www.w3.org/2000/svg"
   xmlns:svg="http://www.w3.org/2000/svg">
  <sodipodi:namedview
     id="namedview5"
     pagecolor="#ffffff"
     bordercolor="#000000"
     borderopacity="0.25"
     inkscape:showpageshadow="2"
     inkscape:pageopacity="0.0"
     inkscape:pagecheckerboard="0"
     inkscape:deskcolor="#d1d1d1"
     inkscape:zoom="27.375"
     inkscape:cx="12"
     inkscape:cy="12"
     inkscape:window-width="1920"
     inkscape:window-height="1129"
     inkscape:window-x="-8"
     inkscape:window-y="-8"
     inkscape:window-maximized="1"
     inkscape:current-layer="svg5" />
  <defs
     id="defs2">
    <radialGradient
       id="radial-pattern-0"
       gradientUnits="userSpaceOnUse"
       cx="96.169754"
       cy="94.547119"
       fx="96.169754"
       fy="94.547119"
       r="10.35"
       gradientTransform="matrix(0.0347387, 1.562945, -1.420471, 0.0315759, 229.239822, -57.54332)">
      <stop
         offset="0"
         stop-color="rgb(100%, 100%, 100%)"
         stop-opacity="1"
         id="stop1"
         style="stop-color:#f0f0f0;stop-opacity:1;" />
      <stop
         offset="1"
         stop-color="rgb(100%, 0%, 0%)"
         stop-opacity="0"
         id="stop2" />
    </radialGradient>
  </defs>
  <path
     fill-rule="nonzero"
     fill="#ff0000"
     fill-opacity="0.976471"
     stroke-width="0.7"
     stroke-linecap="butt"
     stroke-linejoin="miter"
     stroke="#800000"
     stroke-opacity="1"
     stroke-miterlimit="4"
     d="m 112.22436,102.22475 c 0,5.52428 -4.47533,9.99961 -9.99961,9.99961 -5.524285,0 -9.999611,-4.47533 -9.999611,-9.99961 0,-5.524285 4.475326,-9.999611 9.999611,-9.999611 5.52428,0 9.99961,4.475326 9.99961,9.999611 z m 0,0"
     transform="matrix(1.132075,0,0,1.132075,-103.72613,-103.72613)"
     id="path2"
     style="display:inline" />
  <path
     fill-rule="nonzero"
     fill="url(#radial-pattern-0)"
     stroke-width="0.7"
     stroke-linecap="butt"
     stroke-linejoin="miter"
     stroke="#d40000"
     stroke-opacity="1"
     stroke-miterlimit="4"
     d="m 112.22436,102.22475 c 0,5.52428 -4.47533,9.99961 -9.99961,9.99961 -5.524285,0 -9.999611,-4.47533 -9.999611,-9.99961 0,-5.524285 4.475326,-9.999611 9.999611,-9.999611 5.52428,0 9.99961,4.475326 9.99961,9.999611 z m 0,0"
     transform="matrix(1.132075,0,0,1.132075,-103.72613,-103.72613)"
     id="path3"
     style="display:inline" />
  <path
     fill="none"
     stroke-width="0.5"
     stroke-linecap="round"
     stroke-linejoin="miter"
     stroke="#ffffff"
     stroke-opacity="1"
     stroke-miterlimit="4"
     d="m 103.45659,104.43653 h -2.37051 l -0.49343,-9.519985 h 3.35736 z m -2.90534,3.20209 c 0,-0.6073 0.16562,-1.03516 0.49342,-1.2836 0.34505,-0.25189 0.75221,-0.3761 1.22494,-0.3761 0.46237,0 0.85573,0.12421 1.18698,0.3761 0.3416,0.24844 0.51412,0.6763 0.51412,1.2836 0,0.57968 -0.17252,1.00065 -0.51412,1.26289 -0.33125,0.25189 -0.72461,0.3761 -1.18698,0.3761 -0.47273,0 -0.87989,-0.12421 -1.22494,-0.3761 -0.3278,-0.26224 -0.49342,-0.68321 -0.49342,-1.26289 z m 0,0"
     transform="matrix(1.132075,0,0,1.132075,-103.72613,-103.72613)"
     id="path4"
     style="display:inline" />
  <path
     fill-rule="nonzero"
     fill="#ffffff"
     fill-opacity="0.976471"
     d="M 13.394531,14.503906 H 10.710938 L 10.152344,3.726562 h 3.800781 z m -3.289062,3.625 c 0,-0.6875 0.1875,-1.171875 0.558593,-1.453125 C 11.054688,16.390625 11.515625,16.25 12.050781,16.25 c 0.523438,0 0.96875,0.140625 1.34375,0.425781 0.386719,0.28125 0.582031,0.765625 0.582031,1.453125 0,0.65625 -0.195312,1.132813 -0.582031,1.429688 -0.375,0.285156 -0.820312,0.425781 -1.34375,0.425781 -0.535156,0 -0.996093,-0.140625 -1.386719,-0.425781 -0.371093,-0.296875 -0.558593,-0.773438 -0.558593,-1.429688 z m 0,0"
     id="path5"
     style="display:inline" />
</svg>
