<?xml version="1.0" encoding="UTF-8" standalone="no"?>
<svg
   width="80"
   height="40"
   viewBox="0 0 80.000003 40"
   version="1.1"
   id="svg2"
   sodipodi:docname="hd.svg"
   inkscape:version="1.4.3 (0d15f75042, 2025-12-25)"
   xmlns:inkscape="http://www.inkscape.org/namespaces/inkscape"
   xmlns:sodipodi="http://sodipodi.sourceforge.net/DTD/sodipodi-0.dtd"
   xmlns="http://www.w3.org/2000/svg"
   xmlns:svg="http://www.w3.org/2000/svg">
  <defs
     id="defs2" />
  <sodipodi:namedview
     id="namedview2"
     pagecolor="#ffffff"
     bordercolor="#999999"
     borderopacity="1"
     inkscape:showpageshadow="2"
     inkscape:pageopacity="0"
     inkscape:pagecheckerboard="0"
     inkscape:deskcolor="#d1d1d1"
     inkscape:zoom="5.5040461"
     inkscape:cx="24.345726"
     inkscape:cy="44.96692"
     inkscape:window-width="1920"
     inkscape:window-height="1172"
     inkscape:window-x="0"
     inkscape:window-y="0"
     inkscape:window-maximized="1"
     inkscape:current-layer="g2" />
  <g
     id="g2">
    <path
       fill-rule="nonzero"
       fill="#000000"
       fill-opacity="1"
       d="m 31.902344,2.679688 -1.9375,12 H 16.710938 l 2.03125,-12 H 8.582031 L 2.679688,37.320312 h 10.160156 l 2.417968,-14.125 h 13.257813 l -2.421875,14.125 H 36.160156 L 42.0625,2.679688 Z m 34.445312,0 H 46.996094 l -1.355469,8.03125 h 19.0625 c 3.484375,0 4.9375,0.96875 4.164063,5.417968 l -1.164063,7.257813 c -0.675781,3.675781 -2.417969,5.902343 -6.191406,5.902343 H 52.707031 L 55.125,14.679688 H 44.964844 l -3.773438,22.640624 h 20.609375 c 10.546875,0 14.707031,-4.449218 16.257813,-13.933593 l 1.257812,-7.257813 C 80.960938,6.355469 76.898438,2.679688 66.347656,2.679688 Z m 0,0"
       id="path1" />
    <path
       fill-rule="nonzero"
       fill="#b3b3b3"
       fill-opacity="1"
       d="M 30.195312,1.707031 28.261719,13.703125 H 15.003906 L 17.035156,1.707031 H 6.875 L 0.972656,36.347656 H 11.132812 L 13.550781,22.21875 h 13.257813 l -2.417969,14.128906 h 10.0625 L 40.355469,1.707031 Z m 34.449219,0 H 45.289062 L 43.9375,9.738281 H 63 c 3.480469,0 4.933594,0.964844 4.160156,5.417969 L 66,22.414062 c -0.679688,3.675782 -2.421875,5.902344 -6.195312,5.902344 H 51 L 53.417969,13.703125 H 43.257812 L 39.484375,36.347656 H 60.09375 c 10.550781,0 14.710938,-4.449218 16.257812,-13.933594 L 77.609375,15.15625 C 79.253906,5.382812 75.191406,1.707031 64.644531,1.707031 Z m 0,0"
       id="path2" />
  </g>
</svg>
