<?xml version="1.0" encoding="UTF-8" standalone="no"?>
<svg
   width="24"
   height="24"
   viewBox="0 0 24 24"
   version="1.1"
   id="svg2"
   sodipodi:docname="icon_overlay_plus.svg"
   inkscape:version="1.4.3 (0d15f75042, 2025-12-25)"
   xmlns:inkscape="http://www.inkscape.org/namespaces/inkscape"
   xmlns:sodipodi="http://sodipodi.sourceforge.net/DTD/sodipodi-0.dtd"
   xmlns="http://www.w3.org/2000/svg"
   xmlns:svg="http://www.w3.org/2000/svg">
  <defs
     id="defs2" />
  <sodipodi:namedview
     id="namedview2"
     pagecolor="#ffffff"
     bordercolor="#999999"
     borderopacity="1"
     inkscape:showpageshadow="2"
     inkscape:pageopacity="0"
     inkscape:pagecheckerboard="0"
     inkscape:deskcolor="#d1d1d1"
     inkscape:zoom="38.375"
     inkscape:cx="12.013029"
     inkscape:cy="12"
     inkscape:window-width="1920"
     inkscape:window-height="1172"
     inkscape:window-x="0"
     inkscape:window-y="0"
     inkscape:window-maximized="1"
     inkscape:current-layer="svg2" />
  <path
     id="path1"
     style="baseline-shift:baseline;display:inline;overflow:visible;opacity:1;vector-effect:none;stroke-width:0.566037;stroke-linecap:round;stroke-linejoin:round;enable-background:accumulate;stop-color:#000000;stop-opacity:1"
     d="M 11.345706,6.5673832 A 0.42457058,0.42457058 0 0 0 10.920901,6.9921881 V 10.913089 H 7.0000011 a 0.42457058,0.42457058 0 0 0 -0.4248049,0.4248 v 1.324222 a 0.42457058,0.42457058 0 0 0 0.4248049,0.424806 h 3.9208999 v 3.920896 a 0.42457058,0.42457058 0 0 0 0.424805,0.424805 H 12.6543 a 0.42457058,0.42457058 0 0 0 0.4248,-0.424805 v -3.920896 h 3.920902 a 0.42457058,0.42457058 0 0 0 0.424806,-0.424806 v -1.324222 a 0.42457058,0.42457058 0 0 0 -0.424806,-0.4248 H 13.0791 V 6.9921881 A 0.42457058,0.42457058 0 0 0 12.6543,6.5673832 Z" />
</svg>
