<?xml version="1.0" encoding="UTF-8" standalone="no"?>
<svg
   width="24"
   height="24"
   viewBox="0 0 24 24"
   version="1.1"
   id="svg4"
   sodipodi:docname="imdb2.svg"
   inkscape:version="1.4.3 (0d15f75, 2025-12-25)"
   xmlns:inkscape="http://www.inkscape.org/namespaces/inkscape"
   xmlns:sodipodi="http://sodipodi.sourceforge.net/DTD/sodipodi-0.dtd"
   xmlns="http://www.w3.org/2000/svg"
   xmlns:svg="http://www.w3.org/2000/svg">
  <sodipodi:namedview
     id="namedview4"
     pagecolor="#ffffff"
     bordercolor="#000000"
     borderopacity="0.25"
     inkscape:showpageshadow="2"
     inkscape:pageopacity="0.0"
     inkscape:pagecheckerboard="0"
     inkscape:deskcolor="#d1d1d1"
     inkscape:zoom="27.375"
     inkscape:cx="12"
     inkscape:cy="12"
     inkscape:window-width="1920"
     inkscape:window-height="1129"
     inkscape:window-x="-8"
     inkscape:window-y="-8"
     inkscape:window-maximized="1"
     inkscape:current-layer="svg4" />
  <defs
     id="defs2">
    <radialGradient
       id="radial-pattern-0"
       gradientUnits="userSpaceOnUse"
       cx="96.169754"
       cy="94.547119"
       fx="96.169754"
       fy="94.547119"
       r="10.35"
       gradientTransform="matrix(0, 1.629039, -1.420822, 0.0000040259, 232.613815, -60.914516)">
      <stop
         offset="0"
         stop-color="rgb(100%, 100%, 100%)"
         stop-opacity="1"
         id="stop1"
         style="stop-color:#f0f0f0;stop-opacity:1;" />
      <stop
         offset="1"
         stop-color="rgb(100%, 83.137255%, 16.470588%)"
         stop-opacity="1"
         id="stop2" />
    </radialGradient>
  </defs>
  <path
     fill-rule="nonzero"
     fill="url(#radial-pattern-0)"
     stroke-width="0.7"
     stroke-linecap="butt"
     stroke-linejoin="miter"
     stroke="rgb(83.137255%, 66.666667%, 0%)"
     stroke-opacity="1"
     stroke-miterlimit="4"
     d="M 112.224358 102.224749 C 112.224358 107.749033 107.749033 112.224358 102.224749 112.224358 C 96.700465 112.224358 92.225139 107.749033 92.225139 102.224749 C 92.225139 96.700465 96.700465 92.225139 102.224749 92.225139 C 107.749033 92.225139 112.224358 96.700465 112.224358 102.224749 Z M 112.224358 102.224749 "
     transform="matrix(1.132075, 0, 0, 1.132075, -103.726126, -103.726126)"
     id="path3" />
  <path
     fill-rule="nonzero"
     fill="rgb(0%, 0%, 0%)"
     fill-opacity="0.976471"
     stroke-width="0.6"
     stroke-linecap="butt"
     stroke-linejoin="miter"
     stroke="rgb(0%, 0%, 0%)"
     stroke-opacity="1"
     stroke-miterlimit="4"
     d="M 94.271298 104.747079 L 94.271298 99.892196 L 94.926897 99.892196 L 94.926897 104.747079 Z M 100.285556 104.747079 L 100.285556 101.50704 C 100.285556 101.148186 100.295907 100.806584 100.316611 100.475334 C 100.202743 100.885946 100.102678 101.206845 100.012965 101.43803 L 98.760426 104.747079 L 98.298056 104.747079 L 97.024814 101.43803 L 96.831584 100.854892 L 96.721168 100.475334 L 96.731519 100.858342 L 96.741871 101.50704 L 96.741871 104.747079 L 96.158733 104.747079 L 96.158733 99.892196 L 97.021363 99.892196 L 98.315308 103.259905 C 98.360165 103.394475 98.405022 103.539397 98.446428 103.694671 C 98.487834 103.849944 98.518889 103.960361 98.532691 104.029371 C 98.549944 103.939658 98.5879 103.798186 98.646558 103.611858 C 98.705217 103.42553 98.746623 103.308212 98.767327 103.259905 L 100.033668 99.892196 L 100.879045 99.892196 L 100.879045 104.747079 Z M 106.213551 102.269605 C 106.213551 102.769931 106.116936 103.208147 105.920257 103.584254 C 105.727027 103.960361 105.450986 104.246754 105.092132 104.446884 C 104.733277 104.647014 104.319215 104.747079 103.849944 104.747079 L 102.03497 104.747079 L 102.03497 99.892196 L 103.639462 99.892196 C 104.464137 99.892196 105.095582 100.099228 105.540699 100.51329 C 105.989267 100.923902 106.213551 101.510491 106.213551 102.269605 Z M 105.551051 102.269605 C 105.551051 101.669215 105.388876 101.210295 105.057626 100.896298 C 104.729827 100.57885 104.250204 100.420126 103.62566 100.420126 L 102.694019 100.420126 L 102.694019 104.21915 L 103.774033 104.21915 C 104.129436 104.21915 104.443434 104.139788 104.712574 103.984514 C 104.981715 103.829241 105.192197 103.604957 105.337119 103.311663 C 105.48204 103.014918 105.551051 102.669866 105.551051 102.269605 Z M 110.178199 102.866546 C 110.178199 104.163941 109.722731 104.81609 108.808343 104.81609 C 108.5254 104.81609 108.290764 104.764332 108.100986 104.664267 C 107.914658 104.560751 107.762835 104.395126 107.648968 104.167392 L 107.638616 104.167392 C 107.638616 104.239853 107.635165 104.346819 107.624814 104.495191 C 107.617913 104.640113 107.611012 104.722926 107.604111 104.747079 L 107.007171 104.747079 C 107.020973 104.622861 107.027874 104.367522 107.027874 103.977613 L 107.027874 99.633407 L 107.645517 99.633407 L 107.645517 101.092978 C 107.645517 101.24135 107.642067 101.417327 107.631715 101.617457 L 107.645517 101.617457 C 107.762835 101.379371 107.914658 101.206845 108.100986 101.10678 C 108.294215 101.003264 108.52885 100.951506 108.808343 100.951506 C 109.277613 100.951506 109.626116 101.11023 109.843499 101.424228 C 110.067783 101.741676 110.178199 102.221298 110.178199 102.866546 Z M 109.529501 102.887249 C 109.529501 102.36622 109.460491 101.990113 109.32247 101.765829 C 109.184449 101.541545 108.960166 101.427678 108.649619 101.427678 C 108.301116 101.427678 108.045777 101.548447 107.883603 101.786532 C 107.724879 102.024618 107.648968 102.404176 107.648968 102.925204 C 107.648968 103.411728 107.724879 103.774033 107.880152 104.008668 C 108.038876 104.239853 108.290764 104.357171 108.642718 104.357171 C 108.956715 104.357171 109.180999 104.243303 109.31902 104.012118 C 109.457041 103.780934 109.529501 103.404827 109.529501 102.887249 Z M 109.529501 102.887249 "
     transform="matrix(1.132075, 0, 0, 1.132075, -103.726126, -103.726126)"
     id="path4" />
</svg>
