<?xml version="1.0" encoding="UTF-8" standalone="no"?>
<svg
   width="24"
   height="24"
   viewBox="0 0 24 24"
   version="1.1"
   id="svg4"
   sodipodi:docname="imdb.svg"
   inkscape:version="1.4.3 (0d15f75, 2025-12-25)"
   xmlns:inkscape="http://www.inkscape.org/namespaces/inkscape"
   xmlns:sodipodi="http://sodipodi.sourceforge.net/DTD/sodipodi-0.dtd"
   xmlns="http://www.w3.org/2000/svg"
   xmlns:svg="http://www.w3.org/2000/svg">
  <sodipodi:namedview
     id="namedview4"
     pagecolor="#ffffff"
     bordercolor="#000000"
     borderopacity="0.25"
     inkscape:showpageshadow="2"
     inkscape:pageopacity="0.0"
     inkscape:pagecheckerboard="0"
     inkscape:deskcolor="#d1d1d1"
     inkscape:zoom="27.375"
     inkscape:cx="12"
     inkscape:cy="12"
     inkscape:window-width="1920"
     inkscape:window-height="1129"
     inkscape:window-x="-8"
     inkscape:window-y="-8"
     inkscape:window-maximized="1"
     inkscape:current-layer="svg4" />
  <defs
     id="defs2">
    <radialGradient
       id="radial-pattern-0"
       gradientUnits="userSpaceOnUse"
       cx="96.169754"
       cy="94.547119"
       fx="96.169754"
       fy="94.547119"
       r="10.35"
       gradientTransform="matrix(0, 1.645562, -1.420822, 0.00000406673, 232.613815, -62.503555)">
      <stop
         offset="0"
         stop-color="rgb(100%, 100%, 100%)"
         stop-opacity="1"
         id="stop1"
         style="stop-color:#f0f0f0;stop-opacity:1;" />
      <stop
         offset="1"
         stop-color="rgb(0%, 50.196078%, 50.196078%)"
         stop-opacity="1"
         id="stop2" />
    </radialGradient>
  </defs>
  <path
     fill-rule="nonzero"
     fill="url(#radial-pattern-0)"
     stroke-width="0.7"
     stroke-linecap="butt"
     stroke-linejoin="miter"
     stroke="rgb(0%, 50.196078%, 0%)"
     stroke-opacity="1"
     stroke-miterlimit="4"
     d="M 112.224358 102.224749 C 112.224358 107.749033 107.749033 112.224358 102.224749 112.224358 C 96.700465 112.224358 92.225139 107.749033 92.225139 102.224749 C 92.225139 96.700465 96.700465 92.225139 102.224749 92.225139 C 107.749033 92.225139 112.224358 96.700465 112.224358 102.224749 Z M 112.224358 102.224749 "
     transform="matrix(1.132075, 0, 0, 1.132075, -103.726126, -103.726126)"
     id="path3"
     style="stroke:#005c5c;stroke-opacity:1" />
  <path
     fill-rule="nonzero"
     fill="rgb(100%, 100%, 100%)"
     fill-opacity="1"
     d="M 12.136719 5.773438 C 12.136719 6.703125 12.839844 7.332031 13.707031 7.332031 C 14.574219 7.332031 15.277344 6.703125 15.277344 5.773438 C 15.277344 4.839844 14.574219 4.210938 13.707031 4.210938 C 12.839844 4.210938 12.136719 4.839844 12.136719 5.773438 Z M 8.738281 11.101562 C 8.738281 11.285156 8.703125 11.746094 8.742188 12.019531 L 10.109375 10.371094 C 10.394531 10.0625 10.722656 9.84375 10.890625 9.902344 C 11.058594 9.960938 11.148438 10.15625 11.09375 10.339844 L 8.828125 17.851562 C 8.566406 18.730469 9.058594 19.59375 10.261719 19.789062 C 12.027344 19.789062 13.074219 18.597656 14.101562 17.050781 C 14.101562 16.867188 14.164062 16.378906 14.128906 16.105469 L 12.757812 17.753906 C 12.472656 18.0625 12.121094 18.28125 11.953125 18.222656 C 11.796875 18.167969 11.707031 17.996094 11.738281 17.824219 L 14.023438 10.277344 C 14.210938 9.320312 13.695312 8.445312 12.605469 8.335938 C 11.457031 8.335938 9.765625 9.554688 8.734375 11.101562 Z M 8.738281 11.101562 "
     id="path4" />
</svg>
