<?xml version="1.0" encoding="UTF-8"?>
<svg xmlns="http://www.w3.org/2000/svg" xmlns:xlink="http://www.w3.org/1999/xlink" width="24" height="24" viewBox="0 0 24 24">
<defs>
<radialGradient id="radial-pattern-0" gradientUnits="userSpaceOnUse" cx="44.508141" cy="153.672699" fx="44.508141" fy="153.672699" r="199.262497" gradientTransform="matrix(-0.00000717553, 0.135141, -0.131419, 0.00000000777432, 27.728783, -1.342943)">
<stop offset="0" stop-color="rgb(100%, 100%, 100%)" stop-opacity="1"/>
<stop offset="1" stop-color="rgb(0%, 0%, 0%)" stop-opacity="0"/>
</radialGradient>
</defs>
<path fill-rule="nonzero" fill="rgb(0%, 0%, 0%)" fill-opacity="1" d="M 10.046875 0.21875 L 0.820312 16.199219 L 13.953125 23.78125 L 23.179688 7.800781 Z M 20.746094 9.726562 L 19.429688 8.96875 L 20.300781 7.457031 L 21.621094 8.21875 Z M 9.886719 8.109375 L 16.425781 11.882812 L 14.113281 15.894531 L 7.570312 12.117188 Z M 17 10.894531 L 10.457031 7.117188 L 12.773438 3.109375 L 19.3125 6.886719 Z M 9.46875 6.546875 L 8.152344 5.789062 L 9.023438 4.277344 L 10.339844 5.039062 Z M 8.898438 7.535156 L 8.027344 9.046875 L 6.707031 8.285156 L 7.582031 6.777344 Z M 7.457031 10.035156 L 6.582031 11.546875 L 5.265625 10.785156 L 6.136719 9.273438 Z M 6.011719 12.535156 L 5.140625 14.042969 L 3.824219 13.28125 L 4.695312 11.773438 Z M 7 13.105469 L 13.542969 16.882812 L 11.226562 20.890625 L 4.6875 17.113281 Z M 14.53125 17.453125 L 15.847656 18.210938 L 14.976562 19.722656 L 13.660156 18.960938 Z M 15.101562 16.464844 L 15.972656 14.953125 L 17.292969 15.714844 L 16.417969 17.222656 Z M 16.542969 13.964844 L 17.417969 12.453125 L 18.734375 13.214844 L 17.863281 14.726562 Z M 17.988281 11.464844 L 18.859375 9.957031 L 20.175781 10.71875 L 19.304688 12.226562 Z M 11.785156 2.539062 L 10.910156 4.050781 L 9.59375 3.289062 L 10.464844 1.777344 Z M 3.253906 14.273438 L 4.570312 15.03125 L 3.699219 16.542969 L 2.378906 15.78125 Z M 12.214844 21.460938 L 13.089844 19.949219 L 14.40625 20.710938 L 13.535156 22.222656 Z M 12.214844 21.460938 "/>
<path fill-rule="nonzero" fill="url(#radial-pattern-0)" d="M 10.046875 0.21875 L 0.820312 16.199219 L 13.953125 23.78125 L 23.179688 7.800781 Z M 20.746094 9.726562 L 19.429688 8.96875 L 20.300781 7.457031 L 21.621094 8.21875 Z M 9.886719 8.109375 L 16.425781 11.882812 L 14.113281 15.894531 L 7.570312 12.117188 Z M 17 10.894531 L 10.457031 7.117188 L 12.773438 3.109375 L 19.3125 6.886719 Z M 9.46875 6.546875 L 8.152344 5.789062 L 9.023438 4.277344 L 10.339844 5.039062 Z M 8.898438 7.535156 L 8.027344 9.046875 L 6.707031 8.285156 L 7.582031 6.777344 Z M 7.457031 10.035156 L 6.582031 11.546875 L 5.265625 10.785156 L 6.136719 9.273438 Z M 6.011719 12.535156 L 5.140625 14.042969 L 3.824219 13.28125 L 4.695312 11.773438 Z M 7 13.105469 L 13.542969 16.882812 L 11.226562 20.890625 L 4.6875 17.113281 Z M 14.53125 17.453125 L 15.847656 18.210938 L 14.976562 19.722656 L 13.660156 18.960938 Z M 15.101562 16.464844 L 15.972656 14.953125 L 17.292969 15.714844 L 16.417969 17.222656 Z M 16.542969 13.964844 L 17.417969 12.453125 L 18.734375 13.214844 L 17.863281 14.726562 Z M 17.988281 11.464844 L 18.859375 9.957031 L 20.175781 10.71875 L 19.304688 12.226562 Z M 11.785156 2.539062 L 10.910156 4.050781 L 9.59375 3.289062 L 10.464844 1.777344 Z M 3.253906 14.273438 L 4.570312 15.03125 L 3.699219 16.542969 L 2.378906 15.78125 Z M 12.214844 21.460938 L 13.089844 19.949219 L 14.40625 20.710938 L 13.535156 22.222656 Z M 12.214844 21.460938 "/>
</svg>
