<?xml version="1.0" encoding="UTF-8" standalone="no"?>
<svg
   width="24"
   height="24"
   viewBox="0 0 24 24"
   version="1.1"
   id="svg15"
   sodipodi:docname="pause.svg"
   inkscape:version="1.4.3 (0d15f75, 2025-12-25)"
   xmlns:inkscape="http://www.inkscape.org/namespaces/inkscape"
   xmlns:sodipodi="http://sodipodi.sourceforge.net/DTD/sodipodi-0.dtd"
   xmlns="http://www.w3.org/2000/svg"
   xmlns:svg="http://www.w3.org/2000/svg">
  <sodipodi:namedview
     id="namedview15"
     pagecolor="#ffffff"
     bordercolor="#000000"
     borderopacity="0.25"
     inkscape:showpageshadow="2"
     inkscape:pageopacity="0.0"
     inkscape:pagecheckerboard="0"
     inkscape:deskcolor="#d1d1d1"
     inkscape:zoom="27.375"
     inkscape:cx="12"
     inkscape:cy="12"
     inkscape:window-width="1920"
     inkscape:window-height="1129"
     inkscape:window-x="-8"
     inkscape:window-y="-8"
     inkscape:window-maximized="1"
     inkscape:current-layer="svg15" />
  <defs
     id="defs6">
    <radialGradient
       id="radial-pattern-0"
       gradientUnits="userSpaceOnUse"
       cx="-30.033142"
       cy="18.68874"
       fx="-30.033142"
       fy="18.68874"
       r="50"
       gradientTransform="matrix(0, 0.917326, -0.874246, 0.000000277877, 23.871476, 32.222096)">
      <stop
         offset="0"
         stop-color="rgb(100%, 100%, 100%)"
         stop-opacity="1"
         id="stop1"
         style="stop-color:#f0f0f0;stop-opacity:1;" />
      <stop
         offset="1"
         stop-color="rgb(0%, 0%, 0%)"
         stop-opacity="0"
         id="stop2" />
    </radialGradient>
    <radialGradient
       id="radial-pattern-1"
       gradientUnits="userSpaceOnUse"
       cx="98.278954"
       cy="99.833374"
       fx="98.278954"
       fy="99.833374"
       r="2.205"
       gradientTransform="matrix(-0.0000400632, 6.548575, -5.414412, 0, 548.075838, -639.058783)">
      <stop
         offset="0"
         stop-color="rgb(100%, 100%, 100%)"
         stop-opacity="1"
         id="stop3"
         style="stop-color:#f0f0f0;stop-opacity:1;" />
      <stop
         offset="1"
         stop-color="rgb(0%, 0%, 100%)"
         stop-opacity="1"
         id="stop4" />
    </radialGradient>
    <radialGradient
       id="radial-pattern-2"
       gradientUnits="userSpaceOnUse"
       cx="98.278877"
       cy="99.878105"
       fx="98.278877"
       fy="99.878105"
       r="2.204999"
       gradientTransform="matrix(-0.000000595749, 6.609231, -7.878806, -0.0000717769, 794.453151, -644.868685)">
      <stop
         offset="0"
         stop-color="rgb(100%, 100%, 100%)"
         stop-opacity="1"
         id="stop5"
         style="stop-color:#f0f0f0;stop-opacity:1;" />
      <stop
         offset="1"
         stop-color="rgb(0%, 0%, 100%)"
         stop-opacity="1"
         id="stop6" />
    </radialGradient>
  </defs>
  <path
     fill-rule="nonzero"
     fill="rgb(40%, 40%, 40%)"
     fill-opacity="0.976471"
     d="M 23.761719 12 C 23.761719 18.523438 18.472656 23.808594 11.949219 23.808594 C 5.429688 23.808594 0.140625 18.523438 0.140625 12 C 0.140625 5.476562 5.429688 0.191406 11.949219 0.191406 C 18.472656 0.191406 23.761719 5.476562 23.761719 12 Z M 23.761719 12 "
     id="path6" />
  <path
     fill-rule="nonzero"
     fill="url(#radial-pattern-0)"
     d="M 23.761719 12 C 23.761719 18.523438 18.472656 23.808594 11.949219 23.808594 C 5.429688 23.808594 0.140625 18.523438 0.140625 12 C 0.140625 5.476562 5.429688 0.191406 11.949219 0.191406 C 18.472656 0.191406 23.761719 5.476562 23.761719 12 Z M 23.761719 12 "
     id="path7" />
  <path
     fill="none"
     stroke-width="0.809999"
     stroke-linecap="round"
     stroke-linejoin="round"
     stroke="rgb(0%, 0%, 50.196078%)"
     stroke-opacity="1"
     stroke-miterlimit="4"
     d="M 96.824683 96.27605 L 100.423577 96.27605 L 100.423577 107.973317 L 96.824683 107.973317 Z M 96.824683 96.27605 "
     transform="matrix(1.132075, 0, 0, 1.132075, -103.726126, -103.726126)"
     id="path8" />
  <path
     fill-rule="nonzero"
     fill="rgb(0%, 0%, 100%)"
     fill-opacity="1"
     d="M 5.886719 5.265625 L 9.960938 5.265625 L 9.960938 18.507812 L 5.886719 18.507812 Z M 5.886719 5.265625 "
     id="path9" />
  <path
     fill="none"
     stroke-width="0.809999"
     stroke-linecap="round"
     stroke-linejoin="round"
     stroke="rgb(0%, 0%, 50.196078%)"
     stroke-opacity="1"
     stroke-miterlimit="4"
     d="M 103.82579 96.27605 L 107.424684 96.27605 L 107.424684 107.973317 L 103.82579 107.973317 Z M 103.82579 96.27605 "
     transform="matrix(1.132075, 0, 0, 1.132075, -103.726126, -103.726126)"
     id="path10" />
  <path
     fill-rule="nonzero"
     fill="rgb(0%, 0%, 100%)"
     fill-opacity="1"
     d="M 13.8125 5.265625 L 17.886719 5.265625 L 17.886719 18.507812 L 13.8125 18.507812 Z M 13.8125 5.265625 "
     id="path11" />
  <path
     fill="none"
     stroke-width="0.809999"
     stroke-linecap="round"
     stroke-linejoin="round"
     stroke="rgb(0%, 0%, 50.196078%)"
     stroke-opacity="1"
     stroke-miterlimit="4"
     d="M 96.824683 96.27605 L 100.423577 96.27605 L 100.423577 107.973317 L 96.824683 107.973317 Z M 96.824683 96.27605 "
     transform="matrix(1.132075, 0, 0, 1.132075, -103.726126, -103.726126)"
     id="path12" />
  <path
     fill-rule="nonzero"
     fill="url(#radial-pattern-1)"
     d="M 5.886719 5.265625 L 9.960938 5.265625 L 9.960938 18.507812 L 5.886719 18.507812 Z M 5.886719 5.265625 "
     id="path13" />
  <path
     fill="none"
     stroke-width="0.809999"
     stroke-linecap="round"
     stroke-linejoin="round"
     stroke="rgb(0%, 0%, 50.196078%)"
     stroke-opacity="1"
     stroke-miterlimit="4"
     d="M 103.82579 96.27605 L 107.424684 96.27605 L 107.424684 107.973317 L 103.82579 107.973317 Z M 103.82579 96.27605 "
     transform="matrix(1.132075, 0, 0, 1.132075, -103.726126, -103.726126)"
     id="path14" />
  <path
     fill-rule="nonzero"
     fill="url(#radial-pattern-2)"
     d="M 13.8125 5.265625 L 17.886719 5.265625 L 17.886719 18.507812 L 13.8125 18.507812 Z M 13.8125 5.265625 "
     id="path15" />
</svg>
