<?xml version="1.0" encoding="UTF-8" standalone="no"?>
<svg
   width="24"
   height="24"
   viewBox="0 0 24 24"
   version="1.1"
   id="svg3"
   sodipodi:docname="rd.svg"
   inkscape:version="1.4.3 (0d15f75, 2025-12-25)"
   xmlns:inkscape="http://www.inkscape.org/namespaces/inkscape"
   xmlns:sodipodi="http://sodipodi.sourceforge.net/DTD/sodipodi-0.dtd"
   xmlns="http://www.w3.org/2000/svg"
   xmlns:svg="http://www.w3.org/2000/svg">
  <sodipodi:namedview
     id="namedview3"
     pagecolor="#ffffff"
     bordercolor="#000000"
     borderopacity="0.25"
     inkscape:showpageshadow="2"
     inkscape:pageopacity="0.0"
     inkscape:pagecheckerboard="0"
     inkscape:deskcolor="#d1d1d1"
     inkscape:zoom="27.375"
     inkscape:cx="12"
     inkscape:cy="12"
     inkscape:window-width="1920"
     inkscape:window-height="1129"
     inkscape:window-x="-8"
     inkscape:window-y="-8"
     inkscape:window-maximized="1"
     inkscape:current-layer="svg3" />
  <defs
     id="defs2">
    <radialGradient
       id="radial-pattern-0"
       gradientUnits="userSpaceOnUse"
       cx="98.278854"
       cy="95.667915"
       fx="98.278854"
       fy="95.667915"
       r="10.583309"
       gradientTransform="matrix(-0.000000476326, 2.293266, -1.902644, 0.0000047629, 189.554998, -220.708069)">
      <stop
         offset="0"
         stop-color="rgb(100%, 100%, 100%)"
         stop-opacity="1"
         id="stop1"
         style="stop-color:#f0f0f0;stop-opacity:1;" />
      <stop
         offset="1"
         stop-color="rgb(0%, 0%, 0%)"
         stop-opacity="1"
         id="stop2" />
    </radialGradient>
  </defs>
  <path
     fill-rule="nonzero"
     fill="rgb(0%, 0%, 0%)"
     fill-opacity="1"
     d="M 23.890625 18.183594 L 23.890625 0.171875 L 20.808594 0.835938 L 5.191406 4.34375 L 5.1875 4.34375 L 5.1875 16.644531 C 4.597656 16.558594 3.964844 16.582031 3.332031 16.742188 C 1.078125 17.300781 -0.367188 19.304688 0.109375 21.222656 C 0.582031 23.140625 2.796875 24.242188 5.050781 23.683594 C 7.304688 23.125 8.746094 21.117188 8.269531 19.203125 L 8.269531 8.550781 L 20.808594 5.710938 L 20.808594 15.628906 C 20.21875 15.539062 19.585938 15.566406 18.949219 15.722656 C 16.695312 16.28125 15.253906 18.285156 15.730469 20.203125 C 16.203125 22.121094 18.414062 23.222656 20.667969 22.664062 C 22.921875 22.105469 24.367188 20.101562 23.890625 18.183594 Z M 23.890625 18.183594 "
     id="path2" />
  <path
     fill-rule="nonzero"
     fill="url(#radial-pattern-0)"
     d="M 23.890625 18.183594 L 23.890625 0.171875 L 20.808594 0.835938 L 5.191406 4.34375 L 5.1875 4.34375 L 5.1875 16.644531 C 4.597656 16.558594 3.964844 16.582031 3.332031 16.742188 C 1.078125 17.300781 -0.367188 19.304688 0.109375 21.222656 C 0.582031 23.140625 2.796875 24.242188 5.050781 23.683594 C 7.304688 23.125 8.746094 21.117188 8.269531 19.203125 L 8.269531 8.550781 L 20.808594 5.710938 L 20.808594 15.628906 C 20.21875 15.539062 19.585938 15.566406 18.949219 15.722656 C 16.695312 16.28125 15.253906 18.285156 15.730469 20.203125 C 16.203125 22.121094 18.414062 23.222656 20.667969 22.664062 C 22.921875 22.105469 24.367188 20.101562 23.890625 18.183594 Z M 23.890625 18.183594 "
     id="path3" />
</svg>
