<?xml version="1.0" encoding="UTF-8" standalone="no"?>
<svg
   width="24"
   height="24"
   viewBox="0 0 24 24"
   version="1.1"
   id="svg7"
   sodipodi:docname="record_timer_inactive.svg"
   inkscape:version="1.4.3 (0d15f75, 2025-12-25)"
   xmlns:inkscape="http://www.inkscape.org/namespaces/inkscape"
   xmlns:sodipodi="http://sodipodi.sourceforge.net/DTD/sodipodi-0.dtd"
   xmlns="http://www.w3.org/2000/svg"
   xmlns:svg="http://www.w3.org/2000/svg">
  <sodipodi:namedview
     id="namedview7"
     pagecolor="#ffffff"
     bordercolor="#000000"
     borderopacity="0.25"
     inkscape:showpageshadow="2"
     inkscape:pageopacity="0.0"
     inkscape:pagecheckerboard="0"
     inkscape:deskcolor="#d1d1d1"
     inkscape:zoom="27.375"
     inkscape:cx="12"
     inkscape:cy="12"
     inkscape:window-width="1920"
     inkscape:window-height="1129"
     inkscape:window-x="-8"
     inkscape:window-y="-8"
     inkscape:window-maximized="1"
     inkscape:current-layer="svg7" />
  <defs
     id="defs4">
    <radialGradient
       id="radial-pattern-0"
       gradientUnits="userSpaceOnUse"
       cx="-29.137705"
       cy="19.157068"
       fx="-29.137705"
       fy="19.157068"
       r="50"
       gradientTransform="matrix(0, 0.932151, -0.888374, 0.000000282367, 24.113053, 32.548876)">
      <stop
         offset="0"
         stop-color="rgb(100%, 100%, 100%)"
         stop-opacity="1"
         id="stop1"
         style="stop-color:#f0f0f0;stop-opacity:1;" />
      <stop
         offset="1"
         stop-color="rgb(0%, 0%, 0%)"
         stop-opacity="0"
         id="stop2" />
    </radialGradient>
    <radialGradient
       id="radial-pattern-1"
       gradientUnits="userSpaceOnUse"
       cx="-16.97463"
       cy="25.487703"
       fx="-16.97463"
       fy="25.487703"
       r="31"
       gradientTransform="matrix(0, 0.25782, -0.289247, -0.0000000452677, 16.349843, 11.860833)">
      <stop
         offset="0"
         stop-color="rgb(100%, 100%, 100%)"
         stop-opacity="1"
         id="stop3"
         style="stop-color:#f0f0f0;stop-opacity:1;" />
      <stop
         offset="1"
         stop-color="rgb(50.196078%, 50.196078%, 50.196078%)"
         stop-opacity="1"
         id="stop4" />
    </radialGradient>
  </defs>
  <path
     fill-rule="nonzero"
     fill="rgb(0%, 0%, 0%)"
     fill-opacity="0.976471"
     d="M 24 12 C 24 18.628906 18.628906 24 12 24 C 5.371094 24 0 18.628906 0 12 C 0 5.371094 5.371094 0 12 0 C 18.628906 0 24 5.371094 24 12 Z M 24 12 "
     id="path4" />
  <path
     fill-rule="nonzero"
     fill="url(#radial-pattern-0)"
     d="M 24 12 C 24 18.628906 18.628906 24 12 24 C 5.371094 24 0 18.628906 0 12 C 0 5.371094 5.371094 0 12 0 C 18.628906 0 24 5.371094 24 12 Z M 24 12 "
     id="path5" />
  <path
     fill-rule="nonzero"
     fill="rgb(50.196078%, 50.196078%, 50.196078%)"
     fill-opacity="0.976471"
     stroke-width="4"
     stroke-linecap="butt"
     stroke-linejoin="miter"
     stroke="rgb(30.196078%, 30.196078%, 30.196078%)"
     stroke-opacity="1"
     stroke-miterlimit="4"
     d="M 31.467392 30.99098 C 31.467392 49.220147 16.688746 63.998793 -1.540421 63.998793 C -19.769587 63.998793 -34.548233 49.220147 -34.548233 30.99098 C -34.548233 12.761813 -19.769587 -2.016832 -1.540421 -2.016832 C 16.688746 -2.016832 31.467392 12.761813 31.467392 30.99098 Z M 31.467392 30.99098 "
     transform="matrix(0.24, 0, 0, 0.24, 12.369701, 4.562165)"
     id="path6" />
  <path
     fill-rule="nonzero"
     fill="url(#radial-pattern-1)"
     d="M 19.441406 12 C 19.441406 16.109375 16.109375 19.441406 12 19.441406 C 7.890625 19.441406 4.558594 16.109375 4.558594 12 C 4.558594 7.890625 7.890625 4.558594 12 4.558594 C 16.109375 4.558594 19.441406 7.890625 19.441406 12 Z M 19.441406 12 "
     id="path7" />
</svg>
