<?xml version="1.0" encoding="UTF-8" standalone="no"?>
<svg
   width="24"
   height="24"
   viewBox="0 0 24 24"
   version="1.1"
   id="svg5"
   sodipodi:docname="restore.svg"
   inkscape:version="1.4.3 (0d15f75, 2025-12-25)"
   xmlns:inkscape="http://www.inkscape.org/namespaces/inkscape"
   xmlns:sodipodi="http://sodipodi.sourceforge.net/DTD/sodipodi-0.dtd"
   xmlns="http://www.w3.org/2000/svg"
   xmlns:svg="http://www.w3.org/2000/svg">
  <sodipodi:namedview
     id="namedview5"
     pagecolor="#ffffff"
     bordercolor="#000000"
     borderopacity="0.25"
     inkscape:showpageshadow="2"
     inkscape:pageopacity="0.0"
     inkscape:pagecheckerboard="0"
     inkscape:deskcolor="#d1d1d1"
     inkscape:zoom="27.375"
     inkscape:cx="12"
     inkscape:cy="12"
     inkscape:window-width="1920"
     inkscape:window-height="1129"
     inkscape:window-x="-8"
     inkscape:window-y="-8"
     inkscape:window-maximized="1"
     inkscape:current-layer="svg5" />
  <defs
     id="defs2">
    <radialGradient
       id="radial-pattern-0"
       gradientUnits="userSpaceOnUse"
       cx="96.169754"
       cy="94.547119"
       fx="96.169754"
       fy="94.547119"
       r="10.35"
       gradientTransform="matrix(-0.0000314782, 1.251939, -1.129043, -0.0000264346, 205.029953, -24.645994)">
      <stop
         offset="0"
         stop-color="rgb(100%, 100%, 100%)"
         stop-opacity="1"
         id="stop1"
         style="stop-color:#f0f0f0;stop-opacity:1;" />
      <stop
         offset="1"
         stop-color="rgb(12.941176%, 47.058824%, 12.941176%)"
         stop-opacity="1"
         id="stop2" />
    </radialGradient>
  </defs>
  <path
     fill-rule="nonzero"
     fill="rgb(12.941176%, 47.058824%, 12.941176%)"
     fill-opacity="0.976471"
     stroke-width="0.7"
     stroke-linecap="butt"
     stroke-linejoin="miter"
     stroke="rgb(0%, 33.333333%, 0%)"
     stroke-opacity="1"
     stroke-miterlimit="4"
     d="M 112.224358 102.224749 C 112.224358 107.749033 107.749033 112.224358 102.224749 112.224358 C 96.700465 112.224358 92.225139 107.749033 92.225139 102.224749 C 92.225139 96.700465 96.700465 92.225139 102.224749 92.225139 C 107.749033 92.225139 112.224358 96.700465 112.224358 102.224749 Z M 112.224358 102.224749 "
     transform="matrix(1.132075, 0, 0, 1.132075, -103.726126, -103.726126)"
     id="path2" />
  <path
     fill-rule="nonzero"
     fill="url(#radial-pattern-0)"
     stroke-width="0.7"
     stroke-linecap="butt"
     stroke-linejoin="miter"
     stroke="#005500"
     stroke-opacity="1"
     stroke-miterlimit="4"
     d="m 112.22436,102.22475 c 0,5.52428 -4.47533,9.99961 -9.99961,9.99961 -5.524285,0 -9.999611,-4.47533 -9.999611,-9.99961 0,-5.524285 4.475326,-9.999611 9.999611,-9.999611 5.52428,0 9.99961,4.475326 9.99961,9.999611 z m 0,0"
     transform="matrix(1.132075,0,0,1.132075,-103.72613,-103.72613)"
     id="path3"
     style="display:inline" />
  <path
     fill-rule="nonzero"
     fill="rgb(100%, 100%, 100%)"
     fill-opacity="1"
     d="M 12.199219 5.804688 L 12.199219 3.910156 C 12.199219 3.816406 12.269531 3.730469 12.382812 3.6875 C 12.496094 3.640625 12.632812 3.644531 12.738281 3.699219 L 19.851562 7.222656 C 19.949219 7.269531 20.003906 7.347656 20.003906 7.433594 C 20.003906 7.515625 19.949219 7.597656 19.851562 7.640625 L 12.742188 11.164062 C 12.632812 11.21875 12.5 11.222656 12.386719 11.179688 C 12.273438 11.136719 12.203125 11.050781 12.203125 10.957031 L 12.203125 8.917969 C 11.082031 8.925781 10.160156 8.960938 9.386719 9.027344 C 5.683594 9.351562 4.695312 10.988281 4.65625 11.054688 C 4.601562 11.152344 4.476562 11.210938 4.339844 11.210938 C 4.316406 11.210938 4.292969 11.210938 4.273438 11.203125 C 4.113281 11.179688 3.996094 11.078125 3.996094 10.957031 C 3.996094 6.828125 10.65625 5.949219 12.199219 5.804688 Z M 12.199219 5.804688 "
     id="path4" />
  <path
     fill-rule="nonzero"
     fill="#ffffff"
     fill-opacity="1"
     d="m 4.148438,16.355469 7.113281,-3.523438 c 0.101562,-0.05078 0.238281,-0.05859 0.351562,-0.01563 0.113281,0.04687 0.183594,0.132813 0.183594,0.226563 v 2.035156 c 1.121094,-0.0078 2.042969,-0.03906 2.816406,-0.109375 3.699219,-0.324219 4.691407,-1.957031 4.730469,-2.027344 0.05469,-0.09375 0.179688,-0.152344 0.316406,-0.152344 0.02344,0 0.04687,0 0.06641,0.0039 0.160157,0.02344 0.277344,0.128906 0.277344,0.25 0,4.125 -6.660156,5.003906 -8.203125,5.152343 v 1.898438 c 0,0.08984 -0.07031,0.175781 -0.183593,0.222656 -0.113282,0.04297 -0.25,0.03516 -0.355469,-0.01563 l -7.113285,-3.52342 c -0.097657,-0.04687 -0.152344,-0.125 -0.152344,-0.210938 0,-0.08594 0.054687,-0.164062 0.152344,-0.210937 z m 0,0"
     id="path5"
     style="display:inline" />
</svg>
