<?xml version="1.0" encoding="UTF-8" standalone="no"?>
<svg
   width="70"
   height="40"
   viewBox="0 0 70.000002 40"
   version="1.1"
   id="svg6"
   sodipodi:docname="sd.svg"
   inkscape:version="1.4.3 (0d15f75042, 2025-12-25)"
   xmlns:inkscape="http://www.inkscape.org/namespaces/inkscape"
   xmlns:sodipodi="http://sodipodi.sourceforge.net/DTD/sodipodi-0.dtd"
   xmlns="http://www.w3.org/2000/svg"
   xmlns:svg="http://www.w3.org/2000/svg">
  <defs
     id="defs6" />
  <sodipodi:namedview
     id="namedview6"
     pagecolor="#ffffff"
     bordercolor="#999999"
     borderopacity="1"
     inkscape:showpageshadow="2"
     inkscape:pageopacity="0"
     inkscape:pagecheckerboard="0"
     inkscape:deskcolor="#d1d1d1"
     inkscape:zoom="8.1405668"
     inkscape:cx="35.439793"
     inkscape:cy="25.735309"
     inkscape:window-width="1920"
     inkscape:window-height="1172"
     inkscape:window-x="0"
     inkscape:window-y="0"
     inkscape:window-maximized="1"
     inkscape:current-layer="svg6" />
  <g
     id="g6"
     transform="matrix(1.0721353,0,0,1.0721353,0.3042779,-1.0280909)">
    <path
       fill-rule="nonzero"
       fill="#000000"
       fill-opacity="1"
       d="m 44.179688,34.710938 c 6.179687,0 10.367187,-1.140626 13.675781,-3.765626 3.550781,-2.832031 5.878906,-7.617187 5.878906,-13.121093 C 63.695312,13.628906 62.257812,10.792969 59.96875,8.890625 57.5625,6.816406 54.003906,5.800781 49.558594,5.800781 c -2.75,0 -5.460938,0.210938 -7.878906,0.632813 l -5.285157,27.773437 c 1.386719,0.25 4.355469,0.503907 7.785157,0.503907 z M 46.96875,10.875 c 0.640625,-0.121094 1.53125,-0.160156 2.582031,-0.160156 5.035157,0 7.535157,2.660156 7.535157,7.148437 0,3.429688 -1.015626,6.386719 -2.960938,8.585938 -1.867188,2.160156 -4.789062,3.351562 -8.089844,3.351562 -1.058594,0 -1.941406,-0.04687 -2.664062,-0.167969 z m 0,0"
       id="path1" />
    <path
       fill-rule="nonzero"
       fill="#000000"
       fill-opacity="1"
       d="m 18.941406,13.328125 c 0,1.84375 1.507813,3.144531 4.296875,4.574219 3.617188,1.980468 6.890625,4.703125 6.890625,8.929687 0,5.917969 -4.066406,9.636719 -9.839844,10.84375 9.636719,-0.148437 17.410157,-7.984375 17.410157,-17.660156 0,-5.277344 -2.359375,-9.960937 -6.027344,-13.199219 l -1.472656,4.128906 C 28.96875,10.269531 26.722656,9.441406 23.996094,9.441406 c -3.007813,0 -5.054688,1.640625 -5.054688,3.886719 z m 0,0"
       id="path2" />
    <path
       fill-rule="nonzero"
       fill="#000000"
       fill-opacity="1"
       d="m 8.785156,30.039062 c 1.703125,0.949219 4.976563,2.246094 7.980469,2.246094 3.207031,-0.06641 5.109375,-1.90625 5.109375,-4.089844 0,-2.113281 -1.082031,-3.414062 -4.359375,-5.113281 -3.816406,-1.980469 -6.546875,-4.84375 -6.546875,-8.660156 0,-6.410156 5.59375,-10.910156 13.433594,-10.910156 0.785156,0 1.523437,0.050781 2.234375,0.121093 -2.046875,-0.832031 -4.28125,-1.308593 -6.625,-1.308593 -9.765625,0 -17.6875,7.910156 -17.6875,17.6875 0,5.023437 2.113281,9.535156 5.484375,12.761719 z m 0,0"
       id="path3" />
    <path
       fill-rule="nonzero"
       fill="#b3b3b3"
       fill-opacity="1"
       d="m 42.84375,33.9375 c 6.179688,0 10.367188,-1.136719 13.675781,-3.765625 3.550781,-2.828125 5.878907,-7.617187 5.878907,-13.121094 -0.03906,-4.191406 -1.476563,-7.027343 -3.765626,-8.933593 -2.40625,-2.074219 -5.964843,-3.089844 -10.410156,-3.089844 -2.75,0 -5.460937,0.214844 -7.878906,0.636718 l -5.285156,27.769532 c 1.386718,0.25 4.355468,0.503906 7.785156,0.503906 z m 2.789062,-23.832031 c 0.640626,-0.121094 1.53125,-0.164063 2.582032,-0.164063 5.035156,0 7.535156,2.664063 7.535156,7.152344 0,3.429688 -1.015625,6.386719 -2.960938,8.585938 -1.867187,2.160156 -4.789062,3.347656 -8.089843,3.347656 -1.058594,0 -1.941407,-0.04297 -2.664063,-0.164063 z m 0,0"
       id="path4" />
    <path
       fill-rule="nonzero"
       fill="#b3b3b3"
       fill-opacity="1"
       d="m 17.605469,12.558594 c 0,1.84375 1.507812,3.140625 4.296875,4.574218 3.617187,1.980469 6.890625,4.699219 6.890625,8.929688 0,5.917969 -4.066407,9.636719 -9.839844,10.84375 9.636719,-0.148438 17.410156,-7.988281 17.410156,-17.660156 0,-5.277344 -2.359375,-9.960938 -6.027343,-13.203125 l -1.472657,4.128906 c -1.230469,-0.675781 -3.476562,-1.5 -6.203125,-1.5 -3.007812,0 -5.054687,1.640625 -5.054687,3.886719 z m 0,0"
       id="path5" />
    <path
       fill-rule="nonzero"
       fill="#b3b3b3"
       fill-opacity="1"
       d="m 7.449219,29.265625 c 1.703125,0.953125 4.976562,2.246094 7.980469,2.246094 3.207031,-0.0625 5.113281,-1.90625 5.113281,-4.089844 0,-2.113281 -1.085938,-3.410156 -4.363281,-5.109375 -3.816407,-1.980469 -6.546876,-4.84375 -6.546876,-8.664062 0,-6.410157 5.59375,-10.90625 13.433594,-10.90625 0.785156,0 1.523438,0.050781 2.234375,0.121093 -2.046875,-0.832031 -4.28125,-1.3125 -6.625,-1.3125 -9.765625,0 -17.6875,7.914063 -17.6875,17.691407 0,5.023437 2.113281,9.53125 5.484375,12.761718 z m 0,0"
       id="path6" />
  </g>
</svg>
