<?xml version="1.0" encoding="UTF-8" standalone="no"?>
<svg
   width="24"
   height="24"
   viewBox="0 0 24 24"
   version="1.1"
   id="svg6"
   sodipodi:docname="search.svg"
   inkscape:version="1.4.3 (0d15f75, 2025-12-25)"
   xmlns:inkscape="http://www.inkscape.org/namespaces/inkscape"
   xmlns:sodipodi="http://sodipodi.sourceforge.net/DTD/sodipodi-0.dtd"
   xmlns="http://www.w3.org/2000/svg"
   xmlns:svg="http://www.w3.org/2000/svg">
  <sodipodi:namedview
     id="namedview6"
     pagecolor="#ffffff"
     bordercolor="#000000"
     borderopacity="0.25"
     inkscape:showpageshadow="2"
     inkscape:pageopacity="0.0"
     inkscape:pagecheckerboard="0"
     inkscape:deskcolor="#d1d1d1"
     inkscape:zoom="27.375"
     inkscape:cx="12"
     inkscape:cy="12"
     inkscape:window-width="1920"
     inkscape:window-height="1129"
     inkscape:window-x="-8"
     inkscape:window-y="-8"
     inkscape:window-maximized="1"
     inkscape:current-layer="svg6" />
  <defs
     id="defs2">
    <radialGradient
       id="radial-pattern-0"
       gradientUnits="userSpaceOnUse"
       cx="96.169754"
       cy="94.547119"
       fx="96.169754"
       fy="94.547119"
       r="10.35"
       gradientTransform="matrix(0, 1.618023, -1.420822, 0.00000399868, 232.613815, -59.855137)">
      <stop
         offset="0"
         stop-color="rgb(100%, 100%, 100%)"
         stop-opacity="1"
         id="stop1"
         style="stop-color:#f0f0f0;stop-opacity:1;" />
      <stop
         offset="1"
         stop-color="rgb(0%, 0%, 100%)"
         stop-opacity="1"
         id="stop2" />
    </radialGradient>
  </defs>
  <path
     fill-rule="nonzero"
     fill="url(#radial-pattern-0)"
     stroke-width="0.7"
     stroke-linecap="butt"
     stroke-linejoin="miter"
     stroke="rgb(0%, 0%, 50.196078%)"
     stroke-opacity="1"
     stroke-miterlimit="4"
     d="M 112.224358 102.224749 C 112.224358 107.749033 107.749033 112.224358 102.224749 112.224358 C 96.700465 112.224358 92.225139 107.749033 92.225139 102.224749 C 92.225139 96.700465 96.700465 92.225139 102.224749 92.225139 C 107.749033 92.225139 112.224358 96.700465 112.224358 102.224749 Z M 112.224358 102.224749 "
     transform="matrix(1.132075, 0, 0, 1.132075, -103.726126, -103.726126)"
     id="path3" />
  <path
     fill="none"
     stroke-width="1.4"
     stroke-linecap="round"
     stroke-linejoin="miter"
     stroke="rgb(100%, 100%, 100%)"
     stroke-opacity="1"
     stroke-miterlimit="4"
     d="M 104.481389 104.457236 L 107.900856 107.876702 "
     transform="matrix(1.132075, 0, 0, 1.132075, -103.726126, -103.726126)"
     id="path4" />
  <path
     fill-rule="nonzero"
     fill="rgb(100%, 100%, 100%)"
     fill-opacity="0.976471"
     d="M 14.554688 14.527344 L 18.425781 18.398438 "
     id="path5" />
  <path
     fill="none"
     stroke-width="1.4"
     stroke-linecap="butt"
     stroke-linejoin="miter"
     stroke="rgb(100%, 100%, 100%)"
     stroke-opacity="1"
     stroke-miterlimit="4"
     d="M 105.437184 100.416676 C 105.437184 103.177092 103.197796 105.41648 100.437379 105.41648 C 97.673511 105.41648 95.437574 103.177092 95.437574 100.416676 C 95.437574 97.652808 97.673511 95.416871 100.437379 95.416871 C 103.197796 95.416871 105.437184 97.652808 105.437184 100.416676 Z M 105.437184 100.416676 "
     transform="matrix(1.132075, 0, 0, 1.132075, -103.726126, -103.726126)"
     id="path6" />
</svg>
