<?xml version="1.0" encoding="UTF-8" standalone="no"?>
<svg
   width="24"
   height="24"
   viewBox="0 0 24 24"
   version="1.1"
   id="svg8"
   sodipodi:docname="stop.svg"
   inkscape:version="1.4.3 (0d15f75, 2025-12-25)"
   xmlns:inkscape="http://www.inkscape.org/namespaces/inkscape"
   xmlns:sodipodi="http://sodipodi.sourceforge.net/DTD/sodipodi-0.dtd"
   xmlns="http://www.w3.org/2000/svg"
   xmlns:svg="http://www.w3.org/2000/svg">
  <sodipodi:namedview
     id="namedview8"
     pagecolor="#ffffff"
     bordercolor="#000000"
     borderopacity="0.25"
     inkscape:showpageshadow="2"
     inkscape:pageopacity="0.0"
     inkscape:pagecheckerboard="0"
     inkscape:deskcolor="#d1d1d1"
     inkscape:zoom="27.375"
     inkscape:cx="12"
     inkscape:cy="12"
     inkscape:window-width="1920"
     inkscape:window-height="1129"
     inkscape:window-x="-8"
     inkscape:window-y="-8"
     inkscape:window-maximized="1"
     inkscape:current-layer="svg8" />
  <defs
     id="defs4">
    <radialGradient
       id="radial-pattern-0"
       gradientUnits="userSpaceOnUse"
       cx="-30.033142"
       cy="18.68874"
       fx="-30.033142"
       fy="18.68874"
       r="50"
       gradientTransform="matrix(0, 0.917326, -0.874246, 0.000000277877, 23.871476, 32.222096)">
      <stop
         offset="0"
         stop-color="rgb(100%, 100%, 100%)"
         stop-opacity="1"
         id="stop1"
         style="stop-color:#f0f0f0;stop-opacity:1;" />
      <stop
         offset="1"
         stop-color="rgb(0%, 0%, 0%)"
         stop-opacity="0"
         id="stop2" />
    </radialGradient>
    <radialGradient
       id="radial-pattern-1"
       gradientUnits="userSpaceOnUse"
       cx="98.278702"
       cy="95.75161"
       fx="98.278702"
       fy="95.75161"
       r="5.45"
       gradientTransform="matrix(-0.000197807, 3.546437, -3.021482, -0.000000165229, 296.864092, -343.867247)">
      <stop
         offset="0"
         stop-color="rgb(100%, 100%, 100%)"
         stop-opacity="1"
         id="stop3"
         style="stop-color:#f0f0f0;stop-opacity:1;" />
      <stop
         offset="1"
         stop-color="rgb(0%, 0%, 0%)"
         stop-opacity="0"
         id="stop4" />
    </radialGradient>
  </defs>
  <path
     fill-rule="nonzero"
     fill="rgb(40%, 40%, 40%)"
     fill-opacity="0.976471"
     d="M 23.761719 12 C 23.761719 18.523438 18.472656 23.808594 11.949219 23.808594 C 5.429688 23.808594 0.140625 18.523438 0.140625 12 C 0.140625 5.476562 5.429688 0.191406 11.949219 0.191406 C 18.472656 0.191406 23.761719 5.476562 23.761719 12 Z M 23.761719 12 "
     id="path4" />
  <path
     fill-rule="nonzero"
     fill="url(#radial-pattern-0)"
     d="m 23.761719,12 c 0,6.523438 -5.289063,11.808594 -11.8125,11.808594 C 5.429688,23.808594 0.140625,18.523438 0.140625,12 c 0,-6.523438 5.289063,-11.808594 11.808594,-11.808594 6.523437,0 11.8125,5.285156 11.8125,11.808594 z m 0,0"
     id="path5"
     style="display:inline" />
  <path
     fill="none"
     stroke-width="0.9"
     stroke-linecap="round"
     stroke-linejoin="round"
     stroke="rgb(0%, 0%, 0%)"
     stroke-opacity="1"
     stroke-miterlimit="4"
     d="M 97.224944 97.224944 L 107.224553 97.224944 L 107.224553 107.224553 L 97.224944 107.224553 Z M 97.224944 97.224944 "
     transform="matrix(1.132075, 0, 0, 1.132075, -103.726126, -103.726126)"
     id="path6" />
  <path
     fill-rule="nonzero"
     fill="rgb(10.196078%, 10.196078%, 10.196078%)"
     fill-opacity="1"
     d="M 6.339844 6.339844 L 17.660156 6.339844 L 17.660156 17.660156 L 6.339844 17.660156 Z M 6.339844 6.339844 "
     id="path7" />
  <path
     fill-rule="nonzero"
     fill="url(#radial-pattern-1)"
     d="M 6.339844 6.339844 L 17.660156 6.339844 L 17.660156 17.660156 L 6.339844 17.660156 Z M 6.339844 6.339844 "
     id="path8" />
</svg>
