<?xml version="1.0" encoding="UTF-8" standalone="no"?>
<svg
   width="100"
   height="40"
   viewBox="0 0 99.999997 40"
   version="1.1"
   id="svg2"
   sodipodi:docname="ud.svg"
   inkscape:version="1.4.3 (0d15f75042, 2025-12-25)"
   xmlns:inkscape="http://www.inkscape.org/namespaces/inkscape"
   xmlns:sodipodi="http://sodipodi.sourceforge.net/DTD/sodipodi-0.dtd"
   xmlns="http://www.w3.org/2000/svg"
   xmlns:svg="http://www.w3.org/2000/svg">
  <defs
     id="defs2" />
  <sodipodi:namedview
     id="namedview2"
     pagecolor="#ffffff"
     bordercolor="#999999"
     borderopacity="1"
     inkscape:showpageshadow="2"
     inkscape:pageopacity="0"
     inkscape:pagecheckerboard="0"
     inkscape:deskcolor="#d1d1d1"
     inkscape:zoom="6.6618913"
     inkscape:cx="34.975053"
     inkscape:cy="26.794193"
     inkscape:window-width="1920"
     inkscape:window-height="1172"
     inkscape:window-x="0"
     inkscape:window-y="0"
     inkscape:window-maximized="1"
     inkscape:current-layer="svg2" />
  <g
     id="g2"
     transform="matrix(1.0721353,0,0,1.0721353,-0.79665119,-0.99040634)">
    <path
       fill-rule="nonzero"
       fill="#000000"
       fill-opacity="1"
       d="M 13.1875,3.023438 C 13.410156,3 13.632812,2.984375 13.855469,2.984375 c 8.300781,0 16.597656,0 24.890625,0 0.980468,0.019531 1.972656,0.398437 2.648437,1.125 C 42.0625,4.808594 42.371094,5.796875 42.371094,6.75 42.308594,7.441406 42.148438,8.121094 42,8.800781 c -1.628906,7.789063 -3.253906,15.578125 -4.882812,23.367188 -0.449219,2.609375 -2.863282,4.765625 -5.523438,4.84375 -8.347656,0 -16.695312,0 -25.042969,0 C 5.160156,37 3.785156,36.160156 3.261719,34.847656 2.765625,33.710938 3.03125,32.449219 3.304688,31.292969 4.945312,23.445312 6.585938,15.597656 8.226562,7.75 8.667969,5.34375 10.777344,3.371094 13.1875,3.023438 M 12.761719,6.875 c -1.339844,0.375 -2.28125,1.757812 -2.121094,3.140625 0.08594,1.761719 2.007813,3.125 3.691406,2.613281 C 15.722656,12.3125 16.730469,10.882812 16.5625,9.464844 16.464844,7.65625 14.480469,6.3125 12.761719,6.875 M 34.554688,6.851562 c -1.414063,0.355469 -2.429688,1.839844 -2.195313,3.292969 0.183594,1.75 2.160156,3.054688 3.832031,2.441407 1.566406,-0.433594 2.519532,-2.296876 1.9375,-3.816407 C 37.667969,7.324219 36.015625,6.445312 34.554688,6.851562 m -7.671876,8.359376 c -1.144531,0.191406 -2.050781,1.296874 -2.007812,2.457031 0,1.105469 0.84375,2.125 1.921875,2.351562 1.453125,0.390625 3.035156,-0.871093 2.984375,-2.371093 0.08203,-1.492188 -1.449219,-2.765626 -2.898438,-2.4375 M 10.90625,15.410156 c -0.886719,0.429688 -1.484375,1.425782 -1.367188,2.421875 0.0625,1.527344 1.808594,2.683594 3.238282,2.113281 1.207031,-0.382812 1.929687,-1.78125 1.5625,-2.992187 -0.355469,-1.429687 -2.125,-2.226563 -3.433594,-1.542969 m 21.761719,-0.02344 c -0.859375,0.398437 -1.472657,1.320312 -1.414063,2.28125 -0.05078,1.347656 1.230469,2.5 2.554688,2.417969 1.304687,-0.05078 2.460937,-1.273438 2.324218,-2.597657 0,-1.667969 -1.980468,-2.851562 -3.464843,-2.101562 m -7.507813,7.472656 c -1.046875,0.390625 -1.570312,1.746094 -1.023437,2.726563 0.46875,1.03125 1.898437,1.375 2.820312,0.757812 0.703125,-0.453125 1.070313,-1.390625 0.8125,-2.195312 -0.277343,-1.078126 -1.578125,-1.742188 -2.609375,-1.289063 m 6.320313,0.01563 c -0.585938,0.253906 -1.070313,0.796875 -1.167969,1.4375 -0.230469,1.042969 0.535156,2.191406 1.609375,2.3125 1.15625,0.238281 2.359375,-0.792969 2.273437,-1.980469 0.05078,-1.328125 -1.515624,-2.34375 -2.714843,-1.769531 M 9.660156,23.027344 C 8.988281,23.335938 8.519531,24.066406 8.546875,24.8125 8.523438,25.652344 9.125,26.457031 9.933594,26.675781 c 1.25,0.460938 2.707031,-0.71875 2.515625,-2.039062 -0.03125,-1.324219 -1.625,-2.230469 -2.789063,-1.609375 m 8.1875,6.492187 c -1.207031,0.238281 -1.632812,1.957031 -0.664062,2.722657 0.855468,0.824218 2.460937,0.238281 2.589844,-0.941407 0.210937,-1.0625 -0.886719,-2.074219 -1.925782,-1.78125 m -6.808594,0.195313 c -0.925781,0.523437 -0.996093,2.019531 -0.09766,2.609375 0.921875,0.765625 2.53125,0.0078 2.480469,-1.203125 0.144531,-1.210938 -1.390625,-2.101563 -2.382813,-1.40625 m 12.894532,-0.09375 c -1.0625,0.421875 -1.261719,2.023437 -0.320313,2.679687 C 24.441406,33 25.835938,32.515625 26.097656,31.480469 26.511719,30.277344 25.0625,29.019531 23.933594,29.621094 m 6.179687,0.08984 c -0.949219,0.527343 -1.015625,2.027343 -0.09766,2.621093 0.941406,0.757813 2.5,-0.01172 2.492187,-1.21875 0.08594,-1.191406 -1.390624,-2.09375 -2.394531,-1.402343 z M 46.148438,3.417969 c 1.109374,0.00391 2.21875,-0.00391 3.328124,0.00391 -0.429687,2.019531 -0.832031,4.042969 -1.261718,6.066406 -0.09375,0.578125 -0.210938,1.191407 0.01953,1.753907 0.382813,0.605468 1.265625,0.65625 1.855469,0.347656 0.734375,-0.34375 1.007812,-1.1875 1.191406,-1.914063 0.449219,-2.085937 0.863281,-4.179687 1.328125,-6.261719 1.105469,0.011719 2.210937,0 3.3125,0.00781 -0.503906,2.40625 -0.992187,4.816406 -1.5,7.21875 -0.261719,1.238281 -0.972656,2.417969 -2.089844,3.054687 -1.40625,0.820313 -3.128906,0.875 -4.703125,0.621094 -1.042968,-0.203125 -2.121094,-0.714844 -2.652344,-1.683594 -0.429687,-0.6875 -0.417968,-1.546874 -0.269531,-2.316406 0.480469,-2.300781 0.960938,-4.601562 1.441407,-6.898437 z m 18.359374,0.00391 c 2.996094,-0.00391 5.988282,-0.00781 8.984376,0 -0.140626,0.671875 -0.296876,1.339844 -0.429688,2.011719 -1.074219,-0.00781 -2.152344,0 -3.226562,-0.00391 -0.609376,2.921874 -1.203126,5.851562 -1.851563,8.765624 -0.789063,-0.0078 -1.582031,0 -2.375,-0.0078 0.617187,-2.917969 1.214844,-5.835938 1.84375,-8.75 -1.125,-0.015625 -2.25,-0.00391 -3.375,-0.00781 0.132813,-0.671876 0.265625,-1.34375 0.429687,-2.007813 z m 10.515626,0 c 1.726562,0.00781 3.460937,-0.035156 5.1875,0.023437 1.070312,0.023438 2.269531,0.507813 2.664062,1.578126 0.382812,1.097656 0.253906,2.480468 -0.613281,3.316406 -0.445313,0.433594 -1.046875,0.644531 -1.644531,0.765625 0.726562,0.246093 1.191406,0.984375 1.15625,1.738281 0.09766,1.121094 -0.425782,2.257812 0.0078,3.34375 -0.664062,0.0039 -1.332031,0.0078 -2,-0.0039 -0.226562,-1.175782 0.171875,-2.347656 0.06641,-3.523438 -0.05859,-0.519531 -0.570312,-0.820312 -1.054687,-0.851562 -1.046875,-0.09375 -2.101563,-0.015625 -3.15625,-0.042969 -0.3125,1.472656 -0.621094,2.945313 -0.917969,4.421875 -0.652344,0.0078 -1.300781,0.01172 -1.953125,-0.0078 C 73.5625,10.601562 74.246094,7 75.023438,3.421875 m 0.925781,4.894531 c 0.949219,-0.00391 1.898437,0.00391 2.851562,0 0.714844,-0.00391 1.507813,-0.195312 1.984375,-0.773437 0.414063,-0.46875 0.441406,-1.15625 0.304688,-1.738281 C 80.90625,5.277344 80.328125,5.039062 79.808594,5.003906 78.753906,4.933594 77.699219,4.996094 76.640625,4.96875 76.382812,6.078125 76.15625,7.199219 75.949219,8.316406 Z M 88.910156,3.421875 c 0.667969,0.03125 1.386719,-0.085937 2.023438,0.054687 0.601562,3.574219 1.257812,7.136719 1.84375,10.710938 -0.644532,0.0078 -1.289063,0.0078 -1.933594,0 -0.105469,-0.929688 -0.253906,-1.847656 -0.417969,-2.765625 -0.03516,-0.02344 -0.09375,-0.07031 -0.125,-0.09375 -1.363281,-0.02344 -2.726562,0.01563 -4.089843,-0.01563 -0.597657,0.933594 -1.140626,1.902344 -1.683594,2.871094 -0.6875,0.01172 -1.375,0.0078 -2.0625,0.0078 2.15625,-3.585937 4.304687,-7.175781 6.445312,-10.769531 m -1.9375,6.472656 c 1.082032,0.00781 2.164063,0.00391 3.246094,0.00391 C 90.007812,8.367188 89.792969,6.839844 89.558594,5.316406 88.703125,6.84375 87.832031,8.367188 86.972656,9.894531 Z M 57.578125,3.421875 c 0.933594,0 1.871094,-0.00781 2.808594,0.00391 -0.53125,2.796875 -1.207031,5.5625 -1.703125,8.359375 1.667968,0 3.332031,-0.0039 4.996094,0 -0.164063,0.804688 -0.355469,1.601563 -0.5,2.40625 -2.617188,0.0039 -5.230469,0.0039 -7.84375,0 0.746093,-3.589844 1.503906,-7.179687 2.242187,-10.769531 z M 39.148438,37.011719 c 1.421874,-6.820313 2.832031,-13.644531 4.289062,-20.457031 2.6875,0.0039 5.375,-0.0039 8.058594,0.0039 -0.441406,2.371094 -1.003906,4.722656 -1.457032,7.09375 2.453126,0 4.90625,-0.0039 7.359376,0 0.460937,-2.367188 1.035156,-4.710938 1.453124,-7.085938 2.714844,-0.02344 5.429688,-0.0078 8.144532,-0.0078 -1.464844,6.8125 -2.832032,13.644531 -4.300782,20.457031 -2.695312,-0.0078 -5.390624,0 -8.082031,-0.0039 0.542969,-2.710938 1.167969,-5.410157 1.664063,-8.132813 -2.445313,0.0039 -4.894532,0 -7.339844,0 -0.570312,2.714844 -1.113281,5.429688 -1.714844,8.136719 -2.6875,-0.0078 -5.382812,0 -8.074218,-0.0039 z m 26.738281,0 c 1.433593,-6.820313 2.832031,-13.648438 4.292969,-20.460938 3.949218,0.01172 7.894531,0 11.84375,0.0039 2.84375,-0.05859 5.796874,0.648437 8.09375,2.382812 1.699218,1.265625 2.8125,3.253906 3.042968,5.355469 0.332032,2.914062 -0.453125,6.015625 -2.382812,8.261719 -1.703125,2.019531 -4.167969,3.25 -6.695313,3.875 -1.566406,0.378906 -3.175781,0.546874 -4.78125,0.582031 H 65.886719 M 77.21875,21.804688 c -0.71875,3.308593 -1.398438,6.628906 -2.109375,9.941406 1.449219,-0.01172 2.894531,0.01563 4.339844,-0.01563 1.453125,-0.03125 2.9375,-0.53125 3.988281,-1.5625 1.503906,-1.5 2.042969,-3.847657 1.472656,-5.875 -0.308594,-1.050781 -1.1875,-1.871094 -2.226562,-2.175781 -1.773438,-0.535157 -3.648438,-0.238282 -5.464844,-0.3125 z m 0,0"
       id="path1" />
    <path
       fill-rule="nonzero"
       fill="#b3b3b3"
       fill-opacity="1"
       d="m 11.726562,2.183594 c 0.222657,-0.027344 0.449219,-0.042969 0.671876,-0.042969 8.296874,0.00391 16.59375,0 24.890624,0 0.980469,0.019531 1.972657,0.398437 2.648438,1.125 0.667969,0.699219 0.976562,1.6875 0.972656,2.644531 -0.0625,0.691406 -0.222656,1.367188 -0.367187,2.046875 -1.628907,7.789063 -3.257813,15.578125 -4.886719,23.367188 -0.445312,2.609375 -2.863281,4.769531 -5.519531,4.84375 -8.347657,0 -16.695313,0.0039 -25.042969,0 -1.394531,-0.01172 -2.769531,-0.851563 -3.289062,-2.164063 -0.5,-1.136718 -0.234376,-2.398437 0.042968,-3.550781 1.640625,-7.847656 3.28125,-15.695313 4.921875,-23.542969 0.4375,-2.40625 2.546875,-4.382812 4.957031,-4.726562 M 11.300781,6.03125 c -1.335937,0.375 -2.277343,1.761719 -2.117187,3.144531 0.085937,1.757813 2.003906,3.121094 3.6875,2.609375 1.394531,-0.316406 2.398437,-1.746094 2.230468,-3.164062 C 15.007812,6.8125 13.019531,5.472656 11.300781,6.03125 M 33.097656,6.007812 c -1.414062,0.355469 -2.429687,1.84375 -2.195312,3.292969 0.179687,1.75 2.160156,3.058594 3.828125,2.441407 1.566406,-0.429688 2.523437,-2.296876 1.9375,-3.816407 C 36.210938,6.480469 34.554688,5.605469 33.097656,6.007812 m -7.671875,8.363282 c -1.144531,0.1875 -2.050781,1.296875 -2.007812,2.457031 0,1.101563 0.84375,2.121094 1.921875,2.351563 1.449218,0.386718 3.03125,-0.871094 2.984375,-2.375 C 28.40625,15.3125 26.875,14.039062 25.425781,14.371094 M 9.449219,14.566406 C 8.5625,15 7.964844,15.992188 8.082031,16.988281 c 0.058594,1.527344 1.808594,2.683594 3.234375,2.113281 1.207032,-0.382812 1.929688,-1.777343 1.5625,-2.992187 -0.355468,-1.425781 -2.121094,-2.222656 -3.429687,-1.542969 m 21.761719,-0.02344 c -0.863282,0.398437 -1.476563,1.320312 -1.414063,2.28125 -0.05078,1.347656 1.230469,2.5 2.554687,2.417969 1.304688,-0.05078 2.460938,-1.273438 2.320313,-2.597657 0,-1.664062 -1.980469,-2.851562 -3.460937,-2.101562 m -7.507813,7.476562 c -1.050781,0.386719 -1.570313,1.742188 -1.023437,2.726563 0.46875,1.027344 1.894531,1.375 2.816406,0.753906 0.707031,-0.453125 1.070312,-1.386719 0.8125,-2.195312 -0.273438,-1.078126 -1.578125,-1.738282 -2.605469,-1.285157 m 6.320313,0.01172 c -0.585938,0.257812 -1.070313,0.796875 -1.167969,1.4375 -0.230469,1.042969 0.535156,2.191406 1.605469,2.3125 1.160156,0.238281 2.363281,-0.792969 2.273437,-1.976562 0.05078,-1.328126 -1.515625,-2.347657 -2.710937,-1.773438 M 8.203125,22.183594 c -0.675781,0.3125 -1.144531,1.039062 -1.117187,1.789062 -0.019532,0.835938 0.578124,1.640625 1.390624,1.863282 1.246094,0.460937 2.703126,-0.722657 2.515626,-2.039063 -0.03125,-1.324219 -1.628907,-2.230469 -2.789063,-1.613281 m 8.1875,6.496094 c -1.207031,0.234374 -1.636719,1.953124 -0.667969,2.71875 0.859375,0.828124 2.464844,0.238281 2.59375,-0.941407 0.210938,-1.058593 -0.886718,-2.074219 -1.925781,-1.777343 m -6.808594,0.191406 c -0.929687,0.523437 -1,2.019531 -0.101562,2.609375 0.921875,0.769531 2.535156,0.01172 2.484375,-1.203125 0.140625,-1.210938 -1.390625,-2.101563 -2.382813,-1.40625 m 12.894531,-0.09375 c -1.066406,0.425781 -1.261718,2.023437 -0.320312,2.683594 0.824219,0.695312 2.21875,0.214843 2.480469,-0.824219 0.414062,-1.203125 -1.03125,-2.460938 -2.160157,-1.859375 m 6.179688,0.08984 c -0.949219,0.527343 -1.019531,2.03125 -0.09766,2.621093 0.941406,0.761719 2.5,-0.0078 2.492187,-1.214843 0.08594,-1.195313 -1.390625,-2.09375 -2.394531,-1.40625 z M 44.6875,2.578125 c 1.113281,0 2.222656,-0.00781 3.332031,0 -0.429687,2.023437 -0.835937,4.046875 -1.261719,6.066406 -0.09375,0.578125 -0.214843,1.195313 0.01953,1.753907 0.382812,0.605468 1.265625,0.65625 1.855468,0.347656 0.734376,-0.339844 1.003907,-1.1875 1.191407,-1.914063 0.449219,-2.085937 0.859375,-4.179687 1.324219,-6.261719 1.105468,0.011719 2.210937,0 3.316406,0.00781 -0.507813,2.40625 -0.992188,4.816406 -1.5,7.222656 -0.265625,1.234375 -0.976563,2.414063 -2.089844,3.054688 -1.40625,0.820312 -3.132812,0.871093 -4.703125,0.621093 -1.046875,-0.203124 -2.125,-0.714843 -2.65625,-1.683593 C 43.085938,11.101562 43.101562,10.246094 43.25,9.472656 43.726562,7.171875 44.207031,4.875 44.6875,2.578125 Z m 18.363281,0 c 2.992188,0 5.988281,-0.00391 8.984375,0.00391 -0.140625,0.667969 -0.300781,1.335938 -0.429687,2.007813 -1.078125,-0.00391 -2.152344,0 -3.226563,-0.00391 -0.613281,2.925781 -1.203125,5.851562 -1.851562,8.769531 -0.792969,-0.01172 -1.585938,0 -2.375,-0.01172 0.617187,-2.914062 1.210937,-5.835938 1.839844,-8.75 -1.125,-0.015625 -2.25,0 -3.375,-0.00781 0.136718,-0.671876 0.265624,-1.34375 0.433593,-2.007814 z M 73.5625,2.582031 c 1.730469,0.00391 3.460938,-0.035156 5.191406,0.019531 1.066406,0.027344 2.265625,0.511719 2.664063,1.582032 0.378906,1.09375 0.25,2.476562 -0.617188,3.316406 -0.445312,0.429688 -1.046875,0.644531 -1.644531,0.765625 0.730469,0.242187 1.191406,0.980469 1.15625,1.738281 0.09766,1.117188 -0.425781,2.253906 0.01172,3.34375 -0.667969,0.0039 -1.335938,0.0039 -2,-0.0039 -0.230469,-1.175781 0.171875,-2.351562 0.06641,-3.527344 C 78.332031,9.296875 77.816406,9 77.332031,8.964844 76.285156,8.875 75.230469,8.953125 74.179688,8.921875 c -0.316407,1.472656 -0.621094,2.949219 -0.917969,4.425781 -0.652344,0.0039 -1.304688,0.0078 -1.953125,-0.01172 0.796875,-3.574219 1.476562,-7.175782 2.257812,-10.757813 m 0.925782,4.898437 c 0.949218,-0.00391 1.898437,0.00391 2.847656,-0.00391 0.71875,-0.00391 1.511718,-0.191406 1.984375,-0.773437 0.417969,-0.46875 0.441406,-1.15625 0.308593,-1.738281 C 79.445312,4.4375 78.867188,4.199219 78.351562,4.160156 77.296875,4.09375 76.238281,4.15625 75.183594,4.125 74.921875,5.234375 74.695312,6.355469 74.492188,7.476562 Z M 87.453125,2.578125 c 0.664063,0.035156 1.386719,-0.085937 2.023437,0.054687 0.601563,3.574219 1.253907,7.136719 1.839844,10.710938 -0.640625,0.0078 -1.285156,0.0078 -1.929687,0 -0.105469,-0.925781 -0.257813,-1.847656 -0.417969,-2.761719 -0.03516,-0.02734 -0.09766,-0.07031 -0.128906,-0.09375 C 87.476562,10.460938 86.113281,10.5 84.75,10.46875 c -0.59375,0.933594 -1.136719,1.90625 -1.679688,2.871094 -0.691406,0.01563 -1.375,0.0078 -2.066406,0.0078 2.15625,-3.585937 4.304688,-7.175781 6.449219,-10.769531 m -1.9375,6.476563 c 1.082031,0.00781 2.164063,0.00391 3.246094,0.00391 C 88.546875,7.527344 88.335938,5.996094 88.097656,4.472656 87.242188,6.003906 86.375,7.523438 85.515625,9.054688 Z M 56.117188,2.578125 c 0.9375,0 1.875,-0.00781 2.808593,0.00391 -0.527343,2.796875 -1.207031,5.5625 -1.699219,8.359375 1.664063,0 3.332032,0 4.996094,0.0039 -0.167968,0.800782 -0.355468,1.597657 -0.503906,2.40625 -2.613281,0 -5.226562,0 -7.84375,-0.0039 0.75,-3.589844 1.507812,-7.179687 2.242188,-10.769531 z M 37.691406,36.167969 c 1.421875,-6.820313 2.828125,-13.644531 4.289063,-20.457031 2.683593,0.0039 5.371093,0 8.058593,0.0039 -0.445312,2.375 -1.007812,4.722656 -1.460937,7.097656 2.453125,-0.0039 4.910156,-0.0078 7.363281,0 0.460938,-2.367188 1.03125,-4.714844 1.453125,-7.089844 2.710938,-0.02344 5.425781,-0.0078 8.140625,-0.0078 -1.460937,6.8125 -2.832031,13.648437 -4.300781,20.460937 -2.695313,-0.01172 -5.386719,0 -8.078125,-0.0039 0.542969,-2.714844 1.164062,-5.414063 1.660156,-8.136719 -2.445312,0.0039 -4.890625,0 -7.335937,0.0039 -0.570313,2.710938 -1.117188,5.429688 -1.714844,8.136719 -2.691406,-0.01172 -5.382813,0 -8.074219,-0.0078 z m 26.738282,0.0039 c 1.433593,-6.820313 2.832031,-13.648437 4.292968,-20.464844 3.945313,0.01563 7.894532,0.0039 11.839844,0.0039 2.847656,-0.05859 5.800781,0.648437 8.09375,2.386718 1.699219,1.265625 2.816406,3.25 3.046875,5.355469 0.328125,2.914063 -0.453125,6.011719 -2.386719,8.261719 -1.703125,2.015625 -4.164062,3.246094 -6.695312,3.875 -1.5625,0.378906 -3.171875,0.542968 -4.78125,0.582031 H 64.429688 M 75.757812,20.960938 c -0.714843,3.308593 -1.394531,6.628906 -2.105468,9.941406 1.445312,-0.0078 2.890625,0.01563 4.339844,-0.01172 1.453124,-0.03516 2.9375,-0.53125 3.984374,-1.5625 1.503907,-1.503906 2.042969,-3.847656 1.472657,-5.878906 -0.304688,-1.050781 -1.183594,-1.867188 -2.226563,-2.175781 -1.773437,-0.53125 -3.644531,-0.238282 -5.464844,-0.3125 z m 0,0"
       id="path2" />
  </g>
</svg>
