<?xml version="1.0" encoding="UTF-8" standalone="no"?>
<svg
   width="24"
   height="24"
   viewBox="0 0 24 24"
   version="1.1"
   id="svg4"
   sodipodi:docname="zap.svg"
   inkscape:version="1.4.3 (0d15f75, 2025-12-25)"
   xmlns:inkscape="http://www.inkscape.org/namespaces/inkscape"
   xmlns:sodipodi="http://sodipodi.sourceforge.net/DTD/sodipodi-0.dtd"
   xmlns="http://www.w3.org/2000/svg"
   xmlns:svg="http://www.w3.org/2000/svg">
  <sodipodi:namedview
     id="namedview4"
     pagecolor="#ffffff"
     bordercolor="#000000"
     borderopacity="0.25"
     inkscape:showpageshadow="2"
     inkscape:pageopacity="0.0"
     inkscape:pagecheckerboard="0"
     inkscape:deskcolor="#d1d1d1"
     inkscape:zoom="27.375"
     inkscape:cx="12"
     inkscape:cy="12"
     inkscape:window-width="1920"
     inkscape:window-height="1129"
     inkscape:window-x="-8"
     inkscape:window-y="-8"
     inkscape:window-maximized="1"
     inkscape:current-layer="svg4" />
  <defs
     id="defs2">
    <radialGradient
       id="radial-pattern-0"
       gradientUnits="userSpaceOnUse"
       cx="96.169754"
       cy="94.547119"
       fx="96.169754"
       fy="94.547119"
       r="10.35"
       gradientTransform="matrix(0.0347387, 1.562945, -1.420471, 0.0315759, 229.239822, -57.54332)">
      <stop
         offset="0"
         stop-color="rgb(100%, 100%, 100%)"
         stop-opacity="1"
         id="stop1"
         style="stop-color:#f0f0f0;stop-opacity:1;" />
      <stop
         offset="1"
         stop-color="rgb(0%, 0%, 100%)"
         stop-opacity="1"
         id="stop2" />
    </radialGradient>
  </defs>
  <path
     fill-rule="nonzero"
     fill="url(#radial-pattern-0)"
     stroke-width="0.7"
     stroke-linecap="butt"
     stroke-linejoin="miter"
     stroke="rgb(0%, 0%, 50.196078%)"
     stroke-opacity="1"
     stroke-miterlimit="4"
     d="M 112.224358 102.224749 C 112.224358 107.749033 107.749033 112.224358 102.224749 112.224358 C 96.700465 112.224358 92.225139 107.749033 92.225139 102.224749 C 92.225139 96.700465 96.700465 92.225139 102.224749 92.225139 C 107.749033 92.225139 112.224358 96.700465 112.224358 102.224749 Z M 112.224358 102.224749 "
     transform="matrix(1.132075, 0, 0, 1.132075, -103.726126, -103.726126)"
     id="path3" />
  <path
     fill-rule="evenodd"
     fill="rgb(100%, 100%, 100%)"
     fill-opacity="1"
     d="M 11.460938 5.984375 L 10.925781 7.816406 L 10.714844 7.839844 L 9.496094 5.738281 C 9.613281 5.542969 9.675781 5.316406 9.675781 5.089844 C 9.675781 4.386719 9.105469 3.816406 8.40625 3.816406 C 7.703125 3.816406 7.132812 4.386719 7.132812 5.089844 C 7.132812 5.789062 7.703125 6.359375 8.40625 6.359375 C 8.414062 6.359375 8.421875 6.359375 8.433594 6.359375 L 9.375 7.980469 L 6.160156 8.320312 C 5.488281 8.390625 4.996094 8.996094 5.066406 9.667969 L 5.746094 16.125 C 5.816406 16.800781 6.421875 17.289062 7.097656 17.21875 L 7.460938 17.179688 L 6.601562 19.355469 C 6.488281 19.667969 6.644531 20.015625 6.953125 20.140625 C 7.265625 20.261719 7.617188 20.113281 7.746094 19.804688 L 8.839844 17.035156 L 15.832031 16.300781 L 17.820312 19.144531 C 18.015625 19.421875 18.398438 19.492188 18.675781 19.296875 C 18.953125 19.101562 19.023438 18.71875 18.828125 18.441406 L 17.226562 16.152344 L 17.472656 16.128906 C 18.144531 16.058594 18.636719 15.453125 18.566406 14.777344 L 17.886719 8.320312 C 17.816406 7.648438 17.210938 7.15625 16.535156 7.226562 L 12.246094 7.679688 L 12.636719 6.328125 C 13.207031 6.199219 13.628906 5.691406 13.628906 5.085938 C 13.628906 4.386719 13.058594 3.816406 12.359375 3.816406 C 11.660156 3.816406 11.089844 4.386719 11.089844 5.085938 C 11.089844 5.4375 11.230469 5.753906 11.460938 5.984375 Z M 17.34375 14.90625 L 16.664062 8.449219 L 6.289062 9.539062 L 6.96875 15.996094 Z M 17.34375 14.90625 "
     id="path4" />
</svg>
