<?xml version="1.0" encoding="UTF-8" standalone="no"?>
<svg
   width="24"
   height="24"
   viewBox="0 0 24 24"
   version="1.1"
   id="svg3"
   sodipodi:docname="reload.svg"
   inkscape:version="1.4.3 (0d15f75, 2025-12-25)"
   xmlns:inkscape="http://www.inkscape.org/namespaces/inkscape"
   xmlns:sodipodi="http://sodipodi.sourceforge.net/DTD/sodipodi-0.dtd"
   xmlns="http://www.w3.org/2000/svg"
   xmlns:svg="http://www.w3.org/2000/svg">
  <sodipodi:namedview
     id="namedview3"
     pagecolor="#ffffff"
     bordercolor="#000000"
     borderopacity="0.25"
     inkscape:showpageshadow="2"
     inkscape:pageopacity="0.0"
     inkscape:pagecheckerboard="0"
     inkscape:deskcolor="#d1d1d1"
     inkscape:zoom="27.375"
     inkscape:cx="12"
     inkscape:cy="12"
     inkscape:window-width="1920"
     inkscape:window-height="1129"
     inkscape:window-x="-8"
     inkscape:window-y="-8"
     inkscape:window-maximized="1"
     inkscape:current-layer="svg3"
     showgrid="false" />
  <defs
     id="defs2">
    <radialGradient
       id="radial-pattern-0"
       gradientUnits="userSpaceOnUse"
       cx="106.170563"
       cy="95.917473"
       fx="106.170563"
       fy="95.917473"
       r="9.388532"
       gradientTransform="matrix(-1.549329, 0.000000437241, 0.0000150783, -1.818511, 270.662323, 270.089325)">
      <stop
         offset="0"
         stop-color="rgb(100%, 100%, 100%)"
         stop-opacity="1"
         id="stop1"
         style="stop-color:#f0f0f0;stop-opacity:1;" />
      <stop
         offset="1"
         stop-color="rgb(0%, 20%, 50.196078%)"
         stop-opacity="0"
         id="stop2"
         style="stop-color:#be90ab;stop-opacity:0;" />
    </radialGradient>
  </defs>
  <path
     fill-rule="nonzero"
     fill="rgb(0%, 20%, 50.196078%)"
     fill-opacity="1"
     stroke-width="0.641216"
     stroke-linecap="butt"
     stroke-linejoin="miter"
     stroke="rgb(0%, 13.333333%, 33.333333%)"
     stroke-opacity="1"
     stroke-miterlimit="4"
     d="M 101.586398 92.684579 C 101.655409 92.681128 101.724419 92.69148 101.789979 92.719084 C 101.917648 92.767391 101.99701 92.864006 101.99701 92.970972 L 101.99701 95.117196 C 103.746425 95.282821 111.292714 96.280022 111.292714 100.955478 C 111.292714 101.090048 111.161594 101.207366 110.978716 101.23497 C 110.954563 101.23842 110.926959 101.241871 110.902805 101.241871 C 110.747532 101.241871 110.60261 101.172861 110.543951 101.065894 C 110.499094 100.986532 109.377675 99.137053 105.185292 98.767847 C 104.308859 98.691936 103.263352 98.65053 101.99356 98.647079 L 101.99356 100.952027 C 101.99356 101.058993 101.914198 101.155608 101.786529 101.207366 C 101.658859 101.255673 101.507036 101.248772 101.386268 101.190113 L 93.329302 97.19786 C 93.218885 97.146103 93.156776 97.056389 93.156776 96.963225 C 93.156776 96.86661 93.218885 96.776897 93.329302 96.725139 L 101.389719 92.732886 C 101.448378 92.701832 101.517388 92.684579 101.586398 92.684579 Z M 93.546685 103.029241 C 93.701958 103.029241 93.84688 103.094801 93.905539 103.201767 C 93.950396 103.281129 95.071815 105.134059 99.264198 105.499814 C 100.14063 105.575725 101.186138 105.617132 102.45593 105.624033 L 102.45593 103.315634 C 102.45593 103.208668 102.535292 103.112053 102.662961 103.060295 C 102.79063 103.011988 102.945904 103.018889 103.063221 103.077548 L 111.120188 107.069801 C 111.230604 107.121559 111.292714 107.211272 111.292714 107.307887 C 111.292714 107.404501 111.227154 107.490764 111.120188 107.545973 L 103.059771 111.538225 C 102.939003 111.596884 102.78718 111.603785 102.65951 111.552028 C 102.528391 111.50372 102.452479 111.403655 102.452479 111.30014 L 102.452479 109.153916 C 100.703065 108.98484 93.156776 107.987639 93.156776 103.315634 C 93.156776 103.177613 93.287896 103.060295 93.470773 103.032691 C 93.494927 103.029241 93.522531 103.029241 93.546685 103.029241 Z M 93.546685 103.029241 "
     transform="matrix(-1.132075, 0, 0, 1.132075, 127.726122, -103.625153)"
     id="path2"
     style="stroke:none;stroke-opacity:1;fill:#6a003c;fill-opacity:1" />
  <path
     fill-rule="nonzero"
     fill="url(#radial-pattern-0)"
     stroke-width="0.641216"
     stroke-linecap="butt"
     stroke-linejoin="miter"
     stroke="#002255"
     stroke-opacity="1"
     stroke-miterlimit="4"
     d="m 101.5864,92.684579 c 0.069,-0.0035 0.13802,0.0069 0.20358,0.0345 0.12767,0.04831 0.20703,0.144922 0.20703,0.251888 v 2.146224 c 1.74942,0.165625 9.2957,1.162826 9.2957,5.838279 0,0.13457 -0.13112,0.25189 -0.31399,0.27949 -0.0242,0.003 -0.0518,0.007 -0.0759,0.007 -0.15528,0 -0.3002,-0.069 -0.35886,-0.17598 -0.0449,-0.0794 -1.16628,-1.928832 -5.35866,-2.298038 -0.87643,-0.07591 -1.92194,-0.117317 -3.19173,-0.120768 v 2.304956 c 0,0.10696 -0.0794,0.20358 -0.20703,0.25534 -0.12767,0.0483 -0.27949,0.0414 -0.40026,-0.0173 l -8.056968,-3.992255 c -0.110417,-0.05176 -0.172526,-0.141471 -0.172526,-0.234635 0,-0.09661 0.06211,-0.186328 0.172526,-0.238086 l 8.060418,-3.992253 c 0.0587,-0.03105 0.12767,-0.04831 0.19668,-0.04831 z m -8.039715,10.344661 c 0.155273,0 0.300195,0.0656 0.358854,0.17253 0.04486,0.0794 1.166276,1.93229 5.358659,2.29804 0.876432,0.0759 1.921942,0.11732 3.191732,0.12422 v -2.3084 c 0,-0.10696 0.0794,-0.20358 0.20703,-0.25534 0.12767,-0.0483 0.28294,-0.0414 0.40026,0.0173 l 8.05697,3.99225 c 0.11041,0.0518 0.17252,0.14147 0.17252,0.23809 0,0.0966 -0.0656,0.18287 -0.17252,0.23808 l -8.06042,3.99225 c -0.12077,0.0587 -0.27259,0.0656 -0.40026,0.0138 -0.13112,-0.0483 -0.20703,-0.14837 -0.20703,-0.25189 v -2.14622 c -1.74942,-0.16908 -9.295704,-1.16628 -9.295704,-5.83829 0,-0.13802 0.13112,-0.25534 0.313997,-0.28294 0.02415,-0.003 0.05176,-0.003 0.07591,-0.003 z m 0,0"
     transform="matrix(-1.132075,0,0,1.132075,127.72612,-103.62515)"
     id="path3"
     style="display:inline;stroke:#58002e;stroke-opacity:1" />
</svg>
