<?xml version="1.0" encoding="UTF-8" standalone="no"?>
<svg
   width="100"
   height="40"
   viewBox="0 0 100 40.000001"
   version="1.1"
   id="svg4"
   sodipodi:docname="1280x720.svg"
   inkscape:version="1.4.3 (0d15f75042, 2025-12-25)"
   xmlns:inkscape="http://www.inkscape.org/namespaces/inkscape"
   xmlns:sodipodi="http://sodipodi.sourceforge.net/DTD/sodipodi-0.dtd"
   xmlns="http://www.w3.org/2000/svg"
   xmlns:svg="http://www.w3.org/2000/svg">
  <defs
     id="defs4" />
  <sodipodi:namedview
     id="namedview4"
     pagecolor="#ffffff"
     bordercolor="#999999"
     borderopacity="1"
     inkscape:showpageshadow="2"
     inkscape:pageopacity="0"
     inkscape:pagecheckerboard="0"
     inkscape:deskcolor="#d1d1d1"
     inkscape:zoom="4.5324015"
     inkscape:cx="38.169611"
     inkscape:cy="73.801935"
     inkscape:window-width="1920"
     inkscape:window-height="1172"
     inkscape:window-x="0"
     inkscape:window-y="0"
     inkscape:window-maximized="1"
     inkscape:current-layer="svg4" />
  <path
     style="baseline-shift:baseline;display:inline;overflow:visible;opacity:1;vector-effect:none;stroke-miterlimit:2.7;enable-background:accumulate;stop-color:#000000;stop-opacity:1"
     d="M 1.6397501,0.94833579 V 40.950289 h 4.548828 V 5.4991172 H 101.64561 V 0.94833579 Z"
     id="path1" />
  <path
     style="baseline-shift:baseline;display:inline;overflow:visible;vector-effect:none;fill:#999999;stroke-miterlimit:2.7;enable-background:accumulate;stop-color:#000000;stop-opacity:1;opacity:1"
     d="M 0,0 V 40.001953 H 4.5488281 V 4.5488281 H 100.00586 V 0 Z"
     id="path2" />
  <path
     fill-rule="nonzero"
     fill="#000000"
     fill-opacity="1"
     d="M 29.279837,34.224167 H 24.432181 V 20.966354 c 0,-0.554687 0.01172,-1.28125 0.03125,-2.179687 0.04297,-0.898438 0.07422,-1.691407 0.09375,-2.375 -0.105469,0.128906 -0.339844,0.363281 -0.703125,0.703124 -0.34375,0.324219 -0.664063,0.613282 -0.964844,0.867188 l -2.632812,2.121094 -2.339844,-2.921875 7.378906,-5.874999 h 3.980469 z m 22.402344,0 H 35.666556 v -3.371094 l 5.742187,-5.808594 c 1.15625,-1.199219 2.085938,-2.195312 2.792969,-2.984375 0.707031,-0.8125 1.21875,-1.542969 1.542969,-2.183594 0.320312,-0.664062 0.480469,-1.367187 0.480469,-2.117187 0,-0.921875 -0.257813,-1.605469 -0.769532,-2.054688 -0.492187,-0.449217 -1.167968,-0.67578 -2.023437,-0.67578 -0.878907,0 -1.734375,0.203125 -2.566407,0.61328 -0.835937,0.40625 -1.710937,0.980469 -2.632812,1.730469 l -2.632812,-3.11328 c 0.664062,-0.578125 1.359374,-1.113282 2.085937,-1.605469 0.75,-0.492187 1.605469,-0.886719 2.570313,-1.1875 0.984374,-0.320313 2.160156,-0.480469 3.527343,-0.480469 1.5,0 2.785157,0.277344 3.851563,0.835938 1.09375,0.535156 1.925781,1.273437 2.503906,2.214844 0.601562,0.917968 0.898438,1.968749 0.898438,3.14453 0,1.261719 -0.253907,2.417969 -0.769532,3.464843 -0.492187,1.050782 -1.21875,2.085938 -2.183594,3.113282 -0.941406,1.027344 -2.085937,2.160156 -3.433593,3.402344 l -2.953125,2.761718 v 0.222656 h 9.984375 z M 61.920462,11.017136 c 1.324219,0 2.535156,0.203125 3.625,0.609375 1.113281,0.410157 2,1.019531 2.664062,1.832031 0.683594,0.8125 1.027344,1.839844 1.027344,3.082031 0,1.367187 -0.394531,2.5 -1.1875,3.402344 -0.769531,0.875 -1.742187,1.601562 -2.921875,2.179687 0.8125,0.429687 1.585938,0.929687 2.3125,1.507813 0.75,0.558593 1.347657,1.222656 1.796875,1.992187 0.472656,0.75 0.707032,1.636719 0.707032,2.664063 0,1.261718 -0.34375,2.363281 -1.027344,3.304687 -0.664063,0.941406 -1.605469,1.667969 -2.824219,2.183594 -1.199219,0.511719 -2.589844,0.769531 -4.171875,0.769531 -2.570312,0 -4.558594,-0.546875 -5.972656,-1.636719 -1.390625,-1.089843 -2.085938,-2.589843 -2.085938,-4.492187 0,-1.585938 0.429688,-2.859375 1.285156,-3.820313 0.855469,-0.964843 1.894532,-1.746093 3.113282,-2.34375 -1.027344,-0.640625 -1.902344,-1.410156 -2.632813,-2.308593 -0.703125,-0.921876 -1.058593,-2.066407 -1.058593,-3.4375 0,-1.218749 0.34375,-2.234375 1.027343,-3.046875 0.683594,-0.8125 1.582031,-1.421874 2.695313,-1.832031 1.136718,-0.40625 2.34375,-0.609375 3.628906,-0.609375 z m -0.03125,3.53125 c -0.792969,0 -1.457031,0.203125 -1.988281,0.609375 -0.515625,0.406249 -0.773438,0.984374 -0.773438,1.734374 0,0.792969 0.28125,1.433594 0.835938,1.925782 0.554687,0.492187 1.207031,0.917968 1.957031,1.285156 0.726562,-0.34375 1.371094,-0.75 1.925781,-1.222656 0.558594,-0.492188 0.835938,-1.152344 0.835938,-1.988282 0,-0.75 -0.269531,-1.328125 -0.804688,-1.734374 -0.511719,-0.40625 -1.175781,-0.609375 -1.988281,-0.609375 z m -3.53125,13.578124 c 0,0.832031 0.289062,1.519531 0.867188,2.054688 0.597656,0.53125 1.476562,0.800781 2.632812,0.800781 1.195312,0 2.097656,-0.257812 2.695312,-0.769531 0.597657,-0.515625 0.898438,-1.199219 0.898438,-2.054688 0,-0.578125 -0.171875,-1.082031 -0.515625,-1.507812 -0.339844,-0.449219 -0.769531,-0.847657 -1.28125,-1.1875 -0.492187,-0.363281 -1.007813,-0.695313 -1.542969,-0.996094 l -0.414062,-0.226563 c -0.984375,0.472657 -1.789063,1.019532 -2.410156,1.640626 -0.617188,0.617187 -0.929688,1.367187 -0.929688,2.246093 z m 29.914062,-5.359375 c 0,2.457032 -0.269531,4.566406 -0.804687,6.320313 -0.511719,1.753906 -1.355469,3.101562 -2.535156,4.042969 -1.152344,0.941406 -2.714844,1.414062 -4.683594,1.414062 -2.761719,0 -4.785156,-1.039062 -6.066406,-3.113281 -1.285157,-2.097657 -1.925781,-4.984375 -1.925781,-8.664063 0,-2.484375 0.257812,-4.601562 0.769531,-6.355468 0.511719,-1.753906 1.359375,-3.105468 2.535156,-4.046875 1.175781,-0.941406 2.738281,-1.410156 4.6875,-1.410156 2.738281,0 4.757813,1.039063 6.066406,3.113282 1.304688,2.074217 1.957031,4.972655 1.957031,8.699217 z m -11.203124,0 c 0,2.609375 0.226562,4.578125 0.675781,5.902344 0.449219,1.304688 1.28125,1.960938 2.503906,1.960938 1.195313,0 2.03125,-0.65625 2.503906,-1.960938 0.46875,-1.304688 0.703125,-3.273438 0.703125,-5.902344 0,-2.613281 -0.234375,-4.582031 -0.703125,-5.90625 -0.472656,-1.328125 -1.308593,-1.992186 -2.503906,-1.992186 -1.222656,0 -2.054687,0.664061 -2.503906,1.992186 -0.449219,1.324219 -0.675781,3.292969 -0.675781,5.90625 z m 0,0"
     id="path4"
     style="fill:#999999" />
</svg>
