<?xml version="1.0" encoding="UTF-8" standalone="no"?>
<svg
   width="100"
   height="40"
   viewBox="0 0 100 40"
   version="1.1"
   id="svg4"
   sodipodi:docname="1920x1080.svg"
   inkscape:version="1.4.3 (0d15f75042, 2025-12-25)"
   xmlns:inkscape="http://www.inkscape.org/namespaces/inkscape"
   xmlns:sodipodi="http://sodipodi.sourceforge.net/DTD/sodipodi-0.dtd"
   xmlns="http://www.w3.org/2000/svg"
   xmlns:svg="http://www.w3.org/2000/svg">
  <defs
     id="defs4" />
  <sodipodi:namedview
     id="namedview4"
     pagecolor="#ffffff"
     bordercolor="#999999"
     borderopacity="1"
     inkscape:showpageshadow="2"
     inkscape:pageopacity="0"
     inkscape:pagecheckerboard="0"
     inkscape:deskcolor="#d1d1d1"
     inkscape:zoom="6.4097837"
     inkscape:cx="51.951831"
     inkscape:cy="50.157699"
     inkscape:window-width="1920"
     inkscape:window-height="1172"
     inkscape:window-x="0"
     inkscape:window-y="0"
     inkscape:window-maximized="1"
     inkscape:current-layer="svg4" />
  <path
     style="baseline-shift:baseline;display:inline;overflow:visible;opacity:1;vector-effect:none;stroke-miterlimit:2.7;enable-background:accumulate;stop-color:#000000;stop-opacity:1"
     d="M 1.6397501,0.94833599 V 40.950289 H 6.1885782 V 5.4991172 H 101.64561 V 0.94833599 Z"
     id="path1" />
  <path
     style="baseline-shift:baseline;display:inline;overflow:visible;vector-effect:none;fill:#999999;stroke-miterlimit:2.7;enable-background:accumulate;stop-color:#000000;stop-opacity:1;opacity:1"
     d="M 0,0 V 40.001953 H 4.5488281 V 4.5488281 H 100.00586 V 0 Z"
     id="path2" />
  <path
     fill-rule="nonzero"
     fill="#000000"
     fill-opacity="1"
     d="M 29.28179,34.224167 H 24.434134 V 20.966354 c 0,-0.554687 0.01172,-1.28125 0.03125,-2.179687 0.04297,-0.898438 0.07422,-1.691407 0.09375,-2.375 -0.105469,0.128906 -0.339844,0.363281 -0.703125,0.703124 -0.34375,0.324219 -0.664063,0.613282 -0.964844,0.867188 l -2.632812,2.121094 -2.339844,-2.921875 7.378906,-5.874999 h 3.980469 z M 51.586477,21.09526 c 0,1.304688 -0.09766,2.613281 -0.289062,3.917969 -0.191406,1.28125 -0.535156,2.503906 -1.027344,3.65625 -0.46875,1.136719 -1.144531,2.152344 -2.019531,3.050781 -0.859375,0.878907 -1.960937,1.574219 -3.308594,2.085938 -1.324219,0.492187 -2.941406,0.738281 -4.84375,0.738281 -0.449219,0 -0.976562,-0.02344 -1.574219,-0.0625 -0.597656,-0.02344 -1.101562,-0.07813 -1.507812,-0.164062 v -3.882813 c 0.425781,0.08594 0.875,0.160156 1.347656,0.226563 0.46875,0.0625 0.941406,0.09375 1.410156,0.09375 1.90625,0 3.371094,-0.296876 4.398438,-0.898438 1.046875,-0.617188 1.785156,-1.464844 2.214844,-2.535156 0.429687,-1.070313 0.671875,-2.308594 0.738281,-3.722656 h -0.191406 c -0.449219,0.75 -1.050781,1.378906 -1.796875,1.894531 -0.730469,0.511719 -1.820313,0.769531 -3.277344,0.769531 -1.945312,0 -3.507812,-0.628906 -4.683594,-1.894531 -1.175781,-1.261719 -1.765625,-3.046875 -1.765625,-5.359375 0,-2.480469 0.695313,-4.429687 2.085938,-5.839843 1.414062,-1.414062 3.316406,-2.117188 5.714843,-2.117188 1.558594,0 2.972657,0.363282 4.234376,1.089844 1.261718,0.707032 2.269531,1.808594 3.015624,3.304688 0.75,1.476561 1.125,3.359374 1.125,5.648436 z m -8.28125,-6.160155 c -0.941406,0 -1.710937,0.320313 -2.308593,0.960936 -0.601563,0.644532 -0.898438,1.660157 -0.898438,3.050782 0,1.113281 0.253907,1.988281 0.769531,2.632812 0.511719,0.640625 1.292969,0.960938 2.34375,0.960938 0.726563,0 1.347657,-0.160156 1.859376,-0.480469 0.535156,-0.320313 0.953124,-0.71875 1.253906,-1.1875 0.296875,-0.492187 0.449218,-0.996094 0.449218,-1.507813 0,-0.707031 -0.128906,-1.402343 -0.386718,-2.085937 -0.257813,-0.6875 -0.640625,-1.242187 -1.15625,-1.671875 -0.511719,-0.449218 -1.15625,-0.671874 -1.925782,-0.671874 z M 70.039603,34.224167 H 54.023977 v -3.371094 l 5.746094,-5.808594 c 1.15625,-1.199219 2.085938,-2.195312 2.792969,-2.984375 0.707031,-0.8125 1.21875,-1.542969 1.539063,-2.183594 0.324218,-0.664062 0.484374,-1.367187 0.484374,-2.117187 0,-0.921875 -0.257812,-1.605469 -0.773437,-2.054688 -0.492187,-0.449217 -1.164063,-0.67578 -2.019531,-0.67578 -0.878906,0 -1.734375,0.203125 -2.566406,0.61328 -0.835938,0.40625 -1.714844,0.980469 -2.632813,1.730469 l -2.632813,-3.11328 c 0.664063,-0.578125 1.359376,-1.113282 2.085938,-1.605469 0.75,-0.492187 1.605469,-0.886719 2.566406,-1.1875 0.984375,-0.320313 2.164063,-0.480469 3.53125,-0.480469 1.5,0 2.78125,0.277344 3.851563,0.835938 1.09375,0.535156 1.925781,1.273437 2.503906,2.214844 0.597656,0.917968 0.898437,1.968749 0.898437,3.14453 0,1.261719 -0.257812,2.417969 -0.769531,3.464843 -0.492187,1.050782 -1.21875,2.085938 -2.183593,3.113282 -0.941407,1.027344 -2.085938,2.160156 -3.433594,3.402344 l -2.953125,2.761718 v 0.222656 h 9.980469 z M 88.270071,22.767135 c 0,2.457032 -0.265625,4.566406 -0.800781,6.320313 -0.511719,1.753906 -1.359375,3.101562 -2.535156,4.042969 -1.15625,0.941406 -2.71875,1.414062 -4.6875,1.414062 -2.757813,0 -4.78125,-1.039062 -6.066407,-3.113281 -1.28125,-2.097657 -1.925781,-4.984375 -1.925781,-8.664063 0,-2.484375 0.257813,-4.601562 0.773438,-6.355468 0.511719,-1.753906 1.355469,-3.105468 2.535156,-4.046875 1.175781,-0.941406 2.738281,-1.410156 4.683594,-1.410156 2.738281,0 4.761719,1.039063 6.066406,3.113282 1.304687,2.074217 1.957031,4.972655 1.957031,8.699217 z m -11.199218,0 c 0,2.609375 0.222656,4.578125 0.671874,5.902344 0.449219,1.304688 1.285157,1.960938 2.503907,1.960938 1.199219,0 2.035156,-0.65625 2.503906,-1.960938 0.472656,-1.304688 0.707031,-3.273438 0.707031,-5.902344 0,-2.613281 -0.234375,-4.582031 -0.707031,-5.90625 -0.46875,-1.328125 -1.304687,-1.992186 -2.503906,-1.992186 -1.21875,0 -2.054688,0.664061 -2.503907,1.992186 -0.449218,1.324219 -0.671874,3.292969 -0.671874,5.90625 z m 0,0"
     id="path4"
     style="fill:#999999" />
</svg>
