<?xml version="1.0" encoding="UTF-8" standalone="no"?>
<svg
   width="100"
   height="40"
   viewBox="0 0 100 40"
   version="1.1"
   id="svg4"
   sodipodi:docname="3840x2160.svg"
   inkscape:version="1.4.3 (0d15f75042, 2025-12-25)"
   xmlns:inkscape="http://www.inkscape.org/namespaces/inkscape"
   xmlns:sodipodi="http://sodipodi.sourceforge.net/DTD/sodipodi-0.dtd"
   xmlns="http://www.w3.org/2000/svg"
   xmlns:svg="http://www.w3.org/2000/svg">
  <defs
     id="defs4" />
  <sodipodi:namedview
     id="namedview4"
     pagecolor="#ffffff"
     bordercolor="#999999"
     borderopacity="1"
     inkscape:showpageshadow="2"
     inkscape:pageopacity="0"
     inkscape:pagecheckerboard="0"
     inkscape:deskcolor="#d1d1d1"
     inkscape:zoom="9.064803"
     inkscape:cx="41.203322"
     inkscape:cy="20.132815"
     inkscape:window-width="1920"
     inkscape:window-height="1172"
     inkscape:window-x="0"
     inkscape:window-y="0"
     inkscape:window-maximized="1"
     inkscape:current-layer="svg4" />
  <path
     style="baseline-shift:baseline;display:inline;overflow:visible;opacity:1;vector-effect:none;stroke-miterlimit:2.7;enable-background:accumulate;stop-color:#000000;stop-opacity:1"
     d="M 1.6397501,0.94833602 V 40.950289 H 6.1885782 V 5.4991172 H 101.64561 V 0.94833602 Z"
     id="path1" />
  <path
     style="baseline-shift:baseline;display:inline;overflow:visible;vector-effect:none;fill:#999999;stroke-miterlimit:2.7;enable-background:accumulate;stop-color:#000000;stop-opacity:1;opacity:1"
     d="M 0,0 V 40.001953 H 4.5488281 V 4.5488281 H 100.00586 V 0 Z"
     id="path2" />
  <path
     fill-rule="nonzero"
     fill="#000000"
     fill-opacity="1"
     d="m 32.76575,16.443452 c 0,1.582031 -0.480468,2.84375 -1.445312,3.785156 -0.941406,0.941406 -2.105469,1.585937 -3.5,1.925781 v 0.09766 c 1.84375,0.214844 3.234375,0.769531 4.175781,1.667969 0.960937,0.898438 1.441406,2.109375 1.441406,3.628906 0,1.324219 -0.332031,2.523438 -0.992187,3.59375 -0.644532,1.046875 -1.648438,1.882813 -3.019532,2.503906 -1.347656,0.597657 -3.089843,0.898438 -5.230468,0.898438 -2.480469,0 -4.6875,-0.417969 -6.613282,-1.25 v -4.109375 c 0.984376,0.492187 2.011719,0.867187 3.082032,1.121094 1.09375,0.257812 2.097656,0.386719 3.019531,0.386719 1.730469,0 2.941406,-0.300782 3.625,-0.898438 0.707031,-0.597656 1.058594,-1.445312 1.058594,-2.535156 0,-0.640625 -0.160157,-1.175782 -0.480469,-1.605469 -0.320312,-0.449219 -0.886719,-0.78125 -1.703125,-0.996094 -0.789063,-0.234375 -1.902344,-0.351562 -3.335937,-0.351562 H 21.113406 V 20.58408 h 1.765626 c 1.414062,0 2.484374,-0.128906 3.210937,-0.386718 0.75,-0.277344 1.25,-0.640625 1.507813,-1.089844 0.277343,-0.472656 0.417968,-1.007812 0.417968,-1.605469 0,-0.8125 -0.257812,-1.445312 -0.769531,-1.894531 -0.492187,-0.468754 -1.328125,-0.703129 -2.503906,-0.703129 -1.09375,0 -2.042969,0.191406 -2.859375,0.574219 -0.789063,0.367187 -1.464844,0.730468 -2.019532,1.09375 l -2.246093,-3.339844 c 0.898437,-0.640625 1.945312,-1.175781 3.144531,-1.605469 1.21875,-0.425781 2.664062,-0.640625 4.332031,-0.640625 2.355469,0 4.214844,0.480469 5.585938,1.445313 1.390625,0.941406 2.085937,2.277343 2.085937,4.011719 z M 43.902469,11.01767 c 1.328125,0 2.535156,0.203125 3.625,0.609375 1.113281,0.410157 2.003906,1.019531 2.664063,1.832031 0.6875,0.8125 1.027343,1.839844 1.027343,3.082032 0,1.367187 -0.394531,2.5 -1.1875,3.402344 -0.769531,0.875 -1.742187,1.601562 -2.917969,2.179687 0.8125,0.429687 1.582032,0.929687 2.308594,1.507813 0.75,0.558593 1.347656,1.222656 1.796875,1.992187 0.472657,0.75 0.707031,1.636719 0.707031,2.664063 0,1.261718 -0.34375,2.363281 -1.027343,3.304687 -0.664063,0.941406 -1.605469,1.667969 -2.824219,2.183594 -1.199219,0.511719 -2.589844,0.769531 -4.171875,0.769531 -2.566406,0 -4.558594,-0.546875 -5.96875,-1.636719 -1.390625,-1.089843 -2.085937,-2.589843 -2.085937,-4.492187 0,-1.585938 0.425781,-2.859375 1.28125,-3.820313 0.855468,-0.964843 1.894531,-1.746093 3.113281,-2.34375 -1.027344,-0.640625 -1.902344,-1.410156 -2.628907,-2.308593 -0.707031,-0.921876 -1.0625,-2.066407 -1.0625,-3.4375 0,-1.21875 0.34375,-2.234376 1.027344,-3.046876 0.6875,-0.8125 1.585938,-1.421874 2.695313,-1.832031 1.136719,-0.40625 2.34375,-0.609375 3.628906,-0.609375 z m -0.03125,3.53125 c -0.792969,0 -1.453125,0.203125 -1.988281,0.609375 -0.515625,0.40625 -0.769532,0.984375 -0.769532,1.734375 0,0.792969 0.277344,1.433594 0.832032,1.925782 0.558594,0.492187 1.210937,0.917968 1.957031,1.285156 0.730469,-0.34375 1.371094,-0.75 1.925781,-1.222656 0.558594,-0.492188 0.835938,-1.152344 0.835938,-1.988282 0,-0.75 -0.265625,-1.328125 -0.800782,-1.734375 -0.515624,-0.40625 -1.179687,-0.609375 -1.992187,-0.609375 z m -3.53125,13.578125 c 0,0.832031 0.289063,1.519531 0.867187,2.054688 0.601563,0.53125 1.476563,0.800781 2.632813,0.800781 1.199219,0 2.097656,-0.257812 2.695313,-0.769531 0.597656,-0.515625 0.898437,-1.199219 0.898437,-2.054688 0,-0.578125 -0.171875,-1.082031 -0.511719,-1.507812 -0.34375,-0.449219 -0.769531,-0.847657 -1.285156,-1.1875 -0.492188,-0.363281 -1.003906,-0.695313 -1.539062,-0.996094 l -0.417969,-0.226563 c -0.984375,0.472657 -1.789063,1.019532 -2.40625,1.640626 -0.621094,0.617187 -0.933594,1.367187 -0.933594,2.246093 z m 30.554687,1.347657 h -2.761718 v 4.75 h -4.71875 v -4.75 H 53.625125 V 26.103608 L 63.672,11.306733 h 4.460938 v 14.410156 h 2.761718 z m -7.480468,-7.640626 c 0,-0.492187 0.01172,-1.089843 0.03125,-1.796874 0.01953,-0.707032 0.04297,-1.359376 0.06641,-1.957032 0.04297,-0.621094 0.07422,-1.027344 0.09375,-1.21875 h -0.128906 c -0.191406,0.425782 -0.394532,0.84375 -0.609375,1.25 -0.214844,0.40625 -0.46875,0.824219 -0.769531,1.253906 l -4.203126,6.351563 h 5.519532 z M 88.6095,22.76767 c 0,2.457032 -0.265625,4.566406 -0.800781,6.320313 -0.511719,1.753906 -1.359375,3.101562 -2.535156,4.042969 -1.15625,0.941406 -2.71875,1.414062 -4.6875,1.414062 -2.757813,0 -4.78125,-1.039062 -6.066407,-3.113281 -1.28125,-2.097657 -1.925781,-4.984375 -1.925781,-8.664063 0,-2.484375 0.257813,-4.601562 0.773438,-6.355468 0.511719,-1.753907 1.355469,-3.105469 2.535156,-4.046876 1.175781,-0.941406 2.738281,-1.410156 4.683594,-1.410156 2.738281,0 4.761719,1.039063 6.066406,3.113282 1.304687,2.074218 1.957031,4.972656 1.957031,8.699218 z m -11.199218,0 c 0,2.609375 0.222656,4.578125 0.671874,5.902344 0.449219,1.304688 1.285157,1.960938 2.503907,1.960938 1.199219,0 2.035156,-0.65625 2.503906,-1.960938 0.472656,-1.304688 0.707031,-3.273438 0.707031,-5.902344 0,-2.613281 -0.234375,-4.582031 -0.707031,-5.90625 -0.46875,-1.328125 -1.304687,-1.992187 -2.503906,-1.992187 -1.21875,0 -2.054688,0.664062 -2.503907,1.992187 -0.449218,1.324219 -0.671874,3.292969 -0.671874,5.90625 z m 0,0"
     id="path4"
     style="fill:#999999" />
</svg>
