<?xml version="1.0" encoding="UTF-8" standalone="no"?>
<svg
   width="100"
   height="40"
   viewBox="0 0 100 40"
   version="1.1"
   id="svg4"
   sodipodi:docname="4k.svg"
   inkscape:version="1.4.3 (0d15f75042, 2025-12-25)"
   xmlns:inkscape="http://www.inkscape.org/namespaces/inkscape"
   xmlns:sodipodi="http://sodipodi.sourceforge.net/DTD/sodipodi-0.dtd"
   xmlns="http://www.w3.org/2000/svg"
   xmlns:svg="http://www.w3.org/2000/svg">
  <defs
     id="defs4" />
  <sodipodi:namedview
     id="namedview4"
     pagecolor="#ffffff"
     bordercolor="#999999"
     borderopacity="1"
     inkscape:showpageshadow="2"
     inkscape:pageopacity="0"
     inkscape:pagecheckerboard="0"
     inkscape:deskcolor="#d1d1d1"
     inkscape:zoom="9.0648029"
     inkscape:cx="49.256449"
     inkscape:cy="18.147113"
     inkscape:window-width="1920"
     inkscape:window-height="1172"
     inkscape:window-x="0"
     inkscape:window-y="0"
     inkscape:window-maximized="1"
     inkscape:current-layer="svg4" />
  <path
     style="baseline-shift:baseline;display:inline;overflow:visible;opacity:1;vector-effect:none;stroke-miterlimit:2.7;enable-background:accumulate;stop-color:#000000;stop-opacity:1"
     d="M 1.640625,0.94921878 V 40.951172 H 6.1894531 V 5.4980469 H 101.64648 V 0.94921878 Z"
     id="path1" />
  <path
     style="baseline-shift:baseline;display:inline;overflow:visible;vector-effect:none;fill:#999999;stroke-miterlimit:2.7;enable-background:accumulate;stop-color:#000000;stop-opacity:1;opacity:1"
     d="M 0,0 V 40.001953 H 4.5488281 V 4.5488281 H 100.00586 V 0 Z"
     id="path2" />
  <path
     fill-rule="nonzero"
     fill="#000000"
     fill-opacity="1"
     d="m 50.801757,29.458007 h -2.761718 v 4.75 h -4.71875 v -4.75 H 33.532226 V 26.086914 L 43.579101,11.29004 h 4.460938 v 14.410155 h 2.761718 z m -7.480468,-7.640624 c 0,-0.492188 0.01172,-1.089844 0.03125,-1.796876 0.01953,-0.707031 0.04297,-1.359374 0.0625,-1.957031 0.04297,-0.621093 0.07812,-1.027343 0.09766,-1.21875 h -0.128906 c -0.191407,0.425781 -0.394532,0.84375 -0.609376,1.25 -0.214843,0.40625 -0.46875,0.824219 -0.769531,1.253907 l -4.203129,6.351562 h 5.519532 z m 29.335937,12.390624 h -5.519531 l -6.003906,-9.660156 -2.050782,1.476563 v 8.183593 H 54.235351 V 11.29004 h 4.847656 v 10.496093 c 0.320313,-0.449219 0.640625,-0.898438 0.960938,-1.347657 0.320312,-0.449219 0.640625,-0.898437 0.964844,-1.347656 l 6.191406,-7.80078 h 5.394531 l -7.992187,10.14453 z m 0,0"
     id="path4"
     style="fill:#999999" />
</svg>
