<?xml version="1.0" encoding="UTF-8" standalone="no"?>
<svg
   width="100"
   height="40"
   viewBox="0 0 100 40"
   version="1.1"
   id="svg4"
   sodipodi:docname="720x576.svg"
   inkscape:version="1.4.3 (0d15f75042, 2025-12-25)"
   xmlns:inkscape="http://www.inkscape.org/namespaces/inkscape"
   xmlns:sodipodi="http://sodipodi.sourceforge.net/DTD/sodipodi-0.dtd"
   xmlns="http://www.w3.org/2000/svg"
   xmlns:svg="http://www.w3.org/2000/svg">
  <defs
     id="defs4" />
  <sodipodi:namedview
     id="namedview4"
     pagecolor="#ffffff"
     bordercolor="#999999"
     borderopacity="1"
     inkscape:showpageshadow="2"
     inkscape:pageopacity="0"
     inkscape:pagecheckerboard="0"
     inkscape:deskcolor="#d1d1d1"
     inkscape:zoom="5.6568543"
     inkscape:cx="56.745319"
     inkscape:cy="18.649941"
     inkscape:window-width="1920"
     inkscape:window-height="1172"
     inkscape:window-x="0"
     inkscape:window-y="0"
     inkscape:window-maximized="1"
     inkscape:current-layer="svg4" />
  <path
     style="baseline-shift:baseline;display:inline;overflow:visible;opacity:1;vector-effect:none;stroke-miterlimit:2.7;enable-background:accumulate;stop-color:#000000;stop-opacity:1"
     d="M 1.640625,0.94921879 V 40.951172 H 6.1894531 V 5.4980469 H 101.64648 V 0.94921879 Z"
     id="path1" />
  <path
     fill="none"
     stroke-width="4.54894"
     stroke-linecap="butt"
     stroke-linejoin="miter"
     stroke="#999999"
     stroke-opacity="1"
     stroke-miterlimit="2.7"
     d="M 2.2744701,40.001027 V 2.2744701 H 100.00494"
     id="path2"
     style="display:inline"
     sodipodi:insensitive="true" />
  <path
     fill-rule="nonzero"
     fill="#000000"
     fill-opacity="1"
     d="M 29.282226,34.223634 37.883789,15.383789 H 26.583007 v -4.078125 h 16.433594 v 3.050781 l -8.664062,19.867189 z m 32.09375,0 H 45.360351 V 30.85254 l 5.746094,-5.808594 c 1.15625,-1.199219 2.085937,-2.195312 2.792968,-2.984375 0.703126,-0.8125 1.21875,-1.542969 1.539063,-2.183594 0.320313,-0.664062 0.480469,-1.367187 0.480469,-2.117187 0,-0.921875 -0.253906,-1.605469 -0.769532,-2.054688 -0.492187,-0.449219 -1.164062,-0.675782 -2.023437,-0.675782 -0.875,0 -1.730469,0.203125 -2.566406,0.613282 -0.835938,0.40625 -1.710938,0.980469 -2.632813,1.730469 l -2.628906,-3.113282 c 0.660156,-0.578125 1.355469,-1.113282 2.085938,-1.605469 0.746093,-0.492187 1.601562,-0.886719 2.566406,-1.1875 0.984375,-0.320313 2.160156,-0.480469 3.53125,-0.480469 1.496094,0 2.78125,0.277344 3.851562,0.835938 1.089844,0.535156 1.925782,1.273437 2.503906,2.214844 0.597657,0.917968 0.898438,1.968751 0.898438,3.144532 0,1.261719 -0.257812,2.417969 -0.773438,3.464843 -0.488281,1.050782 -1.21875,2.085938 -2.179687,3.113282 -0.941406,1.027344 -2.085937,2.160156 -3.433594,3.402344 l -2.953125,2.761718 v 0.222656 h 9.980469 z M 79.606445,22.766602 c 0,2.457032 -0.269532,4.566406 -0.800782,6.320313 -0.515624,1.753906 -1.359374,3.101562 -2.539062,4.042969 -1.152344,0.941406 -2.714844,1.414062 -4.683594,1.414062 -2.761718,0 -4.78125,-1.039062 -6.066406,-3.113281 -1.285156,-2.097657 -1.925781,-4.984375 -1.925781,-8.664063 0,-2.484375 0.257812,-4.601562 0.769531,-6.355468 0.515625,-1.753908 1.359375,-3.10547 2.535156,-4.046877 1.179688,-0.941406 2.738282,-1.410156 4.6875,-1.410156 2.738282,0 4.761719,1.039063 6.066406,3.113282 1.304688,2.074219 1.957032,4.972657 1.957032,8.699219 z m -11.203125,0 c 0,2.609375 0.226562,4.578125 0.675781,5.902344 0.449219,1.304688 1.285156,1.960938 2.503906,1.960938 1.199219,0 2.03125,-0.65625 2.503906,-1.960938 0.46875,-1.304688 0.703126,-3.273438 0.703126,-5.902344 0,-2.613281 -0.234376,-4.582031 -0.703126,-5.90625 -0.472656,-1.328125 -1.304687,-1.992188 -2.503906,-1.992188 -1.21875,0 -2.054687,0.664063 -2.503906,1.992188 -0.449219,1.324219 -0.675781,3.292969 -0.675781,5.90625 z m 0,0"
     id="path4"
     style="fill:#999999" />
</svg>
