<?xml version="1.0" encoding="UTF-8" standalone="no"?>
<svg
   width="100"
   height="40"
   viewBox="0 0 100 40"
   version="1.1"
   id="svg4"
   sodipodi:docname="7680x4320.svg"
   inkscape:version="1.4.3 (0d15f75042, 2025-12-25)"
   xmlns:inkscape="http://www.inkscape.org/namespaces/inkscape"
   xmlns:sodipodi="http://sodipodi.sourceforge.net/DTD/sodipodi-0.dtd"
   xmlns="http://www.w3.org/2000/svg"
   xmlns:svg="http://www.w3.org/2000/svg">
  <defs
     id="defs4" />
  <sodipodi:namedview
     id="namedview4"
     pagecolor="#ffffff"
     bordercolor="#999999"
     borderopacity="1"
     inkscape:showpageshadow="2"
     inkscape:pageopacity="0"
     inkscape:pagecheckerboard="0"
     inkscape:deskcolor="#d1d1d1"
     inkscape:zoom="6.4097836"
     inkscape:cx="31.358313"
     inkscape:cy="16.927249"
     inkscape:window-width="1920"
     inkscape:window-height="1172"
     inkscape:window-x="0"
     inkscape:window-y="0"
     inkscape:window-maximized="1"
     inkscape:current-layer="svg4" />
  <path
     style="baseline-shift:baseline;display:inline;overflow:visible;opacity:1;vector-effect:none;stroke-miterlimit:2.7;enable-background:accumulate;stop-color:#000000;stop-opacity:1"
     d="M 1.6397501,0.94833599 V 40.950289 H 6.1885782 V 5.4991172 H 101.64561 V 0.94833599 Z"
     id="path1" />
  <path
     style="baseline-shift:baseline;display:inline;overflow:visible;vector-effect:none;fill:#999999;stroke-miterlimit:2.7;enable-background:accumulate;stop-color:#000000;stop-opacity:1;opacity:1"
     d="M 0,0 V 40.001953 H 4.5488281 V 4.5488281 H 100.00586 V 0 Z"
     id="path2" />
  <path
     fill-rule="nonzero"
     fill="#000000"
     fill-opacity="1"
     d="M 20.098734,34.224704 28.700297,15.38486 H 17.403422 v -4.078125 h 16.433594 v 3.050781 L 25.169047,34.224704 Z M 36.02061,24.498141 c 0,-1.324219 0.09375,-2.632813 0.289062,-3.914063 0.191406,-1.285156 0.523438,-2.492187 0.992188,-3.628906 0.492187,-1.152344 1.167968,-2.171875 2.023437,-3.046875 0.875,-0.898437 1.980469,-1.59375 3.304687,-2.085937 1.347657,-0.515625 2.976563,-0.769532 4.878907,-0.769532 0.449219,0 0.972656,0.01953 1.574219,0.0625 0.597656,0.01953 1.101562,0.07422 1.507812,0.160157 v 3.882812 c -0.40625,-0.105469 -0.855469,-0.179687 -1.347656,-0.222656 -0.472656,-0.06641 -0.941406,-0.09766 -1.414063,-0.09766 -1.902343,0 -3.378906,0.300781 -4.429687,0.898437 -1.027344,0.601563 -1.753906,1.445313 -2.179688,2.535156 -0.429687,1.070313 -0.675781,2.3125 -0.738281,3.722657 h 0.191406 c 0.429688,-0.746094 1.039063,-1.378907 1.828125,-1.890625 0.8125,-0.515625 1.863282,-0.773438 3.148438,-0.773438 2.007812,0 3.601562,0.632813 4.78125,1.894532 1.175781,1.261718 1.765625,3.050781 1.765625,5.359374 0,2.484376 -0.707031,4.429688 -2.121094,5.84375 -1.390625,1.410157 -3.28125,2.117188 -5.679687,2.117188 -1.5625,0 -2.972657,-0.351562 -4.234376,-1.058594 -1.265624,-0.726562 -2.269531,-1.832031 -3.019531,-3.304687 -0.75,-1.5 -1.121093,-3.394531 -1.121093,-5.683594 z m 8.277343,6.164063 c 0.941407,0 1.714844,-0.320313 2.3125,-0.964844 0.597657,-0.664063 0.898438,-1.679688 0.898438,-3.046875 0,-1.113281 -0.257813,-1.992188 -0.769531,-2.632813 -0.515626,-0.640625 -1.296876,-0.964844 -2.34375,-0.964844 -0.707032,0 -1.328126,0.164063 -1.859376,0.484376 -0.535156,0.296874 -0.953124,0.695312 -1.253906,1.1875 -0.300781,0.492187 -0.449218,0.992187 -0.449218,1.507812 0,0.707031 0.128906,1.402344 0.386718,2.085938 0.253906,0.664062 0.640625,1.21875 1.152344,1.667968 0.535156,0.449219 1.179688,0.675782 1.925781,0.675782 z M 62.434672,11.017672 c 1.324219,0 2.535156,0.203125 3.625,0.609375 1.113281,0.410157 2,1.019531 2.664062,1.832031 0.683594,0.8125 1.027344,1.839844 1.027344,3.082032 0,1.367187 -0.394531,2.5 -1.1875,3.402344 -0.769531,0.875 -1.742187,1.601562 -2.921875,2.179687 0.8125,0.429687 1.585938,0.929687 2.3125,1.507813 0.75,0.558593 1.347657,1.222656 1.796875,1.992187 0.472656,0.75 0.707032,1.636719 0.707032,2.664063 0,1.261718 -0.34375,2.363281 -1.027344,3.304687 -0.664063,0.941406 -1.605469,1.667969 -2.824219,2.183594 -1.199219,0.511719 -2.589844,0.769531 -4.171875,0.769531 -2.570312,0 -4.558594,-0.546875 -5.972656,-1.636719 -1.390625,-1.089843 -2.085938,-2.589843 -2.085938,-4.492187 0,-1.585938 0.429688,-2.859375 1.285156,-3.820313 0.855469,-0.964843 1.894532,-1.746093 3.113282,-2.34375 -1.027344,-0.640625 -1.902344,-1.410156 -2.632813,-2.308593 -0.703125,-0.921876 -1.058593,-2.066407 -1.058593,-3.4375 0,-1.21875 0.34375,-2.234376 1.027343,-3.046876 0.683594,-0.8125 1.582031,-1.421874 2.695313,-1.832031 1.136718,-0.40625 2.34375,-0.609375 3.628906,-0.609375 z m -0.03125,3.53125 c -0.792969,0 -1.457031,0.203125 -1.988281,0.609375 -0.515625,0.40625 -0.773438,0.984375 -0.773438,1.734375 0,0.792969 0.28125,1.433594 0.835938,1.925782 0.554687,0.492187 1.207031,0.917968 1.957031,1.285156 0.726562,-0.34375 1.371094,-0.75 1.925781,-1.222656 0.558594,-0.492188 0.835938,-1.152344 0.835938,-1.988282 0,-0.75 -0.269531,-1.328125 -0.804688,-1.734375 -0.511719,-0.40625 -1.175781,-0.609375 -1.988281,-0.609375 z m -3.53125,13.578125 c 0,0.832031 0.289062,1.519531 0.867188,2.054688 0.597656,0.53125 1.476562,0.800781 2.632812,0.800781 1.195312,0 2.097656,-0.257812 2.695312,-0.769531 0.597657,-0.515625 0.898438,-1.199219 0.898438,-2.054688 0,-0.578125 -0.171875,-1.082031 -0.515625,-1.507812 -0.339844,-0.449219 -0.769531,-0.847657 -1.28125,-1.1875 -0.492187,-0.363281 -1.007813,-0.695313 -1.542969,-0.996094 l -0.414062,-0.226563 c -0.984375,0.472657 -1.789063,1.019532 -2.410156,1.640626 -0.617188,0.617187 -0.929688,1.367187 -0.929688,2.246093 z m 29.914062,-5.359375 c 0,2.457032 -0.269531,4.566406 -0.804687,6.320313 -0.511719,1.753906 -1.355469,3.101562 -2.535156,4.042969 -1.152344,0.941406 -2.714844,1.414062 -4.683594,1.414062 -2.761719,0 -4.785156,-1.039062 -6.066406,-3.113281 -1.285157,-2.097657 -1.925781,-4.984375 -1.925781,-8.664063 0,-2.484375 0.257812,-4.601562 0.769531,-6.355468 0.511719,-1.753907 1.359375,-3.105469 2.535156,-4.046876 1.175781,-0.941406 2.738281,-1.410156 4.6875,-1.410156 2.738281,0 4.757813,1.039063 6.066406,3.113282 1.304688,2.074218 1.957031,4.972656 1.957031,8.699218 z m -11.203124,0 c 0,2.609375 0.226562,4.578125 0.675781,5.902344 0.449219,1.304688 1.28125,1.960938 2.503906,1.960938 1.195313,0 2.03125,-0.65625 2.503906,-1.960938 0.46875,-1.304688 0.703125,-3.273438 0.703125,-5.902344 0,-2.613281 -0.234375,-4.582031 -0.703125,-5.90625 -0.472656,-1.328125 -1.308593,-1.992187 -2.503906,-1.992187 -1.222656,0 -2.054687,0.664062 -2.503906,1.992187 -0.449219,1.324219 -0.675781,3.292969 -0.675781,5.90625 z m 0,0"
     id="path4"
     style="fill:#999999" />
</svg>
