<?xml version="1.0" encoding="UTF-8" standalone="no"?>
<svg
   width="100"
   height="40"
   viewBox="0 0 100 39.999999"
   version="1.1"
   id="svg4"
   sodipodi:docname="8k.svg"
   inkscape:version="1.4.3 (0d15f75042, 2025-12-25)"
   xmlns:inkscape="http://www.inkscape.org/namespaces/inkscape"
   xmlns:sodipodi="http://sodipodi.sourceforge.net/DTD/sodipodi-0.dtd"
   xmlns="http://www.w3.org/2000/svg"
   xmlns:svg="http://www.w3.org/2000/svg">
  <defs
     id="defs4" />
  <sodipodi:namedview
     id="namedview4"
     pagecolor="#ffffff"
     bordercolor="#999999"
     borderopacity="1"
     inkscape:showpageshadow="2"
     inkscape:pageopacity="0"
     inkscape:pagecheckerboard="0"
     inkscape:deskcolor="#d1d1d1"
     inkscape:zoom="9.064803"
     inkscape:cx="53.117536"
     inkscape:cy="30.61291"
     inkscape:window-width="1920"
     inkscape:window-height="1172"
     inkscape:window-x="0"
     inkscape:window-y="0"
     inkscape:window-maximized="1"
     inkscape:current-layer="svg4" />
  <path
     style="baseline-shift:baseline;display:inline;overflow:visible;opacity:1;vector-effect:none;stroke-miterlimit:2.7;enable-background:accumulate;stop-color:#000000;stop-opacity:1"
     d="M 1.640625,0.94921879 V 40.951172 H 6.1894531 V 5.4980469 H 101.64648 V 0.94921879 Z"
     id="path1" />
  <path
     style="baseline-shift:baseline;display:inline;overflow:visible;vector-effect:none;fill:#999999;stroke-miterlimit:2.7;enable-background:accumulate;stop-color:#000000;stop-opacity:1;opacity:1"
     d="M 0,0 V 40.001953 H 4.5488281 V 4.5488281 H 100.00586 V 0 Z"
     id="path2" />
  <path
     fill-rule="nonzero"
     fill="#000000"
     fill-opacity="1"
     d="m 41.874022,10.985352 c 1.328124,0 2.539062,0.203125 3.628906,0.609375 1.113281,0.40625 2,1.019532 2.664062,1.832032 0.683594,0.8125 1.027344,1.839843 1.027344,3.078124 0,1.371094 -0.394531,2.503906 -1.1875,3.402344 -0.769531,0.878906 -1.746094,1.605468 -2.921875,2.183593 0.8125,0.429688 1.582031,0.929688 2.3125,1.507812 0.746094,0.558594 1.347656,1.222658 1.796875,1.992188 0.46875,0.746094 0.707031,1.636719 0.707031,2.664062 0,1.261719 -0.34375,2.363282 -1.027343,3.304688 -0.664063,0.941406 -1.605469,1.667969 -2.824219,2.183594 -1.199219,0.511718 -2.589844,0.769531 -4.175781,0.769531 -2.566407,0 -4.554688,-0.546875 -5.96875,-1.636719 -1.390626,-1.09375 -2.085938,-2.589844 -2.085938,-4.492187 0,-1.585938 0.429688,-2.859375 1.285156,-3.820313 0.855469,-0.964844 1.894532,-1.746094 3.113282,-2.34375 -1.027344,-0.640625 -1.90625,-1.414061 -2.632813,-2.312499 -0.707031,-0.917968 -1.058594,-2.0625 -1.058594,-3.433594 0,-1.21875 0.34375,-2.234374 1.027344,-3.046874 0.683594,-0.8125 1.582031,-1.425782 2.695313,-1.832032 1.132812,-0.40625 2.34375,-0.609375 3.625,-0.609375 z m -0.02734,3.53125 c -0.792969,0 -1.457032,0.203125 -1.992188,0.609375 -0.511718,0.40625 -0.769531,0.984375 -0.769531,1.734374 0,0.792969 0.277344,1.433594 0.835937,1.925781 0.554688,0.492189 1.207032,0.917969 1.957032,1.28125 0.726562,-0.339843 1.371094,-0.746093 1.925781,-1.21875 0.554687,-0.492186 0.835937,-1.15625 0.835937,-1.988281 0,-0.749999 -0.269531,-1.328124 -0.804687,-1.734374 -0.511719,-0.40625 -1.175781,-0.609375 -1.988281,-0.609375 z m -3.53125,13.578124 c 0,0.832033 0.289062,1.515625 0.867187,2.050782 0.597657,0.535156 1.476563,0.804687 2.632813,0.804687 1.195312,0 2.09375,-0.257813 2.695312,-0.769531 0.597656,-0.515625 0.898438,-1.199219 0.898438,-2.054688 0,-0.578125 -0.171875,-1.082031 -0.515625,-1.507812 -0.339844,-0.449219 -0.769531,-0.847656 -1.28125,-1.1875 -0.492192,-0.367188 -1.007817,-0.695313 -1.542973,-0.996094 l -0.417969,-0.226562 c -0.984375,0.472656 -1.785156,1.019531 -2.40625,1.636718 -0.621093,0.621094 -0.929687,1.371094 -0.929687,2.25 z m 34.054687,6.097656 h -5.523437 l -6,-9.660156 -2.054688,1.476563 v 8.183593 h -4.84766 V 11.274415 h 4.847656 v 10.496093 c 0.320313,-0.449218 0.640625,-0.898437 0.960938,-1.347656 0.324218,-0.449219 0.644531,-0.898437 0.964844,-1.347656 l 6.195312,-7.800781 h 5.390625 l -7.992187,10.144531 z m 0,0"
     id="path4"
     style="fill:#999999" />
</svg>
