<?xml version="1.0" encoding="UTF-8" standalone="no"?>
<!-- Created with Inkscape (http://www.inkscape.org/) -->

<svg
   width="192"
   height="80"
   viewBox="0 0 50.799999 21.166667"
   version="1.1"
   id="svg1"
   sodipodi:docname="logo.svg"
   xml:space="preserve"
   inkscape:version="1.4.3 (0d15f75, 2025-12-25)"
   inkscape:export-filename="../png/logo.png"
   inkscape:export-xdpi="96"
   inkscape:export-ydpi="96"
   xmlns:inkscape="http://www.inkscape.org/namespaces/inkscape"
   xmlns:sodipodi="http://sodipodi.sourceforge.net/DTD/sodipodi-0.dtd"
   xmlns:xlink="http://www.w3.org/1999/xlink"
   xmlns="http://www.w3.org/2000/svg"
   xmlns:svg="http://www.w3.org/2000/svg"><sodipodi:namedview
     id="namedview1"
     pagecolor="#ffffff"
     bordercolor="#999999"
     borderopacity="1"
     inkscape:showpageshadow="true"
     inkscape:pageopacity="0"
     inkscape:pagecheckerboard="false"
     inkscape:deskcolor="#d1d1d1"
     inkscape:document-units="px"
     inkscape:zoom="3.421875"
     inkscape:cx="96"
     inkscape:cy="39.890411"
     inkscape:window-width="1920"
     inkscape:window-height="1129"
     inkscape:window-x="-8"
     inkscape:window-y="-8"
     inkscape:window-maximized="1"
     inkscape:current-layer="svg1"
     showgrid="false"
     showborder="true"
     borderlayer="true"
     showguides="true"><inkscape:grid
       type="axonomgrid"
       id="grid1"
       units="mm"
       originx="11.784845"
       originy="11.943265"
       spacingx="1"
       spacingy="1"
       empcolor="#0099e5"
       empopacity="0.30196078"
       color="#0099e5"
       opacity="0.14901961"
       empspacing="5"
       dotted="false"
       gridanglex="30"
       gridanglez="30"
       enabled="true"
       visible="false" /><inkscape:page
       x="0"
       y="0"
       width="50.799999"
       height="21.166668"
       id="page1"
       margin="0"
       bleed="0" /><sodipodi:guide
       position="45.420483,1.3125814"
       orientation="0,-1"
       id="guide1"
       inkscape:locked="false" /><sodipodi:guide
       position="20.492806,19.841683"
       orientation="0,-1"
       id="guide2"
       inkscape:locked="false" /></sodipodi:namedview><defs
     id="defs1"><linearGradient
       id="linearGradient7"
       inkscape:collect="always"><stop
         style="stop-color:#ffffdd;stop-opacity:1;"
         offset="0"
         id="stop2" /><stop
         style="stop-color:#afaf80;stop-opacity:1;"
         offset="0.5"
         id="stop3" /><stop
         style="stop-color:#afaf80;stop-opacity:1;"
         offset="0.75"
         id="stop4" /><stop
         style="stop-color:#ffffdd;stop-opacity:1;"
         offset="1"
         id="stop7" /></linearGradient><linearGradient
       id="linearGradient21"
       inkscape:collect="always"><stop
         style="stop-color:#9093be;stop-opacity:1;"
         offset="0"
         id="stop21" /><stop
         style="stop-color:#000669;stop-opacity:1;"
         offset="0.5"
         id="stop23" /><stop
         style="stop-color:#000669;stop-opacity:1;"
         offset="0.75"
         id="stop24" /><stop
         style="stop-color:#9093be;stop-opacity:1;"
         offset="1"
         id="stop22" /></linearGradient><linearGradient
       id="linearGradient5"
       inkscape:collect="always"><stop
         style="stop-color:#ffffdd;stop-opacity:1;"
         offset="0"
         id="stop5" /><stop
         style="stop-color:#afaf80;stop-opacity:1;"
         offset="0.5"
         id="stop9" /><stop
         style="stop-color:#afaf80;stop-opacity:1;"
         offset="0.75"
         id="stop10" /><stop
         style="stop-color:#ffffdd;stop-opacity:1;"
         offset="1"
         id="stop6" /></linearGradient><linearGradient
       id="linearGradient27"
       inkscape:collect="always"><stop
         style="stop-color:#ffffff;stop-opacity:1"
         offset="0"
         id="stop27" /><stop
         style="stop-color:#0000ff;stop-opacity:0;"
         offset="1"
         id="stop28" /></linearGradient><marker
       id="DistanceX"
       orient="auto"
       refX="0"
       refY="0"
       style="overflow:visible"><path
         d="M 3,-3 -3,3 M 0,-5 V 5"
         style="stroke:#000000;stroke-width:0.5"
         id="path1" /></marker><pattern
       id="Hatch"
       patternUnits="userSpaceOnUse"
       width="8"
       height="8"
       x="0"
       y="0"><path
         d="M8 4 l-4,4"
         stroke="#000000"
         stroke-width="0.25"
         linecap="square"
         id="path2" /><path
         d="M6 2 l-4,4"
         stroke="#000000"
         stroke-width="0.25"
         linecap="square"
         id="path3" /><path
         d="M4 0 l-4,4"
         stroke="#000000"
         stroke-width="0.25"
         linecap="square"
         id="path4" /></pattern><symbol
       id="*Model_Space" /><symbol
       id="*Paper_Space" /><symbol
       id="*Paper_Space0" /><marker
       id="DistanceX-7"
       orient="auto"
       refX="0"
       refY="0"
       style="overflow:visible"><path
         d="M 3,-3 -3,3 M 0,-5 V 5"
         style="stroke:#000000;stroke-width:0.5"
         id="path1-0" /></marker><pattern
       id="Hatch-9"
       patternUnits="userSpaceOnUse"
       width="8"
       height="8"
       x="0"
       y="0"><path
         d="M8 4 l-4,4"
         stroke="#000000"
         stroke-width="0.25"
         linecap="square"
         id="path2-3" /><path
         d="M6 2 l-4,4"
         stroke="#000000"
         stroke-width="0.25"
         linecap="square"
         id="path3-6" /><path
         d="M4 0 l-4,4"
         stroke="#000000"
         stroke-width="0.25"
         linecap="square"
         id="path4-0" /></pattern><symbol
       id="*Model_Space-6" /><symbol
       id="*Paper_Space-2" /><symbol
       id="*Paper_Space0-6" /><filter
       inkscape:collect="always"
       style="color-interpolation-filters:sRGB"
       id="filter13"
       x="-0.084396482"
       y="-0.081953915"
       width="1.168793"
       height="1.1639078"><feGaussianBlur
         inkscape:collect="always"
         stdDeviation="19.359222"
         id="feGaussianBlur13" /></filter><filter
       inkscape:collect="always"
       style="color-interpolation-filters:sRGB"
       id="filter14"
       x="-0.097474617"
       y="-0.08195398"
       width="1.1949492"
       height="1.163908"><feGaussianBlur
         inkscape:collect="always"
         stdDeviation="19.359222"
         id="feGaussianBlur14" /></filter><filter
       inkscape:collect="always"
       style="color-interpolation-filters:sRGB"
       id="filter15"
       x="-0.062990265"
       y="-0.081953632"
       width="1.1259805"
       height="1.1639073"><feGaussianBlur
         inkscape:collect="always"
         stdDeviation="19.359222"
         id="feGaussianBlur15" /></filter><linearGradient
       inkscape:collect="always"
       xlink:href="#linearGradient27"
       id="linearGradient28"
       x1="814.32483"
       y1="587.39691"
       x2="828.32483"
       y2="1121.3969"
       gradientUnits="userSpaceOnUse" /><filter
       inkscape:collect="always"
       style="color-interpolation-filters:sRGB"
       id="filter28"
       x="-0.15659514"
       y="-0.045228411"
       width="1.3131903"
       height="1.0904568"><feGaussianBlur
         inkscape:collect="always"
         stdDeviation="1.671 2.666"
         id="feGaussianBlur28" /></filter><filter
       inkscape:collect="always"
       style="color-interpolation-filters:sRGB"
       id="filter21"
       x="-0.082895096"
       y="-0.06847801"
       width="1.1657902"
       height="1.136956"><feGaussianBlur
         inkscape:collect="always"
         stdDeviation="3.0362142"
         id="feGaussianBlur21" /></filter><linearGradient
       inkscape:collect="always"
       xlink:href="#linearGradient5"
       id="linearGradient20"
       gradientUnits="userSpaceOnUse"
       x1="732.32483"
       y1="551.39691"
       x2="732.32483"
       y2="1122.0015" /><linearGradient
       inkscape:collect="always"
       xlink:href="#linearGradient7"
       id="linearGradient22"
       x1="300.83102"
       y1="79.356255"
       x2="300.83102"
       y2="220.67995"
       gradientUnits="userSpaceOnUse"
       gradientTransform="matrix(0.12337081,0,0,0.12337081,-78.637829,62.108506)" /><linearGradient
       inkscape:collect="always"
       xlink:href="#linearGradient21"
       id="linearGradient20-4"
       gradientUnits="userSpaceOnUse"
       x1="732.32483"
       y1="551.39691"
       x2="732.32483"
       y2="1122.0015" /></defs><path
     fill="#202020"
     d="m 242.68049,129.68968 c -0.762,-0.85344 -1.11252,-2.43077 -1.50114,-4.1148 -0.381,-1.6764 -0.81534,-3.48234 -2.19456,-4.6482 v -0.008 a 5.7607201,5.7607201 0 0 0 -1.69926,-1.02108 c 1.92024,-5.6769 1.16586,-11.33094 -0.762,-16.43634 -2.37744,-6.271274 -6.5151,-11.734814 -9.6774,-15.468614 -3.53568,-4.46532 -6.99516,-8.70204 -6.9342,-14.95806 0.10668,-9.55548 1.05156,-27.27198 -15.75816,-27.29484 -0.6858,0 -1.39446,0.0305 -2.1336,0.0914 -18.79092,1.50876 -13.80744,21.35886 -14.08939,28.0035 -0.34289,4.86156 -1.32587,8.6868 -4.67106,13.44168 -3.9243,4.67106 -9.44879,12.222493 -12.07008,20.093954 -1.23443,3.71094 -1.8288,7.49808 -1.28016,11.07948 -0.17526,0.1524 -0.33527,0.31242 -0.48767,0.48006 -1.15063,1.22682 -2.00406,2.72034 -2.95656,3.72618 -0.88392,0.88392 -2.14885,1.2192 -3.53568,1.7145 -1.39446,0.50292 -2.91847,1.23444 -3.84048,3.0099 v 0.008 a 5.3492403,5.3492403 0 0 0 -0.58674,2.58318 c 0,0.82296 0.12192,1.65354 0.24383,2.45364 0.25908,1.6764 0.51817,3.25374 0.17526,4.32054 -1.09728,3.0099 -1.24205,5.08254 -0.46482,6.5913 0.77725,1.51638 2.36221,2.17932 4.16815,2.5527 3.60426,0.76201 8.48868,0.57151 12.33678,2.60604 l 0.32765,-0.62484 -0.32765,0.62484 c 4.1148,2.15646 8.29817,2.91847 11.62812,2.16409 a 7.5438007,7.5438007 0 0 0 5.37972,-4.20624 c 2.60604,-0.0153 5.46353,-1.11253 10.04316,-1.3716 3.10896,-0.24385 6.99516,1.1049 11.45286,0.86105 a 6.1417205,6.1417205 0 0 0 0.51816,1.39446 l 0.008,0.008 c 1.72975,3.4671 4.953,5.04444 8.38201,4.77774 3.429,-0.27432 7.07136,-2.29362 10.0203,-5.80645 l -0.5334,-0.4572 0.5334,0.4572 c 2.8194,-3.41375 7.48284,-4.82345 10.57656,-6.69036 1.54686,-0.93725 2.80416,-2.10312 2.8956,-3.80237 0.0991,-1.69165 -0.89916,-3.58903 -3.18516,-6.1341 z"
     id="path11"
     style="display:inline;stroke-width:7.62002;filter:url(#filter21)"
     inkscape:label="Penguin shadow"
     transform="matrix(0.12351175,0,0,0.12351175,0,0.15874989)" /><g
     inkscape:label="LIVE"
     inkscape:groupmode="layer"
     id="layer1"
     transform="matrix(0.99548616,0,0,1.0616416,89.360317,-75.002766)"
     style="display:inline"><path
       style="font-weight:bold;font-size:33.5139px;line-height:0;font-family:'DejaVu Sans';-inkscape-font-specification:'DejaVu Sans Bold';letter-spacing:0px;word-spacing:0px;writing-mode:tb-rl;text-orientation:upright;display:inline;stroke-width:1.3;paint-order:stroke fill markers;filter:url(#filter28)"
       d="m 297.56005,81.987896 h 6.30022 v 19.669784 h 11.06221 v 4.76198 h -17.36243 z m 4.44289,39.012284 h 6.30022 v 24.43176 h -6.30022 z m -9.64671,39.01227 h 6.33295 l 6.48023,18.03336 6.46386,-18.03336 h 6.33295 l -9.04941,24.43177 h -7.51117 z m 4.43471,39.01228 h 17.00241 v 4.76198 h -10.70219 v 4.54925 h 10.06398 v 4.76199 h -10.06398 v 5.59656 h 11.0622 v 4.76198 h -17.36242 z"
       id="text21"
       inkscape:label="LIVE shadow"
       aria-label="LIVE"
       transform="matrix(0.12337083,0,0,0.12337083,-78.637815,62.089114)" /><path
       id="text28"
       style="font-weight:bold;font-size:33.5139px;line-height:0;font-family:'DejaVu Sans';-inkscape-font-specification:'DejaVu Sans Bold';letter-spacing:0px;word-spacing:0px;writing-mode:tb-rl;text-orientation:upright;display:inline;fill:url(#linearGradient22);fill-rule:nonzero;stroke:none;stroke-width:0.0863595;stroke-linecap:round;stroke-dasharray:none;paint-order:stroke fill markers"
       inkscape:label="LIVE"
       d="m -42.461813,71.895599 v 3.014146 h 2.141995 v -0.587488 h -1.36471 v -2.426658 z m 0.548154,4.812954 v 3.014208 h 0.777221 v -3.014208 z m -1.190153,4.813017 1.116454,3.014146 h 0.926661 l 1.116389,-3.014146 h -0.781302 l -0.797429,2.224747 -0.799471,-2.224747 z m 0.547134,4.812953 v 3.014143 h 2.141994 v -0.587488 h -1.364773 v -0.690454 h 1.241601 v -0.587486 h -1.241601 v -0.561225 h 1.320337 v -0.58749 z" /></g><g
     id="g7"
     transform="matrix(0.03267915,0,0,0.03267915,0.90440152,-16.814699)"
     inkscape:label="VDR"
     style="display:inline;stroke:#0000d4;stroke-width:4.53543;stroke-dasharray:none"><path
       style="display:inline;fill:#000000;stroke:none;stroke-width:4.53543;stroke-linecap:round;stroke-dasharray:none;filter:url(#filter15)"
       d="m 1126.97,894.18961 c 5.6788,0.58349 11.3162,1.51717 16.8799,2.79571 6.6266,1.5228 13.1036,3.63579 19.3534,6.31365 5.3355,2.28609 10.4161,5.1262 15.1583,8.47362 2.8153,1.98724 5.4939,4.16127 8.0179,6.5074 3.2048,2.97901 6.25,6.12527 9.1228,9.4256 2.3365,2.68418 4.5795,5.44839 6.7248,8.28768 2.5745,3.40726 5.0502,6.88803 7.4241,10.43797 3.8075,5.6938 7.4028,11.52673 10.7783,17.4868 4.3522,7.68464 8.4828,15.49274 12.3871,23.41483 l 72.5406,145.45813 h 82.42 l -77.8489,-154.96019 c -3.5443,-7.18713 -7.235,-14.30139 -11.0688,-21.33865 -3.2481,-5.9623 -6.6385,-11.84602 -10.1682,-17.64609 -4.2831,-7.03814 -8.8139,-13.92255 -13.5839,-20.64031 -3.7997,-5.35128 -7.8353,-10.5311 -12.0948,-15.52414 -3.551,-4.16256 -7.2935,-8.15788 -11.2154,-11.97306 -3.3087,-3.21867 -6.7921,-6.2526 -10.4346,-9.08801 -4.2919,-3.34091 -8.8366,-6.34361 -13.5933,-8.98104 -4.0775,-2.26087 -8.3516,-4.14742 -12.7698,-5.63651 7.5719,-2.18418 14.9794,-4.90211 22.1671,-8.13338 6.3685,-2.86302 12.4977,-6.23108 18.3289,-10.07192 6.257,-4.12128 12.1165,-8.81637 17.5026,-14.02444 5.3063,-5.13091 10.1156,-10.75205 14.3637,-16.78838 4.3318,-6.15533 8.0825,-12.69971 11.2038,-19.54883 3.3583,-7.3692 6.0745,-15.0144 8.1184,-22.85057 1.8335,-7.02958 3.1843,-14.17628 4.043,-21.39012 0.9901,-8.31811 1.4865,-16.68758 1.4865,-25.06441 0,-5.97275 -0.2013,-11.9438 -0.6034,-17.90299 -0.3613,-5.35476 -0.9234,-10.69408 -1.6849,-16.00672 -0.8447,-5.89305 -1.9621,-11.74378 -3.3485,-17.53338 -1.2537,-5.2354 -2.7749,-10.4031 -4.5577,-15.48275 -1.9384,-5.52325 -4.2117,-10.92325 -6.807,-16.16997 -2.4322,-4.91694 -5.1816,-9.67047 -8.2309,-14.23051 -3.1501,-4.71088 -6.624,-9.19706 -10.3964,-13.42608 -3.7875,-4.24592 -7.8644,-8.22447 -12.2016,-11.90712 -4.6587,-3.95564 -9.5935,-7.57398 -14.767,-10.82746 -5.6593,-3.55901 -11.5446,-6.74539 -17.6184,-9.53889 -5.468,-2.51489 -11.0639,-4.74197 -16.7646,-6.67209 -6.4381,-2.17978 -12.9738,-4.06021 -19.5859,-5.63524 -5.8562,-1.39496 -11.761,-2.57748 -17.7027,-3.54523 -6.696,-1.09059 -13.4253,-1.96584 -20.1775,-2.6244 -6.0416,-0.58926 -12.0973,-1.02368 -18.1612,-1.30284 -6.7512,-0.3108 -13.5087,-0.46626 -20.2678,-0.46625 H 650.16903 c 11.31567,-10e-6 22.63003,0.25629 33.93424,0.7687 10.11055,0.4583 20.20787,1.17259 30.28225,2.14217 11.32394,1.08985 22.60996,2.54313 33.8406,4.35759 9.89685,1.59897 19.73212,3.55818 29.48622,5.87372 5.38627,1.27866 10.74357,2.6764 16.06797,4.19222 4.98083,1.41801 9.9274,2.9537 14.83556,4.60579 5.23543,1.76225 10.42233,3.66548 15.55506,5.70761 4.80941,1.9135 9.56269,3.96514 14.25395,6.15238 10.17639,4.7446 20.01344,10.18542 29.4411,16.28373 6.1678,3.98966 12.11127,8.31586 17.80331,12.95904 H 1119.338 c 8.2443,-8e-5 16.481,0.47114 24.6707,1.41128 6.6068,0.75843 13.1515,1.98447 19.5849,3.66888 3.7877,0.99172 7.5247,2.1677 11.1977,3.52377 3.3139,1.22347 6.5591,2.62536 9.7215,4.19952 3.4399,1.71229 6.766,3.64422 9.9577,5.78381 3.0013,2.01199 5.8613,4.22711 8.56,6.62982 2.5685,2.28677 4.9788,4.74524 7.2143,7.35847 2.2397,2.61818 4.2995,5.38509 6.1652,8.28172 1.8045,2.80167 3.4305,5.71439 4.8683,8.72081 1.5368,3.21348 2.8826,6.51484 4.0305,9.88687 1.9975,5.86807 3.4599,11.90488 4.3692,18.03656 1.1159,7.5244 1.6761,15.12077 1.6761,22.72746 0,7.60517 -0.5608,15.19999 -1.6778,22.72268 -0.9147,6.16027 -2.3831,12.22552 -4.3872,18.12207 -1.1479,3.37729 -2.4918,6.68473 -4.0249,9.90548 -1.4386,3.02223 -3.0638,5.95208 -4.8661,8.77257 -1.8648,2.91827 -3.9222,5.70894 -6.1583,8.35346 -2.2346,2.64272 -4.6431,5.13339 -7.2093,7.45542 -2.6841,2.4287 -5.5312,4.67104 -8.5212,6.71132 -3.1656,2.16004 -6.4673,4.11344 -9.8846,5.848 -3.16,1.60399 -6.4056,3.03362 -9.7221,4.28245 -3.6673,1.38095 -7.4009,2.57937 -11.1868,3.59086 -3.4051,0.90973 -6.8451,1.68321 -10.3118,2.31858 -3.8698,0.70924 -7.7637,1.27992 -11.6743,1.71095 -3.5233,0.38834 -7.0571,0.67487 -10.597,0.85923 -3.928,0.20458 -7.8606,0.30692 -11.7947,0.30698 H 968.88697 c 0.22241,6.21037 0.33374,12.42428 0.33374,18.6387 0,10.40087 -0.31027,20.79942 -0.9304,31.18178 -0.26355,4.41246 -0.59711,8.82046 -1.00033,13.22245 H 1106.366 c 6.8807,-1.1e-4 13.7581,0.35228 20.604,1.05568 z"
       id="path6"
       sodipodi:nodetypes="ccccccccccccccccccccccccccccccccccccccccccccccccccccccccccccccccccccccccccccccccccccccccc"
       inkscape:label="R shadow" /><path
       style="display:inline;fill:url(#linearGradient20);fill-opacity:1;fill-rule:nonzero;stroke:none;stroke-width:2.64567002;stroke-linecap:round;stroke-dasharray:none"
       d="m 1108.6828,883.41856 c 5.6788,0.58349 11.3162,1.51717 16.8799,2.79571 6.6266,1.5228 13.1036,3.63579 19.3534,6.31365 5.3355,2.28609 10.4161,5.1262 15.1583,8.47362 2.8153,1.98724 5.4939,4.16127 8.0179,6.5074 3.2048,2.97901 6.25,6.12527 9.1228,9.4256 2.3365,2.68418 4.5795,5.44839 6.7248,8.28768 2.5745,3.40726 5.0502,6.88803 7.4241,10.43797 3.8075,5.6938 7.4028,11.52673 10.7783,17.4868 4.3522,7.68464 8.4828,15.49274 12.3871,23.41483 L 1287.07,1122.02 h 82.42 l -77.8489,-154.96024 c -3.5443,-7.18713 -7.235,-14.30139 -11.0688,-21.33865 -3.2481,-5.9623 -6.6385,-11.84602 -10.1682,-17.64609 -4.2831,-7.03814 -8.8139,-13.92255 -13.5839,-20.64031 -3.7997,-5.35128 -7.8353,-10.5311 -12.0948,-15.52414 -3.551,-4.16256 -7.2935,-8.15788 -11.2154,-11.97306 -3.3087,-3.21867 -6.7921,-6.2526 -10.4346,-9.08801 -4.2919,-3.34091 -8.8366,-6.34361 -13.5933,-8.98104 -4.0775,-2.26087 -8.3516,-4.14742 -12.7698,-5.63651 7.5719,-2.18418 14.9794,-4.90211 22.1671,-8.13338 6.3685,-2.86302 12.4977,-6.23108 18.3289,-10.07192 6.257,-4.12128 12.1165,-8.81637 17.5026,-14.02444 5.3063,-5.13091 10.1156,-10.75205 14.3637,-16.78838 4.3318,-6.15533 8.0825,-12.69971 11.2038,-19.54883 3.3583,-7.3692 6.0745,-15.0144 8.1184,-22.85057 1.8335,-7.02958 3.1843,-14.17628 4.043,-21.39012 0.9901,-8.31811 1.4865,-16.68758 1.4865,-25.06441 0,-5.97275 -0.2013,-11.9438 -0.6034,-17.90299 -0.3613,-5.35476 -0.9234,-10.69408 -1.6849,-16.00672 -0.8447,-5.89305 -1.9621,-11.74378 -3.3485,-17.53338 -1.2537,-5.2354 -2.7749,-10.4031 -4.5577,-15.48275 -1.9384,-5.52325 -4.2117,-10.92325 -6.807,-16.16997 -2.4322,-4.91694 -5.1816,-9.67047 -8.2309,-14.23051 -3.1501,-4.71088 -6.624,-9.19706 -10.3964,-13.42608 -3.7875,-4.24592 -7.8644,-8.22447 -12.2016,-11.90712 -4.6587,-3.95564 -9.5935,-7.57398 -14.767,-10.82746 -5.6593,-3.55901 -11.5446,-6.74539 -17.6184,-9.53889 -5.468,-2.51489 -11.0639,-4.74197 -16.7646,-6.67209 -6.4381,-2.17978 -12.9738,-4.06021 -19.5859,-5.63524 -5.8562,-1.39496 -11.761,-2.57748 -17.7027,-3.54523 -6.696,-1.09059 -13.4253,-1.96584 -20.1775,-2.6244 -6.0416,-0.58926 -12.0973,-1.02368 -18.1612,-1.30284 -6.7512,-0.3108 -13.5087,-0.46626 -20.2678,-0.46625 H 631.88186 c 11.31567,-10e-6 22.63003,0.25629 33.93424,0.7687 10.11055,0.4583 20.20787,1.17259 30.28225,2.14217 11.32394,1.08985 22.60996,2.54313 33.8406,4.35759 9.89685,1.59897 19.73212,3.55818 29.48622,5.87372 5.38627,1.27866 10.74357,2.6764 16.06797,4.19222 4.98083,1.41801 9.9274,2.9537 14.83556,4.60579 5.23543,1.76225 10.42233,3.66548 15.55506,5.70761 4.80941,1.9135 9.56269,3.96514 14.25395,6.15238 10.17639,4.7446 20.01344,10.18542 29.4411,16.28373 6.1678,3.98966 12.11127,8.31586 17.80331,12.95904 h 233.66868 c 8.2443,-8e-5 16.481,0.47114 24.6707,1.41128 6.6068,0.75843 13.1515,1.98447 19.5849,3.66888 3.7877,0.99172 7.5247,2.1677 11.1977,3.52377 3.3139,1.22347 6.5591,2.62536 9.7215,4.19952 3.4399,1.71229 6.766,3.64422 9.9577,5.78381 3.0013,2.01199 5.8613,4.22711 8.56,6.62982 2.5685,2.28677 4.9788,4.74524 7.2143,7.35847 2.2397,2.61818 4.2995,5.38509 6.1652,8.28172 1.8045,2.80167 3.4305,5.71439 4.8683,8.72081 1.5368,3.21348 2.8826,6.51484 4.0305,9.88687 1.9975,5.86807 3.4599,11.90488 4.3692,18.03656 1.1159,7.5244 1.6761,15.12077 1.6761,22.72746 0,7.60517 -0.5608,15.19999 -1.6778,22.72268 -0.9147,6.16027 -2.3831,12.22552 -4.3872,18.12207 -1.1479,3.37729 -2.4918,6.68473 -4.0249,9.90548 -1.4386,3.02223 -3.0638,5.95208 -4.8661,8.77257 -1.8648,2.91827 -3.9222,5.70894 -6.1583,8.35346 -2.2346,2.64272 -4.6431,5.13339 -7.2093,7.45542 -2.6841,2.4287 -5.5312,4.67104 -8.5212,6.71132 -3.1656,2.16004 -6.4673,4.11344 -9.8846,5.848 -3.16,1.60399 -6.4056,3.03362 -9.7221,4.28245 -3.6673,1.38095 -7.4009,2.57937 -11.1868,3.59086 -3.4051,0.90973 -6.8451,1.68321 -10.3118,2.31858 -3.8698,0.70924 -7.7637,1.27992 -11.6743,1.71095 -3.5233,0.38834 -7.0571,0.67487 -10.597,0.85923 -3.928,0.20458 -7.8606,0.30692 -11.7947,0.30698 h -150.451 c 0.22241,6.21037 0.33374,12.42428 0.33374,18.6387 0,10.40087 -0.31027,20.79942 -0.9304,31.18178 -0.26355,4.41246 -0.59711,8.82046 -1.00033,13.22245 h 139.07599 c 6.8807,-1.1e-4 13.7581,0.35228 20.604,1.05568 z"
       id="path13"
       sodipodi:nodetypes="ccccccccccccccccccccccccccccccccccccccccccccccccccccccccccccccccccccccccccccccccccccccccc"
       inkscape:label="R" /><path
       style="display:inline;fill:#000000;stroke:none;stroke-width:2.64567;stroke-linecap:round;stroke-dasharray:none;filter:url(#filter14)"
       d="M 569.30908,628.90304 V 1069.743 h 92.6461 c 8.1258,0 16.2502,-0.2004 24.3659,-0.6055 7.2521,-0.362 14.4927,-0.9262 21.7133,-1.6922 8.1115,-0.8604 16.1899,-2.0075 24.2203,-3.4391 7.0919,-1.2643 14.1304,-2.8122 21.0984,-4.6399 7.8841,-2.068 15.6563,-4.541 23.2858,-7.4091 6.758,-2.5405 13.3624,-5.4723 19.7797,-8.7804 7.0764,-3.6479 13.8828,-7.7972 20.3672,-12.4163 6.0177,-4.2866 11.6959,-9.0309 16.9841,-14.1906 5.2477,-5.1201 10.0922,-10.6379 14.4902,-16.504 4.673,-6.23316 8.887,-12.79756 12.6086,-19.64146 3.4025,-6.257 6.4247,-12.7134 9.0503,-19.334 2.9432,-7.4215 5.4854,-14.9959 7.6155,-22.6903 1.8903,-6.8282 3.4922,-13.7331 4.8015,-20.6961 1.4797,-7.8696 2.6657,-15.7916 3.5556,-23.7495 0.792,-7.0832 1.3756,-14.1882 1.7499,-21.3057 0.4189,-7.9662 0.6285,-15.9419 0.6285,-23.9191 0,-7.9497 -0.2108,-15.8981 -0.6323,-23.8366 -0.3765,-7.0927 -0.9636,-14.1726 -1.7603,-21.2304 -0.8941,-7.9201 -2.0853,-15.8039 -3.5712,-23.6346 -1.3154,-6.9321 -2.9243,-13.8053 -4.8225,-20.601 -2.136,-7.6471 -4.6836,-15.1732 -7.6318,-22.5454 -2.6338,-6.5862 -5.6638,-13.007 -9.0732,-19.2272 -3.713,-6.7741 -7.912,-13.2703 -12.564,-19.4375 -4.3886,-5.818 -9.2178,-11.2901 -14.4448,-16.3682 -5.3036,-5.1525 -10.9974,-9.8875 -17.0305,-14.1627 -6.511,-4.6138 -13.3439,-8.7558 -20.4462,-12.3942 -6.4189,-3.2883 -13.023,-6.2017 -19.7791,-8.7256 -7.6324,-2.8512 -15.406,-5.309 -23.2902,-7.3638 -6.9629,-1.8146 -13.9952,-3.3512 -21.0804,-4.6062 -8.0234,-1.4212 -16.0943,-2.5598 -24.1977,-3.4137 -7.2078,-0.7596 -14.4353,-1.3192 -21.6741,-1.6782 -8.0993,-0.4016 -16.2073,-0.6025 -24.3165,-0.6031 l -92.6461,-5e-4 v -63.04 l 80.8579,-9e-4 c 11.3177,-9e-4 22.6321,0.2554 33.9363,0.7678 10.1106,0.4583 20.2079,1.1726 30.2823,2.1422 11.3239,1.0898 22.61,2.5431 33.8406,4.3575 9.8968,1.599 19.7321,3.5582 29.4862,5.8738 5.3862,1.2787 10.7435,2.6764 16.0679,4.1922 4.9808,1.418 9.9274,2.9537 14.8356,4.6058 5.2354,1.7622 10.4224,3.6655 15.5551,5.7076 4.8094,1.9135 9.5627,3.9652 14.2539,6.1524 10.1764,4.7446 20.0134,10.1854 29.4411,16.2837 8.5372,5.5223 16.6411,11.6872 24.2414,18.441 7.2248,6.4201 13.9588,13.3723 20.1453,20.7981 6.3553,7.6285 12.1462,15.71 17.3267,24.1804 4.8713,7.9648 9.2271,16.2335 13.0408,24.7554 4.1849,9.3514 7.8203,18.9392 10.8877,28.7143 2.7607,8.7978 5.1061,17.7206 7.0285,26.7387 2.1565,10.1162 3.8881,20.3184 5.1901,30.5797 1.1633,9.1678 2.0207,18.3718 2.571,27.5967 0.6153,10.316 0.9232,20.6481 0.9232,30.9825 0,10.4008 -0.3103,20.7994 -0.9304,31.1817 -0.5543,9.281 -1.4182,18.5409 -2.5903,27.7643 -1.3108,10.3144 -3.0537,20.5692 -5.2243,30.7374 -1.9344,9.0619 -4.2945,18.0276 -7.0724,26.8674 -3.0841,9.8142 -6.739,19.4399 -10.946,28.8277 -3.8331,8.55346 -8.211,16.85226 -13.1066,24.84526 -5.2009,8.4914 -11.0138,16.5923 -17.3926,24.2385 -6.2089,7.4426 -12.9665,14.4096 -20.2161,20.8428 -7.6226,6.7642 -15.7448,12.9434 -24.2974,18.4851 -9.4121,6.0985 -19.2311,11.5448 -29.388,16.3004 -9.0632,4.2435 -18.3493,7.9937 -27.8176,11.234 -10.774,3.6872 -21.7172,6.8603 -32.7925,9.5086 -9.7426,2.3296 -19.5674,4.3015 -29.4544,5.9117 -11.2024,1.8244 -22.4608,3.2861 -33.7576,4.3829 -10.0547,0.9761 -20.1327,1.6954 -30.2242,2.157 -11.2731,0.5157 -22.5565,0.7736 -33.8433,0.775 h -157.6049 l -2e-4,-447.16816 c 11.50801,-32.8738 41.94553,-55.3667 76.74767,-56.7172"
       id="path12"
       sodipodi:nodetypes="ccccccccccccccccccccccccccccccccccccccccccccccccccccccccccccccccccccccccccc"
       inkscape:label="D shadow" /><path
       style="display:inline;fill:url(#linearGradient20);fill-opacity:1;fill-rule:nonzero;stroke:none;stroke-width:2.64567002;stroke-linecap:round;stroke-dasharray:none"
       d="m 551.022,618.13 v 440.84 h 92.6461 c 8.1258,0 16.2502,-0.2004 24.3659,-0.6055 7.2521,-0.362 14.4927,-0.9262 21.7133,-1.6922 8.1115,-0.8604 16.1899,-2.0075 24.2203,-3.4391 7.0919,-1.2643 14.1304,-2.8122 21.0984,-4.6399 7.8841,-2.068 15.6563,-4.541 23.2858,-7.4091 6.758,-2.5405 13.3624,-5.4723 19.7797,-8.7804 7.0764,-3.6479 13.8828,-7.7972 20.3672,-12.4163 6.0177,-4.2866 11.6959,-9.0309 16.9841,-14.1906 5.2477,-5.1201 10.0922,-10.6379 14.4902,-16.5041 4.673,-6.2331 8.887,-12.7975 12.6086,-19.6414 3.4025,-6.257 6.4247,-12.7134 9.0503,-19.334 2.9432,-7.4215 5.4854,-14.9959 7.6155,-22.6903 1.8903,-6.8282 3.4922,-13.7331 4.8015,-20.6961 1.4797,-7.8696 2.6657,-15.7916 3.5556,-23.7495 0.792,-7.0832 1.3756,-14.1882 1.7499,-21.3057 0.4189,-7.9662 0.6285,-15.9419 0.6285,-23.9191 0,-7.9497 -0.2108,-15.8981 -0.6323,-23.8366 -0.3765,-7.0927 -0.9636,-14.1726 -1.7603,-21.2304 -0.8941,-7.9201 -2.0853,-15.8039 -3.5712,-23.6346 -1.3154,-6.9321 -2.9243,-13.8053 -4.8225,-20.601 -2.136,-7.6471 -4.6836,-15.1732 -7.6318,-22.5454 -2.6338,-6.5862 -5.6638,-13.007 -9.0732,-19.2272 -3.713,-6.7741 -7.912,-13.2703 -12.564,-19.4375 -4.3886,-5.818 -9.2178,-11.2901 -14.4448,-16.3682 -5.3036,-5.1525 -10.9974,-9.8875 -17.0305,-14.1627 -6.511,-4.6138 -13.3439,-8.7558 -20.4462,-12.3942 -6.4189,-3.2883 -13.023,-6.2017 -19.7791,-8.7256 -7.6324,-2.8512 -15.406,-5.309 -23.2902,-7.3638 -6.9629,-1.8146 -13.9952,-3.3512 -21.0804,-4.6062 -8.0234,-1.4212 -16.0943,-2.5598 -24.1977,-3.4137 -7.2078,-0.7596 -14.4353,-1.3192 -21.6741,-1.6782 -8.0993,-0.4016 -16.2073,-0.6025 -24.3165,-0.6031 l -92.6461,-5e-4 v -63.04 l 80.8579,-9e-4 c 11.3177,-9e-4 22.6321,0.2554 33.9363,0.7678 10.1106,0.4583 20.2079,1.1726 30.2823,2.1422 11.3239,1.0898 22.61,2.5431 33.8406,4.3575 9.8968,1.599 19.7321,3.5582 29.4862,5.8738 5.3862,1.2787 10.7435,2.6764 16.0679,4.1922 4.9808,1.418 9.9274,2.9537 14.8356,4.6058 5.2354,1.7622 10.4224,3.6655 15.5551,5.7076 4.8094,1.9135 9.5627,3.9652 14.2539,6.1524 10.1764,4.7446 20.0134,10.1854 29.4411,16.2837 8.5372,5.5223 16.6411,11.6872 24.2414,18.441 7.2248,6.4201 13.9588,13.3723 20.1453,20.7981 6.3553,7.6285 12.1462,15.71 17.3267,24.1804 4.8713,7.9648 9.2271,16.2335 13.0408,24.7554 4.1849,9.3514 7.8203,18.9392 10.8877,28.7143 2.7607,8.7978 5.1061,17.7206 7.0285,26.7387 2.1565,10.1162 3.8881,20.3184 5.1901,30.5797 1.1633,9.1678 2.0207,18.3718 2.571,27.5967 0.6153,10.316 0.9232,20.6481 0.9232,30.9825 0,10.4008 -0.3103,20.7994 -0.9304,31.1817 -0.5543,9.281 -1.4182,18.5409 -2.5903,27.7643 -1.3108,10.3144 -3.0537,20.5692 -5.2243,30.7374 -1.9344,9.0619 -4.2945,18.0276 -7.0724,26.8674 -3.0841,9.8142 -6.739,19.4399 -10.946,28.8277 -3.8331,8.5535 -8.211,16.8523 -13.1066,24.8453 -5.2009,8.4914 -11.0138,16.5923 -17.3926,24.2385 -6.2089,7.4426 -12.9665,14.4096 -20.2161,20.8428 -7.6226,6.7642 -15.7448,12.9434 -24.2974,18.4851 -9.4121,6.0985 -19.2311,11.5448 -29.388,16.3004 -9.0632,4.2435 -18.3493,7.9937 -27.8176,11.234 -10.774,3.6872 -21.7172,6.8603 -32.7925,9.5086 -9.7426,2.3296 -19.5674,4.3015 -29.4544,5.9117 -11.2024,1.8244 -22.4608,3.2861 -33.7576,4.3829 -10.0547,0.9761 -20.1327,1.6954 -30.2242,2.157 -11.2731,0.5157 -22.5565,0.7736 -33.8433,0.775 H 474.275 l -2e-4,-447.1682 c 11.50801,-32.8738 41.94553,-55.3667 76.74767,-56.7172"
       id="path188"
       sodipodi:nodetypes="ccccccccccccccccccccccccccccccccccccccccccccccccccccccccccccccccccccccccccc"
       inkscape:label="D" /><path
       style="display:inline;fill:#000000;stroke:none;stroke-width:3e-07;stroke-linecap:round;stroke-dasharray:none;filter:url(#filter13)"
       d="m 569.30905,565.85969 -20.78579,9e-4 c -53.47761,0.3805 -101.41027,33.0775 -121.27719,82.7294 L 278.45005,1043.1597 98.82395,565.85969 h -80.037 l 216.4471,566.93001 h 86.89 L 492.56119,685.61979 c 11.5083,-32.872 41.94582,-55.3649 76.74792,-56.7178 z"
       id="path9"
       sodipodi:nodetypes="ccccccccccc"
       inkscape:label="V Schatten" /><path
       id="path10"
       style="display:inline;fill:url(#linearGradient20);fill-opacity:1;fill-rule:nonzero;stroke:none;stroke-width:2.64567002;stroke-linecap:round;stroke-dasharray:none"
       inkscape:label="VD"
       d="M 0.50059889,555.09026 216.94787,1122.02 h 86.89062 L 474.276,674.85003 c 11.5083,-32.872 41.94399,-55.3639 76.74609,-56.7168 v -0.002 h 92.64649 c 8.1086,6e-4 16.21575,0.20202 24.31445,0.60352 h 0.004 c 7.2388,0.359 14.46602,0.91813 21.67382,1.67773 8.1034,0.8539 16.17582,1.99287 24.19922,3.41407 7.0852,1.255 14.11718,2.79087 21.08008,4.60547 7.8842,2.0548 15.65666,4.51403 23.28906,7.36523 6.7561,2.5239 13.3604,5.43631 19.7793,8.72461 7.1023,3.6384 13.93627,7.78073 20.44727,12.39453 6.0331,4.2752 11.72569,9.00961 17.02929,14.16211 5.227,5.0781 10.05672,10.55114 14.44532,16.36914 4.652,6.1672 8.85145,12.6634 12.56445,19.4375 3.4094,6.2202 6.43847,12.64036 9.07227,19.22656 2.9482,7.3722 5.49681,14.89783 7.63281,22.54493 1.8982,6.7957 3.50686,13.66946 4.82226,20.60156 1.4859,7.8307 2.67622,15.71467 3.57032,23.63477 0.7967,7.0578 1.38522,14.13776 1.76172,21.23046 0.4215,7.9385 0.63085,15.88624 0.63085,23.83594 0,7.9772 -0.20805,15.95372 -0.62695,23.91992 -0.3743,7.1175 -0.958,14.22149 -1.75,21.30469 -0.8899,7.9579 -2.07694,15.8804 -3.55664,23.75 -1.3093,6.963 -2.91048,13.86712 -4.80078,20.69532 -2.1301,7.6944 -4.67203,15.2699 -7.61523,22.6914 -2.6256,6.6206 -5.64829,13.07699 -9.05079,19.33399 -3.7216,6.8439 -7.93637,13.40752 -12.60937,19.64062 -4.398,5.8662 -9.24254,11.3838 -14.49024,16.5039 -5.2882,5.1597 -10.96667,9.9049 -16.98437,14.1915 -6.4844,4.6191 -13.29079,8.7681 -20.36719,12.416 -6.4173,3.3081 -13.0213,6.2407 -19.7793,8.7812 -7.6295,2.8681 -15.40105,5.3402 -23.28515,7.4082 -6.968,1.8277 -14.00771,3.3763 -21.09961,4.6406 -8.0304,1.4316 -16.10725,2.5791 -24.21875,3.4395 -7.2206,0.766 -14.46275,1.3294 -21.71485,1.6914 -8.1157,0.4051 -16.23943,0.6055 -24.36523,0.6055 h -92.64649 v -57.3047 H 474.27795 V 1122.02 h 157.60352 c 11.2868,0 22.56869,-0.2597 33.84179,-0.7754 10.0915,-0.4616 20.16991,-1.1802 30.22461,-2.1563 11.2968,-1.0968 22.55542,-2.5584 33.75782,-4.3828 9.887,-1.6102 19.71247,-3.5825 29.45507,-5.9121 11.0753,-2.6483 22.01702,-5.8226 32.79102,-9.5098 9.4683,-3.2403 18.75516,-6.9889 27.81836,-11.2324 10.1569,-4.7556 19.97657,-10.2023 29.38867,-16.3008 8.5526,-5.5417 16.67428,-11.7221 24.29688,-18.4863 7.2496,-6.4332 14.0079,-13.3992 20.2168,-20.8418 6.3788,-7.6462 12.19167,-15.7469 17.39257,-24.2383 4.8956,-7.993 9.27237,-16.29219 13.10547,-24.84569 4.207,-9.3878 7.86317,-19.01392 10.94727,-28.82812 2.7779,-8.8398 5.13786,-17.80529 7.07226,-26.86719 2.1706,-10.1682 3.91381,-20.42193 5.22461,-30.73633 1.1721,-9.2234 2.03555,-18.48463 2.58985,-27.76563 0.6201,-10.3823 0.92968,-20.78084 0.92968,-31.18164 0,-10.3344 -0.30852,-20.66642 -0.92382,-30.98242 -0.5503,-9.2249 -1.40702,-18.4279 -2.57032,-27.5957 -1.302,-10.2613 -3.03295,-20.46388 -5.18945,-30.58008 -1.9224,-9.0181 -4.2686,-17.94048 -7.0293,-26.73828 -3.0674,-9.7751 -6.70182,-19.36345 -10.88672,-28.71485 -3.8137,-8.5219 -8.16971,-16.79106 -13.04101,-24.75586 -5.1805,-8.4704 -10.97283,-16.55118 -17.32813,-24.17968 -6.1865,-7.4258 -12.91777,-14.37873 -20.14257,-20.79883 -7.6003,-6.7538 -15.70695,-12.91911 -24.24415,-18.44141 -9.4277,-6.0983 -19.26305,-11.5386 -29.43945,-16.2832 -4.6912,-2.1872 -9.44451,-4.23885 -14.25391,-6.15235 -5.1327,-2.0421 -10.32124,-3.94483 -15.55664,-5.70703 -4.9082,-1.6521 -9.85318,-3.18747 -14.83398,-4.60547 -5.3244,-1.5158 -10.68216,-2.91466 -16.06836,-4.19336 -9.7541,-2.3156 -19.58953,-4.27404 -29.48633,-5.87304 -11.2306,-1.8144 -22.51594,-3.26763 -33.83984,-4.35743 -10.0744,-0.9696 -20.17261,-1.68427 -30.28321,-2.14257 -11.3042,-0.5124 -22.61784,-0.76848 -33.93554,-0.76758 h -80.85938 -20.78516 c -53.47761,0.3805 -101.41042,33.07857 -121.27734,82.73047 L 260.16466,1032.3891 80.537709,555.09026 Z" /></g><g
     id="g2"
     transform="matrix(0.07114277,0,0,0.07114277,-10.136778,4.2180192)"
     inkscape:label="Penguin"
     style="display:inline"><path
       fill="#202020"
       d="m 548.92715,159.18657 c -1.32292,-1.48167 -1.93146,-4.2201 -2.60615,-7.14375 -0.66145,-2.91042 -1.41552,-6.04573 -3.81,-8.06979 v -0.0132 a 10.00125,10.00125 0 0 0 -2.9501,-1.77271 c 3.33375,-9.85573 2.02406,-19.67177 -1.32292,-28.53531 -4.1275,-10.88761 -11.31094,-20.372922 -16.80104,-26.855214 -6.13833,-7.752292 -12.14438,-15.107709 -12.03854,-25.968855 0.18521,-16.589376 1.82562,-47.34719 -27.35792,-47.386877 -1.19062,0 -2.42094,0.05292 -3.70417,0.15875 -32.62312,2.619375 -23.97125,37.081356 -24.46073,48.61719 -0.59531,8.440208 -2.30187,15.08125 -8.10948,23.336251 -6.81302,8.109479 -16.40416,21.219585 -20.955,34.885315 -2.14312,6.4426 -3.175,13.0175 -2.2225,19.23521 -0.30427,0.26458 -0.58208,0.54239 -0.84666,0.83344 -1.99761,2.12989 -3.47927,4.72281 -5.13292,6.46906 -1.53458,1.53458 -3.73063,2.11666 -6.13833,2.97656 -2.42094,0.87313 -5.06678,2.14313 -6.6675,5.22552 v 0.0132 a 9.2868754,9.2868754 0 0 0 -1.01865,4.48469 c 0,1.42875 0.21167,2.87073 0.42333,4.25979 0.44979,2.91042 0.89959,5.64885 0.30427,7.50094 -1.905,5.22552 -2.15635,8.82385 -0.80698,11.44323 1.34938,2.6326 4.10105,3.78354 7.23636,4.43177 6.2574,1.32292 14.73729,0.99219 21.41802,4.52437 l 0.56885,-1.08479 -0.56885,1.08479 c 7.14375,3.74386 14.40656,5.06678 20.18771,3.75709 a 13.096876,13.096876 0 0 0 9.33979,-7.3025 c 4.52438,-0.0265 9.48531,-1.93146 17.43604,-2.38125 5.3975,-0.42334 12.14438,1.91823 19.88344,1.49489 a 10.662709,10.662709 0 0 0 0.89959,2.42094 l 0.0132,0.0132 c 3.00303,6.01927 8.59896,8.75771 14.55209,8.29469 5.95312,-0.47625 12.27667,-3.98198 17.39635,-10.08063 l -0.92604,-0.79375 0.92604,0.79375 c 4.8948,-5.92666 12.99105,-8.37406 18.36209,-11.61521 2.68552,-1.62718 4.86833,-3.65125 5.02708,-6.60135 0.17198,-2.93688 -1.56104,-6.23094 -5.52979,-10.64948 z"
       id="path1-3"
       style="stroke-width:13.2292" /><path
       fill="#f8bf11"
       d="m 552.00955,169.70376 c -0.0926,1.81239 -1.41553,3.175 -3.83646,4.63021 -4.86834,2.93687 -13.48052,5.47687 -18.97063,12.14437 -4.78896,5.68854 -10.60979,8.7974 -15.74271,9.2075 -5.11969,0.39688 -9.53823,-1.71979 -12.1576,-6.95854 v -0.0265 c -1.62719,-3.08239 -0.9525,-7.9375 0.4101,-13.05719 1.36261,-5.11968 3.32052,-10.38489 3.58511,-14.65791 v -0.0132 c 0.26458,-5.49011 0.58208,-10.26584 1.50812,-13.95677 0.92604,-3.70417 2.36802,-6.19125 4.93448,-7.60678 a 11.58875,11.588751 0 0 1 0.35719,-0.1852 c 0.29104,4.74927 2.64583,9.59114 6.79979,10.63625 4.5376,1.19062 11.08604,-2.69875 13.85094,-5.88698 l 1.61396,-0.0529 c 2.43416,-0.0661 4.45823,0.0794 6.54843,1.89177 v 0.0132 c 1.60073,1.34938 2.36802,3.91583 3.02948,6.77333 0.66146,2.87073 1.19063,5.99282 3.16177,8.21532 3.79678,4.23333 5.02709,7.06437 4.90803,8.89 z m -92.32636,13.4276 v 0.0397 c -0.44979,5.75469 -3.70417,8.89 -8.67834,10.02771 -4.98739,1.13771 -11.7475,0 -18.49437,-3.51896 -7.47448,-3.96875 -16.36448,-3.57188 -22.05302,-4.7625 -2.8575,-0.59531 -4.72282,-1.4949 -5.56948,-3.14854 -0.84667,-1.66688 -0.87313,-4.56406 0.93927,-9.525 v -0.0132 l 0.0132,-0.0265 c 0.89958,-2.7649 0.23812,-5.79438 -0.19844,-8.63865 -0.43656,-2.83104 -0.64823,-5.42395 0.3175,-7.22312 l 0.0132,-0.0132 c 1.24354,-2.39448 3.06917,-3.25438 5.33135,-4.06136 2.24896,-0.8202 4.93448,-1.4552 7.05115,-3.57187 l 0.0132,-0.0132 h 0.0132 c 1.95791,-2.07698 3.43958,-4.6699 5.15937,-6.50875 1.45521,-1.54781 2.91042,-2.57969 5.09323,-2.59292 h 0.0662 a 8.069792,8.069792 0 0 1 1.23031,0.10584 c 2.91042,0.43656 5.43719,2.47385 7.88458,5.78114 l 7.05115,12.84552 v 0.0132 c 1.87854,3.91584 5.83406,8.22855 9.19427,12.62063 3.36021,4.40531 5.95313,8.81062 5.6224,12.18406 z"
       id="path2-6"
       style="stroke-width:13.2292" /><path
       fill="#d6a312"
       d="m 494.84631,63.341253 c -0.56885,-1.11125 -1.71979,-2.169584 -3.70416,-2.976563 -4.10104,-1.759479 -5.87375,-1.878542 -8.1624,-3.360208 -3.70417,-2.39448 -6.78656,-3.227917 -9.33979,-3.227917 a 11.033125,11.033125 0 0 0 -3.59833,0.621771 c -3.12209,1.058333 -5.18584,3.307292 -6.4823,4.524375 -0.26458,0.251354 -0.58208,0.463021 -1.37583,1.058333 -0.79375,0.568854 -1.98437,1.455209 -3.70417,2.751667 -1.54781,1.137708 -2.03729,2.645834 -1.50812,4.392084 0.52917,1.74625 2.20927,3.770312 5.29167,5.516562 h 0.0132 c 1.91823,1.12448 3.22792,2.645834 4.73605,3.849688 a 10.596563,10.596563 0 0 0 2.50031,1.547813 c 0.9525,0.410104 2.06375,0.687916 3.43958,0.767291 3.28084,0.198438 5.68854,-0.79375 7.80521,-1.997604 2.11667,-1.217083 3.91583,-2.69875 5.97958,-3.373438 h 0.0132 c 4.23334,-1.322916 7.24959,-3.981979 8.20209,-6.521979 a 4.2862502,4.2862502 0 0 0 -0.10584,-3.571875 z"
       id="path3-7"
       style="stroke-width:13.2292" /><path
       fill="#202020"
       d="m 484.10423,69.58542 c -3.37344,1.759479 -7.3025,3.889375 -11.49615,3.889375 -4.18041,0 -7.4877,-1.931459 -9.85573,-3.823229 -1.19062,-0.926042 -2.15635,-1.878542 -2.88395,-2.55323 -1.27,-0.992187 -1.11125,-2.394479 -0.59532,-2.354792 0.87313,0.105834 1.00542,1.256771 1.54782,1.772709 0.74083,0.687917 1.66687,1.5875 2.79135,2.473854 2.24896,1.785938 5.25198,3.518959 8.99583,3.518959 3.75709,0 8.12271,-2.196042 10.795,-3.704167 1.52136,-0.846667 3.43959,-2.368021 5.01386,-3.518959 1.19062,-0.886354 1.15094,-1.944687 2.14312,-1.825625 0.99219,0.119063 0.26459,1.177396 -1.12448,2.38125 -1.38906,1.217084 -3.57187,2.831042 -5.33135,3.743855 z"
       id="path4-5"
       style="stroke-width:13.2292" /><path
       fill="#ffffff"
       d="m 535.68475,141.47271 a 22.807084,22.807084 0 0 0 -1.37583,0 h -0.13229 c 1.16416,-3.66447 -1.40229,-6.35 -8.21531,-9.43239 -7.06438,-3.10886 -12.70001,-2.80459 -13.65251,3.50573 -0.0661,0.33073 -0.11906,0.66146 -0.14552,1.00541 a 10.596563,10.596563 0 0 0 -1.5875,0.71438 c -3.33375,1.8124 -5.14614,5.10646 -6.15156,9.15458 -1.00542,4.0349 -1.29646,8.91646 -1.57427,14.4198 -0.17198,2.75166 -1.30969,6.48229 -2.46062,10.45104 -11.57553,8.255 -27.64896,11.82687 -41.30146,2.51354 -0.92605,-1.45521 -1.98438,-2.91042 -3.0824,-4.33917 a 183.22397,183.22397 0 0 0 -2.11667,-2.71198 8.5989587,8.5989587 0 0 0 3.54542,-0.66146 4.4979168,4.4979169 0 0 0 2.46062,-2.54 c 0.83344,-2.24895 0,-5.3975 -2.67229,-8.99583 -2.65906,-3.61156 -7.17021,-7.67292 -13.79802,-11.7475 -4.86833,-3.04271 -7.59354,-6.74687 -8.86354,-10.76854 -1.28323,-4.0349 -1.11125,-8.40052 -0.13229,-12.7 1.89177,-8.26823 6.74687,-16.31157 9.82927,-21.351878 0.83344,-0.608542 0.30427,1.137708 -3.12208,7.500938 -3.06917,5.82083 -8.82386,19.24844 -0.9525,29.73917 0.21166,-7.46125 1.98437,-15.08125 4.98739,-22.18532 4.3524,-9.88218 13.46729,-27.000726 14.18167,-40.653227 0.38364,0.264583 1.65364,1.137709 2.23573,1.455209 1.66687,0.992187 2.92364,2.434166 4.55083,3.743854 a 11.244792,11.244792 0 0 0 7.60677,2.645833 c 3.175,0 5.64886,-1.045104 7.69938,-2.2225 2.24896,-1.27 4.02166,-2.69875 5.72823,-3.241146 3.57187,-1.124479 6.42937,-3.108854 8.04333,-5.423958 2.77813,10.980208 9.26042,26.815522 13.41438,34.541355 2.20927,4.10104 6.61458,12.81906 8.50635,23.30979 1.20385,-0.0265 2.52677,0.13229 3.95552,0.50271 4.96094,-12.87198 -4.2201,-26.74937 -8.41375,-30.612292 -1.69333,-1.640416 -1.78594,-2.38125 -0.92604,-2.341562 4.5376,4.021667 10.51719,12.131144 12.7,21.272504 0.99219,4.16718 1.19063,8.54604 0.13229,12.87198 0.52917,0.22489 1.05834,0.44979 1.5875,0.71437 7.97719,3.87615 10.92729,7.24959 9.51177,11.86656 z"
       id="path5"
       style="stroke-width:13.2292" /><path
       fill="#e6e6e6"
       d="m 478.83902,106.65355 c -7.35542,0.0265 -14.53885,3.32052 -20.61104,9.47208 -6.08542,6.13833 -10.76854,14.84313 -13.46729,24.97667 l 0.80698,0.50271 v 0.0529 c 6.2177,3.94229 10.64948,7.91104 13.38791,11.61521 2.89719,3.91584 4.18042,7.72584 2.95011,11.03313 a 6.7865628,6.7865628 0 0 1 -3.57188,3.74385 l -0.54239,0.19844 c 0.97896,1.28323 1.93146,2.60614 2.81781,3.96875 12.48833,8.30792 27.01396,5.23875 37.92802,-2.27542 1.05833,-3.67771 2.02406,-7.09083 2.15636,-9.23396 0.27781,-5.4901 0.55562,-10.4775 1.64041,-14.81666 1.08479,-4.36563 3.20146,-8.33438 7.19667,-10.51719 0.2249,-0.13229 0.44979,-0.19844 0.67469,-0.30427 a 10.00125,10.00125 0 0 1 0.29104,-1.24354 c -3.20146,-8.22855 -7.81844,-15.08125 -13.36146,-19.84376 -5.55625,-4.7625 -11.86656,-7.28927 -18.28271,-7.32895 z m 31.35313,28.50885 -0.0265,0.0662 v -0.0265 l 0.0132,-0.0529 z"
       id="path6-3"
       style="stroke-width:13.2292" /><path
       fill="#ffffff"
       d="m 495.21673,50.707398 a 13.890626,13.890626 0 0 1 -2.84427,8.678334 54.49094,54.49094 0 0 0 -2.88396,-1.190625 l -1.6801,-0.595313 c 0.38364,-0.463021 1.12448,-0.992187 1.41552,-1.680104 a 8.8503128,8.8503129 0 0 0 0.66146,-3.214688 l 0.0132,-0.132291 a 8.9032295,8.9032296 0 0 0 -0.46303,-3.122084 5.7414586,5.7414586 0 0 0 -1.42875,-2.434167 2.9501043,2.9501043 0 0 0 -2.06375,-0.926041 h -0.0926 a 3.0162501,3.0162501 0 0 0 -1.9976,0.79375 5.7414586,5.7414586 0 0 0 -1.61396,2.315104 8.942917,8.9429171 0 0 0 -0.66146,3.214688 v 0.132291 a 9.498542,9.4985421 0 0 0 0.11906,1.852084 23.455313,23.455314 0 0 0 -4.68312,-1.5875 15.822084,15.822084 0 0 1 -0.1323,-1.75948 v -0.171979 a 13.692188,13.692188 0 0 1 1.16417,-5.913438 10.49073,10.49073 0 0 1 3.30729,-4.339166 7.3289586,7.3289587 0 0 1 4.5773,-1.627188 h 0.0794 c 1.65365,0 3.06917,0.47625 4.52438,1.534583 a 10.31875,10.31875 0 0 1 3.39989,4.286251 c 0.83344,1.825625 1.24354,3.611562 1.28323,5.728229 l 0.0132,0.15875 z m -25.00313,2.169583 a 13.890626,13.890626 0 0 0 -3.66447,1.653646 8.2417712,8.2417712 0 0 0 0.0265,-1.984375 v -0.105833 a 8.6121878,8.6121879 0 0 0 -0.635,-2.54 4.8947919,4.8947919 0 0 0 -1.27,-1.865313 2.0902084,2.0902084 0 0 0 -1.57427,-0.595312 c -0.55562,0.05292 -1.01864,0.3175 -1.45521,0.859896 a 4.9212502,4.9212502 0 0 0 -0.92604,2.06375 8.2814587,8.2814587 0 0 0 -0.17198,2.711979 v 0.105833 a 8.387292,8.387292 0 0 0 0.635,2.55323 4.8551044,4.8551044 0 0 0 1.53459,2.06375 l -1.34938,1.058333 -1.03187,0.740833 a 9.339792,9.3397921 0 0 1 -2.11667,-3.175 c -0.70115,-1.5875 -1.08479,-3.175 -1.19063,-5.040312 v -0.01323 a 14.168438,14.168438 0 0 1 0.59532,-5.159375 8.8370837,8.8370837 0 0 1 2.20927,-3.862917 4.749271,4.749271 0 0 1 3.4925,-1.561041 c 1.11125,0 2.09021,0.370416 3.10885,1.190625 a 8.9958337,8.9958337 0 0 1 2.63261,3.585104 c 0.70114,1.5875 1.05833,3.175 1.17739,5.053542 v 0.01323 c 0.0397,0.79375 0.0397,1.521354 -0.0265,2.248958 z"
       id="path7"
       style="stroke-width:13.2292" /><path
       fill="#202020"
       d="m 475.7434,57.34844 c 0.13229,0.449792 0.85989,0.383646 1.28323,0.595313 0.35718,0.185208 0.66145,0.595312 1.05833,0.608541 0.39687,0.01323 1.00542,-0.132291 1.05833,-0.529166 0.0661,-0.502709 -0.68791,-0.833438 -1.16416,-1.018646 -0.62178,-0.251355 -1.41553,-0.370417 -1.99761,-0.03969 -0.13229,0.06615 -0.27781,0.238125 -0.23812,0.396875 z m -4.2598,0 c -0.13229,0.449792 -0.85989,0.383646 -1.27,0.595313 -0.37041,0.185208 -0.66145,0.595312 -1.07156,0.608541 -0.39687,0.01323 -1.00541,-0.132291 -1.05833,-0.529166 -0.0661,-0.502709 0.68792,-0.833438 1.16417,-1.018646 0.62177,-0.251355 1.42875,-0.370417 2.01083,-0.03969 0.13229,0.06615 0.26458,0.238125 0.22489,0.396875 z"
       id="path8"
       style="stroke-width:13.2292" /></g></svg>
